<?xml version="1.0" encoding="utf-8" standalone="no"?>
<!DOCTYPE svg PUBLIC "-//W3C//DTD SVG 1.1//EN"
  "http://www.w3.org/Graphics/SVG/1.1/DTD/svg11.dtd">
<svg xmlns:xlink="http://www.w3.org/1999/xlink" width="790.82375pt" height="171.034375pt" viewBox="0 0 790.82375 171.034375" xmlns="http://www.w3.org/2000/svg" version="1.1">
 <metadata>
  <rdf:RDF xmlns:dc="http://purl.org/dc/elements/1.1/" xmlns:cc="http://creativecommons.org/ns#" xmlns:rdf="http://www.w3.org/1999/02/22-rdf-syntax-ns#">
   <cc:Work>
    <dc:type rdf:resource="http://purl.org/dc/dcmitype/StillImage"/>
    <dc:date>2025-09-10T11:14:58.008291</dc:date>
    <dc:format>image/svg+xml</dc:format>
    <dc:creator>
     <cc:Agent>
      <dc:title>Matplotlib v3.10.1, https://matplotlib.org/</dc:title>
     </cc:Agent>
    </dc:creator>
   </cc:Work>
  </rdf:RDF>
 </metadata>
 <defs>
  <style type="text/css">*{stroke-linejoin: round; stroke-linecap: butt}</style>
 </defs>
 <g id="figure_1">
  <g id="patch_1">
   <path d="M 0 171.034375 
L 790.82375 171.034375 
L 790.82375 -0 
L 0 -0 
z
" style="fill: #ffffff"/>
  </g>
  <g id="axes_1">
   <g id="patch_2">
    <path d="M 50.14375 133.478125 
L 188.27375 133.478125 
L 188.27375 22.318125 
L 50.14375 22.318125 
z
" style="fill: #ffffff"/>
   </g>
   <g id="matplotlib.axis_1">
    <g id="xtick_1">
     <g id="line2d_1">
      <defs>
       <path id="m08513eb9ea" d="M 0 0 
L 0 3.5 
" style="stroke: #000000; stroke-width: 0.8"/>
      </defs>
      <g>
       <use xlink:href="#m08513eb9ea" x="56.422386" y="133.478125" style="stroke: #000000; stroke-width: 0.8"/>
      </g>
     </g>
     <g id="text_1">
      <!-- 0 -->
      <g transform="translate(53.241136 148.076563) scale(0.1 -0.1)">
       <defs>
        <path id="DejaVuSans-30" d="M 2034 4250 
Q 1547 4250 1301 3770 
Q 1056 3291 1056 2328 
Q 1056 1369 1301 889 
Q 1547 409 2034 409 
Q 2525 409 2770 889 
Q 3016 1369 3016 2328 
Q 3016 3291 2770 3770 
Q 2525 4250 2034 4250 
z
M 2034 4750 
Q 2819 4750 3233 4129 
Q 3647 3509 3647 2328 
Q 3647 1150 3233 529 
Q 2819 -91 2034 -91 
Q 1250 -91 836 529 
Q 422 1150 422 2328 
Q 422 3509 836 4129 
Q 1250 4750 2034 4750 
z
" transform="scale(0.015625)"/>
       </defs>
       <use xlink:href="#DejaVuSans-30"/>
      </g>
     </g>
    </g>
    <g id="xtick_2">
     <g id="line2d_2">
      <g>
       <use xlink:href="#m08513eb9ea" x="119.20875" y="133.478125" style="stroke: #000000; stroke-width: 0.8"/>
      </g>
     </g>
     <g id="text_2">
      <!-- 1 -->
      <g transform="translate(116.0275 148.076563) scale(0.1 -0.1)">
       <defs>
        <path id="DejaVuSans-31" d="M 794 531 
L 1825 531 
L 1825 4091 
L 703 3866 
L 703 4441 
L 1819 4666 
L 2450 4666 
L 2450 531 
L 3481 531 
L 3481 0 
L 794 0 
L 794 531 
z
" transform="scale(0.015625)"/>
       </defs>
       <use xlink:href="#DejaVuSans-31"/>
      </g>
     </g>
    </g>
    <g id="xtick_3">
     <g id="line2d_3">
      <g>
       <use xlink:href="#m08513eb9ea" x="181.995114" y="133.478125" style="stroke: #000000; stroke-width: 0.8"/>
      </g>
     </g>
     <g id="text_3">
      <!-- 2 -->
      <g transform="translate(178.813864 148.076563) scale(0.1 -0.1)">
       <defs>
        <path id="DejaVuSans-32" d="M 1228 531 
L 3431 531 
L 3431 0 
L 469 0 
L 469 531 
Q 828 903 1448 1529 
Q 2069 2156 2228 2338 
Q 2531 2678 2651 2914 
Q 2772 3150 2772 3378 
Q 2772 3750 2511 3984 
Q 2250 4219 1831 4219 
Q 1534 4219 1204 4116 
Q 875 4013 500 3803 
L 500 4441 
Q 881 4594 1212 4672 
Q 1544 4750 1819 4750 
Q 2544 4750 2975 4387 
Q 3406 4025 3406 3419 
Q 3406 3131 3298 2873 
Q 3191 2616 2906 2266 
Q 2828 2175 2409 1742 
Q 1991 1309 1228 531 
z
" transform="scale(0.015625)"/>
       </defs>
       <use xlink:href="#DejaVuSans-32"/>
      </g>
     </g>
    </g>
    <g id="text_4">
     <!-- Time [Y] -->
     <g transform="translate(98.430625 161.754688) scale(0.1 -0.1)">
      <defs>
       <path id="DejaVuSans-54" d="M -19 4666 
L 3928 4666 
L 3928 4134 
L 2272 4134 
L 2272 0 
L 1638 0 
L 1638 4134 
L -19 4134 
L -19 4666 
z
" transform="scale(0.015625)"/>
       <path id="DejaVuSans-69" d="M 603 3500 
L 1178 3500 
L 1178 0 
L 603 0 
L 603 3500 
z
M 603 4863 
L 1178 4863 
L 1178 4134 
L 603 4134 
L 603 4863 
z
" transform="scale(0.015625)"/>
       <path id="DejaVuSans-6d" d="M 3328 2828 
Q 3544 3216 3844 3400 
Q 4144 3584 4550 3584 
Q 5097 3584 5394 3201 
Q 5691 2819 5691 2113 
L 5691 0 
L 5113 0 
L 5113 2094 
Q 5113 2597 4934 2840 
Q 4756 3084 4391 3084 
Q 3944 3084 3684 2787 
Q 3425 2491 3425 1978 
L 3425 0 
L 2847 0 
L 2847 2094 
Q 2847 2600 2669 2842 
Q 2491 3084 2119 3084 
Q 1678 3084 1418 2786 
Q 1159 2488 1159 1978 
L 1159 0 
L 581 0 
L 581 3500 
L 1159 3500 
L 1159 2956 
Q 1356 3278 1631 3431 
Q 1906 3584 2284 3584 
Q 2666 3584 2933 3390 
Q 3200 3197 3328 2828 
z
" transform="scale(0.015625)"/>
       <path id="DejaVuSans-65" d="M 3597 1894 
L 3597 1613 
L 953 1613 
Q 991 1019 1311 708 
Q 1631 397 2203 397 
Q 2534 397 2845 478 
Q 3156 559 3463 722 
L 3463 178 
Q 3153 47 2828 -22 
Q 2503 -91 2169 -91 
Q 1331 -91 842 396 
Q 353 884 353 1716 
Q 353 2575 817 3079 
Q 1281 3584 2069 3584 
Q 2775 3584 3186 3129 
Q 3597 2675 3597 1894 
z
M 3022 2063 
Q 3016 2534 2758 2815 
Q 2500 3097 2075 3097 
Q 1594 3097 1305 2825 
Q 1016 2553 972 2059 
L 3022 2063 
z
" transform="scale(0.015625)"/>
       <path id="DejaVuSans-20" transform="scale(0.015625)"/>
       <path id="DejaVuSans-5b" d="M 550 4863 
L 1875 4863 
L 1875 4416 
L 1125 4416 
L 1125 -397 
L 1875 -397 
L 1875 -844 
L 550 -844 
L 550 4863 
z
" transform="scale(0.015625)"/>
       <path id="DejaVuSans-59" d="M -13 4666 
L 666 4666 
L 1959 2747 
L 3244 4666 
L 3922 4666 
L 2272 2222 
L 2272 0 
L 1638 0 
L 1638 2222 
L -13 4666 
z
" transform="scale(0.015625)"/>
       <path id="DejaVuSans-5d" d="M 1947 4863 
L 1947 -844 
L 622 -844 
L 622 -397 
L 1369 -397 
L 1369 4416 
L 622 4416 
L 622 4863 
L 1947 4863 
z
" transform="scale(0.015625)"/>
      </defs>
      <use xlink:href="#DejaVuSans-54"/>
      <use xlink:href="#DejaVuSans-69" transform="translate(57.958984 0)"/>
      <use xlink:href="#DejaVuSans-6d" transform="translate(85.742188 0)"/>
      <use xlink:href="#DejaVuSans-65" transform="translate(183.154297 0)"/>
      <use xlink:href="#DejaVuSans-20" transform="translate(244.677734 0)"/>
      <use xlink:href="#DejaVuSans-5b" transform="translate(276.464844 0)"/>
      <use xlink:href="#DejaVuSans-59" transform="translate(315.478516 0)"/>
      <use xlink:href="#DejaVuSans-5d" transform="translate(376.5625 0)"/>
     </g>
    </g>
   </g>
   <g id="matplotlib.axis_2">
    <g id="ytick_1">
     <g id="line2d_4">
      <defs>
       <path id="m70322b8d82" d="M 0 0 
L -3.5 0 
" style="stroke: #000000; stroke-width: 0.8"/>
      </defs>
      <g>
       <use xlink:href="#m70322b8d82" x="50.14375" y="128.810577" style="stroke: #000000; stroke-width: 0.8"/>
      </g>
     </g>
     <g id="text_5">
      <!-- 0.00 -->
      <g transform="translate(20.878125 132.609796) scale(0.1 -0.1)">
       <defs>
        <path id="DejaVuSans-2e" d="M 684 794 
L 1344 794 
L 1344 0 
L 684 0 
L 684 794 
z
" transform="scale(0.015625)"/>
       </defs>
       <use xlink:href="#DejaVuSans-30"/>
       <use xlink:href="#DejaVuSans-2e" transform="translate(63.623047 0)"/>
       <use xlink:href="#DejaVuSans-30" transform="translate(95.410156 0)"/>
       <use xlink:href="#DejaVuSans-30" transform="translate(159.033203 0)"/>
      </g>
     </g>
    </g>
    <g id="ytick_2">
     <g id="line2d_5">
      <g>
       <use xlink:href="#m70322b8d82" x="50.14375" y="103.450646" style="stroke: #000000; stroke-width: 0.8"/>
      </g>
     </g>
     <g id="text_6">
      <!-- 0.25 -->
      <g transform="translate(20.878125 107.249865) scale(0.1 -0.1)">
       <defs>
        <path id="DejaVuSans-35" d="M 691 4666 
L 3169 4666 
L 3169 4134 
L 1269 4134 
L 1269 2991 
Q 1406 3038 1543 3061 
Q 1681 3084 1819 3084 
Q 2600 3084 3056 2656 
Q 3513 2228 3513 1497 
Q 3513 744 3044 326 
Q 2575 -91 1722 -91 
Q 1428 -91 1123 -41 
Q 819 9 494 109 
L 494 744 
Q 775 591 1075 516 
Q 1375 441 1709 441 
Q 2250 441 2565 725 
Q 2881 1009 2881 1497 
Q 2881 1984 2565 2268 
Q 2250 2553 1709 2553 
Q 1456 2553 1204 2497 
Q 953 2441 691 2322 
L 691 4666 
z
" transform="scale(0.015625)"/>
       </defs>
       <use xlink:href="#DejaVuSans-30"/>
       <use xlink:href="#DejaVuSans-2e" transform="translate(63.623047 0)"/>
       <use xlink:href="#DejaVuSans-32" transform="translate(95.410156 0)"/>
       <use xlink:href="#DejaVuSans-35" transform="translate(159.033203 0)"/>
      </g>
     </g>
    </g>
    <g id="ytick_3">
     <g id="line2d_6">
      <g>
       <use xlink:href="#m70322b8d82" x="50.14375" y="78.090715" style="stroke: #000000; stroke-width: 0.8"/>
      </g>
     </g>
     <g id="text_7">
      <!-- 0.50 -->
      <g transform="translate(20.878125 81.889934) scale(0.1 -0.1)">
       <use xlink:href="#DejaVuSans-30"/>
       <use xlink:href="#DejaVuSans-2e" transform="translate(63.623047 0)"/>
       <use xlink:href="#DejaVuSans-35" transform="translate(95.410156 0)"/>
       <use xlink:href="#DejaVuSans-30" transform="translate(159.033203 0)"/>
      </g>
     </g>
    </g>
    <g id="ytick_4">
     <g id="line2d_7">
      <g>
       <use xlink:href="#m70322b8d82" x="50.14375" y="52.730784" style="stroke: #000000; stroke-width: 0.8"/>
      </g>
     </g>
     <g id="text_8">
      <!-- 0.75 -->
      <g transform="translate(20.878125 56.530002) scale(0.1 -0.1)">
       <defs>
        <path id="DejaVuSans-37" d="M 525 4666 
L 3525 4666 
L 3525 4397 
L 1831 0 
L 1172 0 
L 2766 4134 
L 525 4134 
L 525 4666 
z
" transform="scale(0.015625)"/>
       </defs>
       <use xlink:href="#DejaVuSans-30"/>
       <use xlink:href="#DejaVuSans-2e" transform="translate(63.623047 0)"/>
       <use xlink:href="#DejaVuSans-37" transform="translate(95.410156 0)"/>
       <use xlink:href="#DejaVuSans-35" transform="translate(159.033203 0)"/>
      </g>
     </g>
    </g>
    <g id="ytick_5">
     <g id="line2d_8">
      <g>
       <use xlink:href="#m70322b8d82" x="50.14375" y="27.370852" style="stroke: #000000; stroke-width: 0.8"/>
      </g>
     </g>
     <g id="text_9">
      <!-- 1.00 -->
      <g transform="translate(20.878125 31.170071) scale(0.1 -0.1)">
       <use xlink:href="#DejaVuSans-31"/>
       <use xlink:href="#DejaVuSans-2e" transform="translate(63.623047 0)"/>
       <use xlink:href="#DejaVuSans-30" transform="translate(95.410156 0)"/>
       <use xlink:href="#DejaVuSans-30" transform="translate(159.033203 0)"/>
      </g>
     </g>
    </g>
    <g id="text_10">
     <!-- total C [g] -->
     <g transform="translate(14.798438 103.07625) rotate(-90) scale(0.1 -0.1)">
      <defs>
       <path id="DejaVuSans-74" d="M 1172 4494 
L 1172 3500 
L 2356 3500 
L 2356 3053 
L 1172 3053 
L 1172 1153 
Q 1172 725 1289 603 
Q 1406 481 1766 481 
L 2356 481 
L 2356 0 
L 1766 0 
Q 1100 0 847 248 
Q 594 497 594 1153 
L 594 3053 
L 172 3053 
L 172 3500 
L 594 3500 
L 594 4494 
L 1172 4494 
z
" transform="scale(0.015625)"/>
       <path id="DejaVuSans-6f" d="M 1959 3097 
Q 1497 3097 1228 2736 
Q 959 2375 959 1747 
Q 959 1119 1226 758 
Q 1494 397 1959 397 
Q 2419 397 2687 759 
Q 2956 1122 2956 1747 
Q 2956 2369 2687 2733 
Q 2419 3097 1959 3097 
z
M 1959 3584 
Q 2709 3584 3137 3096 
Q 3566 2609 3566 1747 
Q 3566 888 3137 398 
Q 2709 -91 1959 -91 
Q 1206 -91 779 398 
Q 353 888 353 1747 
Q 353 2609 779 3096 
Q 1206 3584 1959 3584 
z
" transform="scale(0.015625)"/>
       <path id="DejaVuSans-61" d="M 2194 1759 
Q 1497 1759 1228 1600 
Q 959 1441 959 1056 
Q 959 750 1161 570 
Q 1363 391 1709 391 
Q 2188 391 2477 730 
Q 2766 1069 2766 1631 
L 2766 1759 
L 2194 1759 
z
M 3341 1997 
L 3341 0 
L 2766 0 
L 2766 531 
Q 2569 213 2275 61 
Q 1981 -91 1556 -91 
Q 1019 -91 701 211 
Q 384 513 384 1019 
Q 384 1609 779 1909 
Q 1175 2209 1959 2209 
L 2766 2209 
L 2766 2266 
Q 2766 2663 2505 2880 
Q 2244 3097 1772 3097 
Q 1472 3097 1187 3025 
Q 903 2953 641 2809 
L 641 3341 
Q 956 3463 1253 3523 
Q 1550 3584 1831 3584 
Q 2591 3584 2966 3190 
Q 3341 2797 3341 1997 
z
" transform="scale(0.015625)"/>
       <path id="DejaVuSans-6c" d="M 603 4863 
L 1178 4863 
L 1178 0 
L 603 0 
L 603 4863 
z
" transform="scale(0.015625)"/>
       <path id="DejaVuSans-43" d="M 4122 4306 
L 4122 3641 
Q 3803 3938 3442 4084 
Q 3081 4231 2675 4231 
Q 1875 4231 1450 3742 
Q 1025 3253 1025 2328 
Q 1025 1406 1450 917 
Q 1875 428 2675 428 
Q 3081 428 3442 575 
Q 3803 722 4122 1019 
L 4122 359 
Q 3791 134 3420 21 
Q 3050 -91 2638 -91 
Q 1578 -91 968 557 
Q 359 1206 359 2328 
Q 359 3453 968 4101 
Q 1578 4750 2638 4750 
Q 3056 4750 3426 4639 
Q 3797 4528 4122 4306 
z
" transform="scale(0.015625)"/>
       <path id="DejaVuSans-67" d="M 2906 1791 
Q 2906 2416 2648 2759 
Q 2391 3103 1925 3103 
Q 1463 3103 1205 2759 
Q 947 2416 947 1791 
Q 947 1169 1205 825 
Q 1463 481 1925 481 
Q 2391 481 2648 825 
Q 2906 1169 2906 1791 
z
M 3481 434 
Q 3481 -459 3084 -895 
Q 2688 -1331 1869 -1331 
Q 1566 -1331 1297 -1286 
Q 1028 -1241 775 -1147 
L 775 -588 
Q 1028 -725 1275 -790 
Q 1522 -856 1778 -856 
Q 2344 -856 2625 -561 
Q 2906 -266 2906 331 
L 2906 616 
Q 2728 306 2450 153 
Q 2172 0 1784 0 
Q 1141 0 747 490 
Q 353 981 353 1791 
Q 353 2603 747 3093 
Q 1141 3584 1784 3584 
Q 2172 3584 2450 3431 
Q 2728 3278 2906 2969 
L 2906 3500 
L 3481 3500 
L 3481 434 
z
" transform="scale(0.015625)"/>
      </defs>
      <use xlink:href="#DejaVuSans-74"/>
      <use xlink:href="#DejaVuSans-6f" transform="translate(39.208984 0)"/>
      <use xlink:href="#DejaVuSans-74" transform="translate(100.390625 0)"/>
      <use xlink:href="#DejaVuSans-61" transform="translate(139.599609 0)"/>
      <use xlink:href="#DejaVuSans-6c" transform="translate(200.878906 0)"/>
      <use xlink:href="#DejaVuSans-20" transform="translate(228.662109 0)"/>
      <use xlink:href="#DejaVuSans-43" transform="translate(260.449219 0)"/>
      <use xlink:href="#DejaVuSans-20" transform="translate(330.273438 0)"/>
      <use xlink:href="#DejaVuSans-5b" transform="translate(362.060547 0)"/>
      <use xlink:href="#DejaVuSans-67" transform="translate(401.074219 0)"/>
      <use xlink:href="#DejaVuSans-5d" transform="translate(464.550781 0)"/>
     </g>
    </g>
   </g>
   <g id="line2d_9">
    <path d="M 56.422386 27.370852 
L 59.57748 34.990185 
L 62.732574 41.994441 
L 65.887667 48.439741 
L 69.042761 54.376178 
L 72.197855 59.848581 
L 75.352948 64.897161 
L 78.508042 69.558077 
L 81.663136 73.863916 
L 84.818229 77.844114 
L 88.604342 82.227838 
L 92.390454 86.222245 
L 96.176566 89.864231 
L 99.962679 93.186783 
L 103.748791 96.21946 
L 107.534903 98.988804 
L 111.952035 101.91857 
L 116.369166 104.556132 
L 120.786297 106.931575 
L 125.203428 109.071686 
L 130.251578 111.259897 
L 135.299728 113.203483 
L 140.978896 115.132151 
L 146.658065 116.821075 
L 152.968252 118.453048 
L 159.278439 119.862003 
L 166.219645 121.190819 
L 173.79187 122.415881 
L 181.995114 123.521374 
L 181.995114 123.521374 
" clip-path="url(#p837100257c)" style="fill: none; stroke: #000000; stroke-width: 2; stroke-linecap: square"/>
   </g>
   <g id="line2d_10">
    <path d="M 56.422386 27.370852 
L 58.946461 38.122863 
L 61.470536 47.734244 
L 63.994611 56.32617 
L 66.518686 64.006913 
L 69.042761 70.873222 
L 71.566836 77.011556 
L 74.090911 82.499178 
L 76.614986 87.40514 
L 79.139061 91.791155 
L 81.663136 95.712377 
L 84.18721 99.218102 
L 86.711285 102.352392 
L 89.23536 105.154628 
L 91.759435 107.660014 
L 94.28351 109.900015 
L 97.438604 112.36938 
L 100.593697 114.516277 
L 103.748791 116.382835 
L 106.903885 118.005674 
L 110.689997 119.675892 
L 114.47611 121.087977 
L 118.262222 122.28183 
L 122.679353 123.443541 
L 127.727503 124.52042 
L 133.406671 125.476012 
L 139.716859 126.290443 
L 146.658065 126.958691 
L 154.861308 127.524033 
L 164.957608 127.989017 
L 177.577983 128.341774 
L 181.995114 128.425398 
L 181.995114 128.425398 
" clip-path="url(#p837100257c)" style="fill: none; stroke-dasharray: 7.4,3.2; stroke-dashoffset: 0; stroke: #000000; stroke-width: 2"/>
   </g>
   <g id="line2d_11">
    <path d="M 56.422386 27.370852 
L 58.946461 34.617982 
L 61.470536 41.269725 
L 63.994611 47.394113 
L 67.149705 54.39401 
L 70.304798 60.750125 
L 73.459892 66.536752 
L 76.614986 71.814865 
L 79.770079 76.63539 
L 82.925173 81.041696 
L 86.080267 85.071425 
L 89.23536 88.757792 
L 92.390454 92.130496 
L 95.545548 95.216357 
L 99.33166 98.574946 
L 103.117772 101.593669 
L 106.903885 104.306889 
L 110.689997 106.745574 
L 114.47611 108.937642 
L 118.893241 111.216764 
L 123.310372 113.229979 
L 127.727503 115.008765 
L 132.775653 116.790072 
L 137.823803 118.337556 
L 143.502971 119.837799 
L 149.813158 121.250248 
L 156.123346 122.437212 
L 163.064552 123.52606 
L 171.267795 124.572975 
L 180.102057 125.467507 
L 181.995114 125.63287 
L 181.995114 125.63287 
" clip-path="url(#p837100257c)" style="fill: none; stroke-dasharray: 2,3.3; stroke-dashoffset: 0; stroke: #000000; stroke-width: 2"/>
   </g>
   <g id="line2d_12">
    <path d="M 56.422386 27.370852 
L 58.946461 33.740066 
L 62.101555 41.023719 
L 65.256649 47.639785 
L 68.411742 53.667307 
L 71.566836 59.173876 
L 74.72193 64.217367 
L 77.877023 68.847448 
L 81.032117 73.106876 
L 84.18721 77.032604 
L 87.342304 80.656716 
L 91.128417 84.646685 
L 94.914529 88.284395 
L 98.700641 91.605952 
L 102.486754 94.642681 
L 106.272866 97.42195 
L 110.689997 100.371 
L 115.107128 103.035831 
L 119.524259 105.445761 
L 123.94139 107.626577 
L 128.98954 109.867526 
L 134.03769 111.868945 
L 139.716859 113.86692 
L 145.396027 115.627849 
L 151.706215 117.341087 
L 158.016402 118.830956 
L 164.957608 120.246778 
L 172.529833 121.562899 
L 180.733076 122.761235 
L 181.995114 122.927106 
L 181.995114 122.927106 
" clip-path="url(#p837100257c)" style="fill: none; stroke-dasharray: 12.8,3.2,2,3.2; stroke-dashoffset: 0; stroke: #000000; stroke-width: 2"/>
   </g>
   <g id="patch_3">
    <path d="M 50.14375 133.478125 
L 50.14375 22.318125 
" style="fill: none; stroke: #404040; stroke-width: 0.5; stroke-linejoin: miter; stroke-linecap: square"/>
   </g>
   <g id="patch_4">
    <path d="M 188.27375 133.478125 
L 188.27375 22.318125 
" style="fill: none; stroke: #404040; stroke-width: 0.5; stroke-linejoin: miter; stroke-linecap: square"/>
   </g>
   <g id="patch_5">
    <path d="M 50.14375 133.478125 
L 188.27375 133.478125 
" style="fill: none; stroke: #404040; stroke-width: 0.5; stroke-linejoin: miter; stroke-linecap: square"/>
   </g>
   <g id="patch_6">
    <path d="M 50.14375 22.318125 
L 188.27375 22.318125 
" style="fill: none; stroke: #404040; stroke-width: 0.5; stroke-linejoin: miter; stroke-linecap: square"/>
   </g>
   <g id="text_11">
    <!-- (A) -->
    <g style="fill: #ffffff" transform="translate(110.4225 16.318125) scale(0.12 -0.12)">
     <defs>
      <path id="DejaVuSans-28" d="M 1984 4856 
Q 1566 4138 1362 3434 
Q 1159 2731 1159 2009 
Q 1159 1288 1364 580 
Q 1569 -128 1984 -844 
L 1484 -844 
Q 1016 -109 783 600 
Q 550 1309 550 2009 
Q 550 2706 781 3412 
Q 1013 4119 1484 4856 
L 1984 4856 
z
" transform="scale(0.015625)"/>
      <path id="DejaVuSans-41" d="M 2188 4044 
L 1331 1722 
L 3047 1722 
L 2188 4044 
z
M 1831 4666 
L 2547 4666 
L 4325 0 
L 3669 0 
L 3244 1197 
L 1141 1197 
L 716 0 
L 50 0 
L 1831 4666 
z
" transform="scale(0.015625)"/>
      <path id="DejaVuSans-29" d="M 513 4856 
L 1013 4856 
Q 1481 4119 1714 3412 
Q 1947 2706 1947 2009 
Q 1947 1309 1714 600 
Q 1481 -109 1013 -844 
L 513 -844 
Q 928 -128 1133 580 
Q 1338 1288 1338 2009 
Q 1338 2731 1133 3434 
Q 928 4138 513 4856 
z
" transform="scale(0.015625)"/>
     </defs>
     <use xlink:href="#DejaVuSans-28"/>
     <use xlink:href="#DejaVuSans-41" transform="translate(39.013672 0)"/>
     <use xlink:href="#DejaVuSans-29" transform="translate(107.421875 0)"/>
    </g>
   </g>
   <g id="legend_1">
    <g id="line2d_13">
     <path d="M 127.564531 34.106719 
L 136.564531 34.106719 
L 145.564531 34.106719 
" style="fill: none; stroke: #000000; stroke-width: 2; stroke-linecap: square"/>
    </g>
    <g id="text_12">
     <!-- NPNE -->
     <g style="fill: #ffffff" transform="translate(152.764531 37.256719) scale(0.09 -0.09)">
      <defs>
       <path id="DejaVuSans-4e" d="M 628 4666 
L 1478 4666 
L 3547 763 
L 3547 4666 
L 4159 4666 
L 4159 0 
L 3309 0 
L 1241 3903 
L 1241 0 
L 628 0 
L 628 4666 
z
" transform="scale(0.015625)"/>
       <path id="DejaVuSans-50" d="M 1259 4147 
L 1259 2394 
L 2053 2394 
Q 2494 2394 2734 2622 
Q 2975 2850 2975 3272 
Q 2975 3691 2734 3919 
Q 2494 4147 2053 4147 
L 1259 4147 
z
M 628 4666 
L 2053 4666 
Q 2838 4666 3239 4311 
Q 3641 3956 3641 3272 
Q 3641 2581 3239 2228 
Q 2838 1875 2053 1875 
L 1259 1875 
L 1259 0 
L 628 0 
L 628 4666 
z
" transform="scale(0.015625)"/>
       <path id="DejaVuSans-45" d="M 628 4666 
L 3578 4666 
L 3578 4134 
L 1259 4134 
L 1259 2753 
L 3481 2753 
L 3481 2222 
L 1259 2222 
L 1259 531 
L 3634 531 
L 3634 0 
L 628 0 
L 628 4666 
z
" transform="scale(0.015625)"/>
      </defs>
      <use xlink:href="#DejaVuSans-4e"/>
      <use xlink:href="#DejaVuSans-50" transform="translate(74.804688 0)"/>
      <use xlink:href="#DejaVuSans-4e" transform="translate(135.107422 0)"/>
      <use xlink:href="#DejaVuSans-45" transform="translate(209.912109 0)"/>
     </g>
    </g>
    <g id="line2d_14">
     <path d="M 127.564531 47.317031 
L 136.564531 47.317031 
L 145.564531 47.317031 
" style="fill: none; stroke-dasharray: 7.4,3.2; stroke-dashoffset: 0; stroke: #000000; stroke-width: 2"/>
    </g>
    <g id="text_13">
     <!-- NPWE -->
     <g style="fill: #ffffff" transform="translate(152.764531 50.467031) scale(0.09 -0.09)">
      <defs>
       <path id="DejaVuSans-57" d="M 213 4666 
L 850 4666 
L 1831 722 
L 2809 4666 
L 3519 4666 
L 4500 722 
L 5478 4666 
L 6119 4666 
L 4947 0 
L 4153 0 
L 3169 4050 
L 2175 0 
L 1381 0 
L 213 4666 
z
" transform="scale(0.015625)"/>
      </defs>
      <use xlink:href="#DejaVuSans-4e"/>
      <use xlink:href="#DejaVuSans-50" transform="translate(74.804688 0)"/>
      <use xlink:href="#DejaVuSans-57" transform="translate(135.107422 0)"/>
      <use xlink:href="#DejaVuSans-45" transform="translate(233.984375 0)"/>
     </g>
    </g>
    <g id="line2d_15">
     <path d="M 127.564531 60.527344 
L 136.564531 60.527344 
L 145.564531 60.527344 
" style="fill: none; stroke-dasharray: 2,3.3; stroke-dashoffset: 0; stroke: #000000; stroke-width: 2"/>
    </g>
    <g id="text_14">
     <!-- PWOE -->
     <g style="fill: #ffffff" transform="translate(152.764531 63.677344) scale(0.09 -0.09)">
      <defs>
       <path id="DejaVuSans-4f" d="M 2522 4238 
Q 1834 4238 1429 3725 
Q 1025 3213 1025 2328 
Q 1025 1447 1429 934 
Q 1834 422 2522 422 
Q 3209 422 3611 934 
Q 4013 1447 4013 2328 
Q 4013 3213 3611 3725 
Q 3209 4238 2522 4238 
z
M 2522 4750 
Q 3503 4750 4090 4092 
Q 4678 3434 4678 2328 
Q 4678 1225 4090 567 
Q 3503 -91 2522 -91 
Q 1538 -91 948 565 
Q 359 1222 359 2328 
Q 359 3434 948 4092 
Q 1538 4750 2522 4750 
z
" transform="scale(0.015625)"/>
      </defs>
      <use xlink:href="#DejaVuSans-50"/>
      <use xlink:href="#DejaVuSans-57" transform="translate(60.302734 0)"/>
      <use xlink:href="#DejaVuSans-4f" transform="translate(159.179688 0)"/>
      <use xlink:href="#DejaVuSans-45" transform="translate(237.890625 0)"/>
     </g>
    </g>
    <g id="line2d_16">
     <path d="M 127.564531 73.737656 
L 136.564531 73.737656 
L 145.564531 73.737656 
" style="fill: none; stroke-dasharray: 12.8,3.2,2,3.2; stroke-dashoffset: 0; stroke: #000000; stroke-width: 2"/>
    </g>
    <g id="text_15">
     <!-- PWOV -->
     <g style="fill: #ffffff" transform="translate(152.764531 76.887656) scale(0.09 -0.09)">
      <defs>
       <path id="DejaVuSans-56" d="M 1831 0 
L 50 4666 
L 709 4666 
L 2188 738 
L 3669 4666 
L 4325 4666 
L 2547 0 
L 1831 0 
z
" transform="scale(0.015625)"/>
      </defs>
      <use xlink:href="#DejaVuSans-50"/>
      <use xlink:href="#DejaVuSans-57" transform="translate(60.302734 0)"/>
      <use xlink:href="#DejaVuSans-4f" transform="translate(159.179688 0)"/>
      <use xlink:href="#DejaVuSans-56" transform="translate(236.140625 0)"/>
     </g>
    </g>
   </g>
  </g>
  <g id="axes_2">
   <g id="patch_7">
    <path d="M 248.59375 133.478125 
L 386.72375 133.478125 
L 386.72375 22.318125 
L 248.59375 22.318125 
z
" style="fill: #ffffff"/>
   </g>
   <g id="matplotlib.axis_3">
    <g id="xtick_4">
     <g id="line2d_17">
      <g>
       <use xlink:href="#m08513eb9ea" x="254.872386" y="133.478125" style="stroke: #000000; stroke-width: 0.8"/>
      </g>
     </g>
     <g id="text_16">
      <!-- 0 -->
      <g transform="translate(251.691136 148.076563) scale(0.1 -0.1)">
       <use xlink:href="#DejaVuSans-30"/>
      </g>
     </g>
    </g>
    <g id="xtick_5">
     <g id="line2d_18">
      <g>
       <use xlink:href="#m08513eb9ea" x="317.65875" y="133.478125" style="stroke: #000000; stroke-width: 0.8"/>
      </g>
     </g>
     <g id="text_17">
      <!-- 1 -->
      <g transform="translate(314.4775 148.076563) scale(0.1 -0.1)">
       <use xlink:href="#DejaVuSans-31"/>
      </g>
     </g>
    </g>
    <g id="xtick_6">
     <g id="line2d_19">
      <g>
       <use xlink:href="#m08513eb9ea" x="380.445114" y="133.478125" style="stroke: #000000; stroke-width: 0.8"/>
      </g>
     </g>
     <g id="text_18">
      <!-- 2 -->
      <g transform="translate(377.263864 148.076563) scale(0.1 -0.1)">
       <use xlink:href="#DejaVuSans-32"/>
      </g>
     </g>
    </g>
    <g id="text_19">
     <!-- Time [Y] -->
     <g transform="translate(296.880625 161.754688) scale(0.1 -0.1)">
      <use xlink:href="#DejaVuSans-54"/>
      <use xlink:href="#DejaVuSans-69" transform="translate(57.958984 0)"/>
      <use xlink:href="#DejaVuSans-6d" transform="translate(85.742188 0)"/>
      <use xlink:href="#DejaVuSans-65" transform="translate(183.154297 0)"/>
      <use xlink:href="#DejaVuSans-20" transform="translate(244.677734 0)"/>
      <use xlink:href="#DejaVuSans-5b" transform="translate(276.464844 0)"/>
      <use xlink:href="#DejaVuSans-59" transform="translate(315.478516 0)"/>
      <use xlink:href="#DejaVuSans-5d" transform="translate(376.5625 0)"/>
     </g>
    </g>
   </g>
   <g id="matplotlib.axis_4">
    <g id="ytick_6">
     <g id="line2d_20">
      <g>
       <use xlink:href="#m70322b8d82" x="248.59375" y="129.774746" style="stroke: #000000; stroke-width: 0.8"/>
      </g>
     </g>
     <g id="text_20">
      <!-- 0.0000 -->
      <g transform="translate(206.603125 133.573964) scale(0.1 -0.1)">
       <use xlink:href="#DejaVuSans-30"/>
       <use xlink:href="#DejaVuSans-2e" transform="translate(63.623047 0)"/>
       <use xlink:href="#DejaVuSans-30" transform="translate(95.410156 0)"/>
       <use xlink:href="#DejaVuSans-30" transform="translate(159.033203 0)"/>
       <use xlink:href="#DejaVuSans-30" transform="translate(222.65625 0)"/>
       <use xlink:href="#DejaVuSans-30" transform="translate(286.279297 0)"/>
      </g>
     </g>
    </g>
    <g id="ytick_7">
     <g id="line2d_21">
      <g>
       <use xlink:href="#m70322b8d82" x="248.59375" y="102.088034" style="stroke: #000000; stroke-width: 0.8"/>
      </g>
     </g>
     <g id="text_21">
      <!-- 0.0025 -->
      <g transform="translate(206.603125 105.887252) scale(0.1 -0.1)">
       <use xlink:href="#DejaVuSans-30"/>
       <use xlink:href="#DejaVuSans-2e" transform="translate(63.623047 0)"/>
       <use xlink:href="#DejaVuSans-30" transform="translate(95.410156 0)"/>
       <use xlink:href="#DejaVuSans-30" transform="translate(159.033203 0)"/>
       <use xlink:href="#DejaVuSans-32" transform="translate(222.65625 0)"/>
       <use xlink:href="#DejaVuSans-35" transform="translate(286.279297 0)"/>
      </g>
     </g>
    </g>
    <g id="ytick_8">
     <g id="line2d_22">
      <g>
       <use xlink:href="#m70322b8d82" x="248.59375" y="74.401322" style="stroke: #000000; stroke-width: 0.8"/>
      </g>
     </g>
     <g id="text_22">
      <!-- 0.0050 -->
      <g transform="translate(206.603125 78.20054) scale(0.1 -0.1)">
       <use xlink:href="#DejaVuSans-30"/>
       <use xlink:href="#DejaVuSans-2e" transform="translate(63.623047 0)"/>
       <use xlink:href="#DejaVuSans-30" transform="translate(95.410156 0)"/>
       <use xlink:href="#DejaVuSans-30" transform="translate(159.033203 0)"/>
       <use xlink:href="#DejaVuSans-35" transform="translate(222.65625 0)"/>
       <use xlink:href="#DejaVuSans-30" transform="translate(286.279297 0)"/>
      </g>
     </g>
    </g>
    <g id="ytick_9">
     <g id="line2d_23">
      <g>
       <use xlink:href="#m70322b8d82" x="248.59375" y="46.71461" style="stroke: #000000; stroke-width: 0.8"/>
      </g>
     </g>
     <g id="text_23">
      <!-- 0.0075 -->
      <g transform="translate(206.603125 50.513828) scale(0.1 -0.1)">
       <use xlink:href="#DejaVuSans-30"/>
       <use xlink:href="#DejaVuSans-2e" transform="translate(63.623047 0)"/>
       <use xlink:href="#DejaVuSans-30" transform="translate(95.410156 0)"/>
       <use xlink:href="#DejaVuSans-30" transform="translate(159.033203 0)"/>
       <use xlink:href="#DejaVuSans-37" transform="translate(222.65625 0)"/>
       <use xlink:href="#DejaVuSans-35" transform="translate(286.279297 0)"/>
      </g>
     </g>
    </g>
    <g id="text_24">
     <!-- total N [g] -->
     <g transform="translate(200.523438 103.325469) rotate(-90) scale(0.1 -0.1)">
      <use xlink:href="#DejaVuSans-74"/>
      <use xlink:href="#DejaVuSans-6f" transform="translate(39.208984 0)"/>
      <use xlink:href="#DejaVuSans-74" transform="translate(100.390625 0)"/>
      <use xlink:href="#DejaVuSans-61" transform="translate(139.599609 0)"/>
      <use xlink:href="#DejaVuSans-6c" transform="translate(200.878906 0)"/>
      <use xlink:href="#DejaVuSans-20" transform="translate(228.662109 0)"/>
      <use xlink:href="#DejaVuSans-4e" transform="translate(260.449219 0)"/>
      <use xlink:href="#DejaVuSans-20" transform="translate(335.253906 0)"/>
      <use xlink:href="#DejaVuSans-5b" transform="translate(367.041016 0)"/>
      <use xlink:href="#DejaVuSans-67" transform="translate(406.054688 0)"/>
      <use xlink:href="#DejaVuSans-5d" transform="translate(469.53125 0)"/>
     </g>
    </g>
   </g>
   <g id="line2d_24">
    <path d="M 254.872386 60.004231 
L 304.722866 28.011775 
L 305.984903 27.5718 
L 307.246941 27.380633 
L 308.508978 27.414509 
L 309.771016 27.651517 
L 311.033053 28.071463 
L 312.92611 29.004109 
L 314.819166 30.250188 
L 316.712222 31.759693 
L 319.236297 34.106741 
L 321.760372 36.754252 
L 324.915465 40.371934 
L 329.332597 45.801459 
L 347.001121 67.95464 
L 352.049271 73.74169 
L 356.466402 78.493293 
L 360.883533 82.936636 
L 365.300664 87.067445 
L 369.717795 90.889532 
L 374.134926 94.412284 
L 378.552057 97.648783 
L 380.445114 98.951984 
L 380.445114 98.951984 
" clip-path="url(#p543ade1f9c)" style="fill: none; stroke: #000000; stroke-width: 2; stroke-linecap: square"/>
   </g>
   <g id="line2d_25">
    <path d="M 254.872386 60.004231 
L 261.182574 56.037093 
L 262.444611 55.682609 
L 263.706649 55.665749 
L 264.968686 55.945013 
L 266.230724 56.482838 
L 267.492761 57.245256 
L 269.385817 58.743725 
L 271.278873 60.588098 
L 273.802948 63.452551 
L 276.958042 67.47505 
L 282.006192 74.4118 
L 289.578417 84.810928 
L 293.995548 90.461676 
L 297.78166 94.945666 
L 301.567772 99.063042 
L 305.353885 102.80393 
L 308.508978 105.637138 
L 311.664072 108.220763 
L 315.450184 111.008304 
L 319.236297 113.477414 
L 323.022409 115.654277 
L 326.808522 117.565721 
L 330.594634 119.238171 
L 335.011765 120.920998 
L 339.428896 122.350451 
L 343.846027 123.560715 
L 348.894177 124.714647 
L 354.573346 125.768168 
L 360.883533 126.69157 
L 367.824739 127.46992 
L 376.027983 128.145918 
L 380.445114 128.425398 
L 380.445114 128.425398 
" clip-path="url(#p543ade1f9c)" style="fill: none; stroke-dasharray: 7.4,3.2; stroke-dashoffset: 0; stroke: #000000; stroke-width: 2"/>
   </g>
   <g id="line2d_26">
    <path d="M 254.872386 60.004231 
L 288.316379 38.60279 
L 290.209435 37.863959 
L 292.102491 37.458671 
L 293.995548 37.365126 
L 295.888604 37.560832 
L 297.78166 38.022951 
L 299.674716 38.728619 
L 301.567772 39.655213 
L 304.091847 41.196144 
L 306.615922 43.039941 
L 309.139997 45.138725 
L 312.295091 48.05298 
L 316.081203 51.872442 
L 321.129353 57.317037 
L 339.428896 77.419031 
L 344.477046 82.514963 
L 349.525196 87.289044 
L 353.942327 91.181302 
L 358.359458 94.799806 
L 362.776589 98.144907 
L 367.19372 101.222422 
L 371.610851 104.042093 
L 376.027983 106.616343 
L 380.445114 108.959302 
L 380.445114 108.959302 
" clip-path="url(#p543ade1f9c)" style="fill: none; stroke-dasharray: 2,3.3; stroke-dashoffset: 0; stroke: #000000; stroke-width: 2"/>
   </g>
   <g id="line2d_27">
    <path d="M 254.872386 60.004231 
L 276.958042 45.865477 
L 278.851098 44.965993 
L 280.744154 44.294808 
L 282.63721 43.836423 
L 284.530267 43.575944 
L 286.423323 43.499075 
L 288.947398 43.658601 
L 291.471473 44.089404 
L 293.995548 44.76248 
L 296.519623 45.650651 
L 299.674716 47.02483 
L 302.82981 48.649811 
L 306.615922 50.872548 
L 311.033053 53.761278 
L 316.081203 57.344599 
L 323.022409 62.569171 
L 343.846027 78.442009 
L 350.787233 83.381594 
L 357.097421 87.620035 
L 363.407608 91.593521 
L 369.717795 95.290347 
L 376.027983 98.707837 
L 380.445114 100.93579 
L 380.445114 100.93579 
" clip-path="url(#p543ade1f9c)" style="fill: none; stroke-dasharray: 12.8,3.2,2,3.2; stroke-dashoffset: 0; stroke: #000000; stroke-width: 2"/>
   </g>
   <g id="patch_8">
    <path d="M 248.59375 133.478125 
L 248.59375 22.318125 
" style="fill: none; stroke: #404040; stroke-width: 0.5; stroke-linejoin: miter; stroke-linecap: square"/>
   </g>
   <g id="patch_9">
    <path d="M 386.72375 133.478125 
L 386.72375 22.318125 
" style="fill: none; stroke: #404040; stroke-width: 0.5; stroke-linejoin: miter; stroke-linecap: square"/>
   </g>
   <g id="patch_10">
    <path d="M 248.59375 133.478125 
L 386.72375 133.478125 
" style="fill: none; stroke: #404040; stroke-width: 0.5; stroke-linejoin: miter; stroke-linecap: square"/>
   </g>
   <g id="patch_11">
    <path d="M 248.59375 22.318125 
L 386.72375 22.318125 
" style="fill: none; stroke: #404040; stroke-width: 0.5; stroke-linejoin: miter; stroke-linecap: square"/>
   </g>
   <g id="text_25">
    <!-- (B) -->
    <g style="fill: #ffffff" transform="translate(308.860313 16.318125) scale(0.12 -0.12)">
     <defs>
      <path id="DejaVuSans-42" d="M 1259 2228 
L 1259 519 
L 2272 519 
Q 2781 519 3026 730 
Q 3272 941 3272 1375 
Q 3272 1813 3026 2020 
Q 2781 2228 2272 2228 
L 1259 2228 
z
M 1259 4147 
L 1259 2741 
L 2194 2741 
Q 2656 2741 2882 2914 
Q 3109 3088 3109 3444 
Q 3109 3797 2882 3972 
Q 2656 4147 2194 4147 
L 1259 4147 
z
M 628 4666 
L 2241 4666 
Q 2963 4666 3353 4366 
Q 3744 4066 3744 3513 
Q 3744 3084 3544 2831 
Q 3344 2578 2956 2516 
Q 3422 2416 3680 2098 
Q 3938 1781 3938 1306 
Q 3938 681 3513 340 
Q 3088 0 2303 0 
L 628 0 
L 628 4666 
z
" transform="scale(0.015625)"/>
     </defs>
     <use xlink:href="#DejaVuSans-28"/>
     <use xlink:href="#DejaVuSans-42" transform="translate(39.013672 0)"/>
     <use xlink:href="#DejaVuSans-29" transform="translate(107.617188 0)"/>
    </g>
   </g>
  </g>
  <g id="axes_3">
   <g id="patch_12">
    <path d="M 447.04375 133.478125 
L 585.17375 133.478125 
L 585.17375 22.318125 
L 447.04375 22.318125 
z
" style="fill: #ffffff"/>
   </g>
   <g id="matplotlib.axis_5">
    <g id="xtick_7">
     <g id="line2d_28">
      <g>
       <use xlink:href="#m08513eb9ea" x="453.322386" y="133.478125" style="stroke: #000000; stroke-width: 0.8"/>
      </g>
     </g>
     <g id="text_26">
      <!-- 0 -->
      <g transform="translate(450.141136 148.076563) scale(0.1 -0.1)">
       <use xlink:href="#DejaVuSans-30"/>
      </g>
     </g>
    </g>
    <g id="xtick_8">
     <g id="line2d_29">
      <g>
       <use xlink:href="#m08513eb9ea" x="516.10875" y="133.478125" style="stroke: #000000; stroke-width: 0.8"/>
      </g>
     </g>
     <g id="text_27">
      <!-- 1 -->
      <g transform="translate(512.9275 148.076563) scale(0.1 -0.1)">
       <use xlink:href="#DejaVuSans-31"/>
      </g>
     </g>
    </g>
    <g id="xtick_9">
     <g id="line2d_30">
      <g>
       <use xlink:href="#m08513eb9ea" x="578.895114" y="133.478125" style="stroke: #000000; stroke-width: 0.8"/>
      </g>
     </g>
     <g id="text_28">
      <!-- 2 -->
      <g transform="translate(575.713864 148.076563) scale(0.1 -0.1)">
       <use xlink:href="#DejaVuSans-32"/>
      </g>
     </g>
    </g>
    <g id="text_29">
     <!-- Time [Y] -->
     <g transform="translate(495.330625 161.754688) scale(0.1 -0.1)">
      <use xlink:href="#DejaVuSans-54"/>
      <use xlink:href="#DejaVuSans-69" transform="translate(57.958984 0)"/>
      <use xlink:href="#DejaVuSans-6d" transform="translate(85.742188 0)"/>
      <use xlink:href="#DejaVuSans-65" transform="translate(183.154297 0)"/>
      <use xlink:href="#DejaVuSans-20" transform="translate(244.677734 0)"/>
      <use xlink:href="#DejaVuSans-5b" transform="translate(276.464844 0)"/>
      <use xlink:href="#DejaVuSans-59" transform="translate(315.478516 0)"/>
      <use xlink:href="#DejaVuSans-5d" transform="translate(376.5625 0)"/>
     </g>
    </g>
   </g>
   <g id="matplotlib.axis_6">
    <g id="ytick_10">
     <g id="line2d_31">
      <g>
       <use xlink:href="#m70322b8d82" x="447.04375" y="114.587811" style="stroke: #000000; stroke-width: 0.8"/>
      </g>
     </g>
     <g id="text_30">
      <!-- 0.15 -->
      <g transform="translate(417.778125 118.38703) scale(0.1 -0.1)">
       <use xlink:href="#DejaVuSans-30"/>
       <use xlink:href="#DejaVuSans-2e" transform="translate(63.623047 0)"/>
       <use xlink:href="#DejaVuSans-31" transform="translate(95.410156 0)"/>
       <use xlink:href="#DejaVuSans-35" transform="translate(159.033203 0)"/>
      </g>
     </g>
    </g>
    <g id="ytick_11">
     <g id="line2d_32">
      <g>
       <use xlink:href="#m70322b8d82" x="447.04375" y="89.351236" style="stroke: #000000; stroke-width: 0.8"/>
      </g>
     </g>
     <g id="text_31">
      <!-- 0.20 -->
      <g transform="translate(417.778125 93.150455) scale(0.1 -0.1)">
       <use xlink:href="#DejaVuSans-30"/>
       <use xlink:href="#DejaVuSans-2e" transform="translate(63.623047 0)"/>
       <use xlink:href="#DejaVuSans-32" transform="translate(95.410156 0)"/>
       <use xlink:href="#DejaVuSans-30" transform="translate(159.033203 0)"/>
      </g>
     </g>
    </g>
    <g id="ytick_12">
     <g id="line2d_33">
      <g>
       <use xlink:href="#m70322b8d82" x="447.04375" y="64.114661" style="stroke: #000000; stroke-width: 0.8"/>
      </g>
     </g>
     <g id="text_32">
      <!-- 0.25 -->
      <g transform="translate(417.778125 67.91388) scale(0.1 -0.1)">
       <use xlink:href="#DejaVuSans-30"/>
       <use xlink:href="#DejaVuSans-2e" transform="translate(63.623047 0)"/>
       <use xlink:href="#DejaVuSans-32" transform="translate(95.410156 0)"/>
       <use xlink:href="#DejaVuSans-35" transform="translate(159.033203 0)"/>
      </g>
     </g>
    </g>
    <g id="ytick_13">
     <g id="line2d_34">
      <g>
       <use xlink:href="#m70322b8d82" x="447.04375" y="38.878086" style="stroke: #000000; stroke-width: 0.8"/>
      </g>
     </g>
     <g id="text_33">
      <!-- 0.30 -->
      <g transform="translate(417.778125 42.677305) scale(0.1 -0.1)">
       <defs>
        <path id="DejaVuSans-33" d="M 2597 2516 
Q 3050 2419 3304 2112 
Q 3559 1806 3559 1356 
Q 3559 666 3084 287 
Q 2609 -91 1734 -91 
Q 1441 -91 1130 -33 
Q 819 25 488 141 
L 488 750 
Q 750 597 1062 519 
Q 1375 441 1716 441 
Q 2309 441 2620 675 
Q 2931 909 2931 1356 
Q 2931 1769 2642 2001 
Q 2353 2234 1838 2234 
L 1294 2234 
L 1294 2753 
L 1863 2753 
Q 2328 2753 2575 2939 
Q 2822 3125 2822 3475 
Q 2822 3834 2567 4026 
Q 2313 4219 1838 4219 
Q 1578 4219 1281 4162 
Q 984 4106 628 3988 
L 628 4550 
Q 988 4650 1302 4700 
Q 1616 4750 1894 4750 
Q 2613 4750 3031 4423 
Q 3450 4097 3450 3541 
Q 3450 3153 3228 2886 
Q 3006 2619 2597 2516 
z
" transform="scale(0.015625)"/>
       </defs>
       <use xlink:href="#DejaVuSans-30"/>
       <use xlink:href="#DejaVuSans-2e" transform="translate(63.623047 0)"/>
       <use xlink:href="#DejaVuSans-33" transform="translate(95.410156 0)"/>
       <use xlink:href="#DejaVuSans-30" transform="translate(159.033203 0)"/>
      </g>
     </g>
    </g>
    <g id="text_34">
     <!-- Lignin C fraction [gC/gC] -->
     <g transform="translate(411.698438 139.355937) rotate(-90) scale(0.1 -0.1)">
      <defs>
       <path id="DejaVuSans-4c" d="M 628 4666 
L 1259 4666 
L 1259 531 
L 3531 531 
L 3531 0 
L 628 0 
L 628 4666 
z
" transform="scale(0.015625)"/>
       <path id="DejaVuSans-6e" d="M 3513 2113 
L 3513 0 
L 2938 0 
L 2938 2094 
Q 2938 2591 2744 2837 
Q 2550 3084 2163 3084 
Q 1697 3084 1428 2787 
Q 1159 2491 1159 1978 
L 1159 0 
L 581 0 
L 581 3500 
L 1159 3500 
L 1159 2956 
Q 1366 3272 1645 3428 
Q 1925 3584 2291 3584 
Q 2894 3584 3203 3211 
Q 3513 2838 3513 2113 
z
" transform="scale(0.015625)"/>
       <path id="DejaVuSans-66" d="M 2375 4863 
L 2375 4384 
L 1825 4384 
Q 1516 4384 1395 4259 
Q 1275 4134 1275 3809 
L 1275 3500 
L 2222 3500 
L 2222 3053 
L 1275 3053 
L 1275 0 
L 697 0 
L 697 3053 
L 147 3053 
L 147 3500 
L 697 3500 
L 697 3744 
Q 697 4328 969 4595 
Q 1241 4863 1831 4863 
L 2375 4863 
z
" transform="scale(0.015625)"/>
       <path id="DejaVuSans-72" d="M 2631 2963 
Q 2534 3019 2420 3045 
Q 2306 3072 2169 3072 
Q 1681 3072 1420 2755 
Q 1159 2438 1159 1844 
L 1159 0 
L 581 0 
L 581 3500 
L 1159 3500 
L 1159 2956 
Q 1341 3275 1631 3429 
Q 1922 3584 2338 3584 
Q 2397 3584 2469 3576 
Q 2541 3569 2628 3553 
L 2631 2963 
z
" transform="scale(0.015625)"/>
       <path id="DejaVuSans-63" d="M 3122 3366 
L 3122 2828 
Q 2878 2963 2633 3030 
Q 2388 3097 2138 3097 
Q 1578 3097 1268 2742 
Q 959 2388 959 1747 
Q 959 1106 1268 751 
Q 1578 397 2138 397 
Q 2388 397 2633 464 
Q 2878 531 3122 666 
L 3122 134 
Q 2881 22 2623 -34 
Q 2366 -91 2075 -91 
Q 1284 -91 818 406 
Q 353 903 353 1747 
Q 353 2603 823 3093 
Q 1294 3584 2113 3584 
Q 2378 3584 2631 3529 
Q 2884 3475 3122 3366 
z
" transform="scale(0.015625)"/>
       <path id="DejaVuSans-2f" d="M 1625 4666 
L 2156 4666 
L 531 -594 
L 0 -594 
L 1625 4666 
z
" transform="scale(0.015625)"/>
      </defs>
      <use xlink:href="#DejaVuSans-4c"/>
      <use xlink:href="#DejaVuSans-69" transform="translate(55.712891 0)"/>
      <use xlink:href="#DejaVuSans-67" transform="translate(83.496094 0)"/>
      <use xlink:href="#DejaVuSans-6e" transform="translate(146.972656 0)"/>
      <use xlink:href="#DejaVuSans-69" transform="translate(210.351562 0)"/>
      <use xlink:href="#DejaVuSans-6e" transform="translate(238.134766 0)"/>
      <use xlink:href="#DejaVuSans-20" transform="translate(301.513672 0)"/>
      <use xlink:href="#DejaVuSans-43" transform="translate(333.300781 0)"/>
      <use xlink:href="#DejaVuSans-20" transform="translate(403.125 0)"/>
      <use xlink:href="#DejaVuSans-66" transform="translate(434.912109 0)"/>
      <use xlink:href="#DejaVuSans-72" transform="translate(470.117188 0)"/>
      <use xlink:href="#DejaVuSans-61" transform="translate(511.230469 0)"/>
      <use xlink:href="#DejaVuSans-63" transform="translate(572.509766 0)"/>
      <use xlink:href="#DejaVuSans-74" transform="translate(627.490234 0)"/>
      <use xlink:href="#DejaVuSans-69" transform="translate(666.699219 0)"/>
      <use xlink:href="#DejaVuSans-6f" transform="translate(694.482422 0)"/>
      <use xlink:href="#DejaVuSans-6e" transform="translate(755.664062 0)"/>
      <use xlink:href="#DejaVuSans-20" transform="translate(819.042969 0)"/>
      <use xlink:href="#DejaVuSans-5b" transform="translate(850.830078 0)"/>
      <use xlink:href="#DejaVuSans-67" transform="translate(889.84375 0)"/>
      <use xlink:href="#DejaVuSans-43" transform="translate(953.320312 0)"/>
      <use xlink:href="#DejaVuSans-2f" transform="translate(1023.144531 0)"/>
      <use xlink:href="#DejaVuSans-67" transform="translate(1056.835938 0)"/>
      <use xlink:href="#DejaVuSans-43" transform="translate(1120.3125 0)"/>
      <use xlink:href="#DejaVuSans-5d" transform="translate(1190.136719 0)"/>
     </g>
    </g>
   </g>
   <g id="line2d_35">
    <path d="M 453.322386 38.878086 
L 457.108499 45.58422 
L 460.894611 51.815099 
L 464.680724 57.594158 
L 468.466836 62.945667 
L 472.252948 67.894226 
L 476.039061 72.464362 
L 479.825173 76.680209 
L 483.611285 80.565268 
L 487.397398 84.142219 
L 491.18351 87.432794 
L 494.969623 90.457689 
L 499.386754 93.677039 
L 503.803885 96.590629 
L 508.221016 99.225668 
L 512.638147 101.607389 
L 517.055278 103.759032 
L 522.103428 105.963613 
L 527.151578 107.924477 
L 532.830746 109.871573 
L 538.509915 111.576495 
L 544.820102 113.222539 
L 551.13029 114.641383 
L 558.071496 115.976411 
L 565.64372 117.203268 
L 573.846964 118.305834 
L 578.895114 118.884922 
L 578.895114 118.884922 
" clip-path="url(#p58465e76f6)" style="fill: none; stroke: #000000; stroke-width: 2; stroke-linecap: square"/>
   </g>
   <g id="line2d_36">
    <path d="M 453.322386 38.878086 
L 467.204798 37.068344 
L 482.349248 35.325683 
L 499.386754 33.600084 
L 518.948334 31.855983 
L 542.296027 30.00746 
L 578.264095 27.415379 
L 578.895114 27.370852 
L 578.895114 27.370852 
" clip-path="url(#p58465e76f6)" style="fill: none; stroke-dasharray: 7.4,3.2; stroke-dashoffset: 0; stroke: #000000; stroke-width: 2"/>
   </g>
   <g id="line2d_37">
    <path d="M 453.322386 38.878086 
L 457.739517 48.59717 
L 461.52563 56.430653 
L 465.311742 63.728344 
L 468.466836 69.374519 
L 471.62193 74.619473 
L 474.777023 79.469137 
L 477.932117 83.936907 
L 481.08721 88.041118 
L 484.242304 91.803059 
L 487.397398 95.245483 
L 490.552491 98.391544 
L 493.707585 101.26405 
L 497.493697 104.380831 
L 501.27981 107.171078 
L 505.065922 109.667876 
L 508.852035 111.90147 
L 512.638147 113.899301 
L 517.055278 115.965018 
L 521.472409 117.778483 
L 525.88954 119.370554 
L 530.93769 120.953588 
L 536.616859 122.474672 
L 542.296027 123.761609 
L 548.606215 124.960624 
L 555.547421 126.046225 
L 563.119645 127.002993 
L 571.953908 127.880084 
L 578.895114 128.425398 
L 578.895114 128.425398 
" clip-path="url(#p58465e76f6)" style="fill: none; stroke-dasharray: 2,3.3; stroke-dashoffset: 0; stroke: #000000; stroke-width: 2"/>
   </g>
   <g id="line2d_38">
    <path d="M 453.322386 38.878086 
L 462.156649 44.220739 
L 467.835817 47.392061 
L 472.883967 49.965162 
L 477.932117 52.28333 
L 482.980267 54.342519 
L 488.028417 56.150961 
L 493.076566 57.724603 
L 498.124716 59.083645 
L 503.803885 60.383436 
L 510.114072 61.579863 
L 516.424259 62.554697 
L 523.365465 63.414697 
L 531.568709 64.199966 
L 541.03399 64.865785 
L 551.761308 65.392031 
L 565.012702 65.812051 
L 578.895114 66.076285 
L 578.895114 66.076285 
" clip-path="url(#p58465e76f6)" style="fill: none; stroke-dasharray: 12.8,3.2,2,3.2; stroke-dashoffset: 0; stroke: #000000; stroke-width: 2"/>
   </g>
   <g id="patch_13">
    <path d="M 447.04375 133.478125 
L 447.04375 22.318125 
" style="fill: none; stroke: #404040; stroke-width: 0.5; stroke-linejoin: miter; stroke-linecap: square"/>
   </g>
   <g id="patch_14">
    <path d="M 585.17375 133.478125 
L 585.17375 22.318125 
" style="fill: none; stroke: #404040; stroke-width: 0.5; stroke-linejoin: miter; stroke-linecap: square"/>
   </g>
   <g id="patch_15">
    <path d="M 447.04375 133.478125 
L 585.17375 133.478125 
" style="fill: none; stroke: #404040; stroke-width: 0.5; stroke-linejoin: miter; stroke-linecap: square"/>
   </g>
   <g id="patch_16">
    <path d="M 447.04375 22.318125 
L 585.17375 22.318125 
" style="fill: none; stroke: #404040; stroke-width: 0.5; stroke-linejoin: miter; stroke-linecap: square"/>
   </g>
   <g id="text_35">
    <!-- (C) -->
    <g style="fill: #ffffff" transform="translate(507.237188 16.318125) scale(0.12 -0.12)">
     <use xlink:href="#DejaVuSans-28"/>
     <use xlink:href="#DejaVuSans-43" transform="translate(39.013672 0)"/>
     <use xlink:href="#DejaVuSans-29" transform="translate(108.837891 0)"/>
    </g>
   </g>
  </g>
  <g id="axes_4">
   <g id="patch_17">
    <path d="M 645.49375 133.478125 
L 783.62375 133.478125 
L 783.62375 22.318125 
L 645.49375 22.318125 
z
" style="fill: #ffffff"/>
   </g>
   <g id="matplotlib.axis_7">
    <g id="xtick_10">
     <g id="line2d_39">
      <g>
       <use xlink:href="#m08513eb9ea" x="651.772386" y="133.478125" style="stroke: #000000; stroke-width: 0.8"/>
      </g>
     </g>
     <g id="text_36">
      <!-- 0 -->
      <g transform="translate(648.591136 148.076563) scale(0.1 -0.1)">
       <use xlink:href="#DejaVuSans-30"/>
      </g>
     </g>
    </g>
    <g id="xtick_11">
     <g id="line2d_40">
      <g>
       <use xlink:href="#m08513eb9ea" x="714.55875" y="133.478125" style="stroke: #000000; stroke-width: 0.8"/>
      </g>
     </g>
     <g id="text_37">
      <!-- 1 -->
      <g transform="translate(711.3775 148.076563) scale(0.1 -0.1)">
       <use xlink:href="#DejaVuSans-31"/>
      </g>
     </g>
    </g>
    <g id="xtick_12">
     <g id="line2d_41">
      <g>
       <use xlink:href="#m08513eb9ea" x="777.345114" y="133.478125" style="stroke: #000000; stroke-width: 0.8"/>
      </g>
     </g>
     <g id="text_38">
      <!-- 2 -->
      <g transform="translate(774.163864 148.076563) scale(0.1 -0.1)">
       <use xlink:href="#DejaVuSans-32"/>
      </g>
     </g>
    </g>
   </g>
   <g id="matplotlib.axis_8">
    <g id="ytick_14">
     <g id="line2d_42">
      <g>
       <use xlink:href="#m70322b8d82" x="645.49375" y="127.708472" style="stroke: #000000; stroke-width: 0.8"/>
      </g>
     </g>
     <g id="text_39">
      <!-- 4.2 -->
      <g transform="translate(622.590625 131.50769) scale(0.1 -0.1)">
       <defs>
        <path id="DejaVuSans-34" d="M 2419 4116 
L 825 1625 
L 2419 1625 
L 2419 4116 
z
M 2253 4666 
L 3047 4666 
L 3047 1625 
L 3713 1625 
L 3713 1100 
L 3047 1100 
L 3047 0 
L 2419 0 
L 2419 1100 
L 313 1100 
L 313 1709 
L 2253 4666 
z
" transform="scale(0.015625)"/>
       </defs>
       <use xlink:href="#DejaVuSans-34"/>
       <use xlink:href="#DejaVuSans-2e" transform="translate(63.623047 0)"/>
       <use xlink:href="#DejaVuSans-32" transform="translate(95.410156 0)"/>
      </g>
     </g>
    </g>
    <g id="ytick_15">
     <g id="line2d_43">
      <g>
       <use xlink:href="#m70322b8d82" x="645.49375" y="97.208263" style="stroke: #000000; stroke-width: 0.8"/>
      </g>
     </g>
     <g id="text_40">
      <!-- 4.3 -->
      <g transform="translate(622.590625 101.007482) scale(0.1 -0.1)">
       <use xlink:href="#DejaVuSans-34"/>
       <use xlink:href="#DejaVuSans-2e" transform="translate(63.623047 0)"/>
       <use xlink:href="#DejaVuSans-33" transform="translate(95.410156 0)"/>
      </g>
     </g>
    </g>
    <g id="ytick_16">
     <g id="line2d_44">
      <g>
       <use xlink:href="#m70322b8d82" x="645.49375" y="66.708055" style="stroke: #000000; stroke-width: 0.8"/>
      </g>
     </g>
     <g id="text_41">
      <!-- 4.4 -->
      <g transform="translate(622.590625 70.507274) scale(0.1 -0.1)">
       <use xlink:href="#DejaVuSans-34"/>
       <use xlink:href="#DejaVuSans-2e" transform="translate(63.623047 0)"/>
       <use xlink:href="#DejaVuSans-34" transform="translate(95.410156 0)"/>
      </g>
     </g>
    </g>
    <g id="ytick_17">
     <g id="line2d_45">
      <g>
       <use xlink:href="#m70322b8d82" x="645.49375" y="36.207847" style="stroke: #000000; stroke-width: 0.8"/>
      </g>
     </g>
     <g id="text_42">
      <!-- 4.5 -->
      <g transform="translate(622.590625 40.007066) scale(0.1 -0.1)">
       <use xlink:href="#DejaVuSans-34"/>
       <use xlink:href="#DejaVuSans-2e" transform="translate(63.623047 0)"/>
       <use xlink:href="#DejaVuSans-35" transform="translate(95.410156 0)"/>
      </g>
     </g>
    </g>
    <g id="text_43">
     <!-- Degree of reduction -->
     <g transform="translate(616.510938 127.781719) rotate(-90) scale(0.1 -0.1)">
      <defs>
       <path id="DejaVuSans-44" d="M 1259 4147 
L 1259 519 
L 2022 519 
Q 2988 519 3436 956 
Q 3884 1394 3884 2338 
Q 3884 3275 3436 3711 
Q 2988 4147 2022 4147 
L 1259 4147 
z
M 628 4666 
L 1925 4666 
Q 3281 4666 3915 4102 
Q 4550 3538 4550 2338 
Q 4550 1131 3912 565 
Q 3275 0 1925 0 
L 628 0 
L 628 4666 
z
" transform="scale(0.015625)"/>
       <path id="DejaVuSans-64" d="M 2906 2969 
L 2906 4863 
L 3481 4863 
L 3481 0 
L 2906 0 
L 2906 525 
Q 2725 213 2448 61 
Q 2172 -91 1784 -91 
Q 1150 -91 751 415 
Q 353 922 353 1747 
Q 353 2572 751 3078 
Q 1150 3584 1784 3584 
Q 2172 3584 2448 3432 
Q 2725 3281 2906 2969 
z
M 947 1747 
Q 947 1113 1208 752 
Q 1469 391 1925 391 
Q 2381 391 2643 752 
Q 2906 1113 2906 1747 
Q 2906 2381 2643 2742 
Q 2381 3103 1925 3103 
Q 1469 3103 1208 2742 
Q 947 2381 947 1747 
z
" transform="scale(0.015625)"/>
       <path id="DejaVuSans-75" d="M 544 1381 
L 544 3500 
L 1119 3500 
L 1119 1403 
Q 1119 906 1312 657 
Q 1506 409 1894 409 
Q 2359 409 2629 706 
Q 2900 1003 2900 1516 
L 2900 3500 
L 3475 3500 
L 3475 0 
L 2900 0 
L 2900 538 
Q 2691 219 2414 64 
Q 2138 -91 1772 -91 
Q 1169 -91 856 284 
Q 544 659 544 1381 
z
M 1991 3584 
L 1991 3584 
z
" transform="scale(0.015625)"/>
      </defs>
      <use xlink:href="#DejaVuSans-44"/>
      <use xlink:href="#DejaVuSans-65" transform="translate(77.001953 0)"/>
      <use xlink:href="#DejaVuSans-67" transform="translate(138.525391 0)"/>
      <use xlink:href="#DejaVuSans-72" transform="translate(202.001953 0)"/>
      <use xlink:href="#DejaVuSans-65" transform="translate(240.865234 0)"/>
      <use xlink:href="#DejaVuSans-65" transform="translate(302.388672 0)"/>
      <use xlink:href="#DejaVuSans-20" transform="translate(363.912109 0)"/>
      <use xlink:href="#DejaVuSans-6f" transform="translate(395.699219 0)"/>
      <use xlink:href="#DejaVuSans-66" transform="translate(456.880859 0)"/>
      <use xlink:href="#DejaVuSans-20" transform="translate(492.085938 0)"/>
      <use xlink:href="#DejaVuSans-72" transform="translate(523.873047 0)"/>
      <use xlink:href="#DejaVuSans-65" transform="translate(562.736328 0)"/>
      <use xlink:href="#DejaVuSans-64" transform="translate(624.259766 0)"/>
      <use xlink:href="#DejaVuSans-75" transform="translate(687.736328 0)"/>
      <use xlink:href="#DejaVuSans-63" transform="translate(751.115234 0)"/>
      <use xlink:href="#DejaVuSans-74" transform="translate(806.095703 0)"/>
      <use xlink:href="#DejaVuSans-69" transform="translate(845.304688 0)"/>
      <use xlink:href="#DejaVuSans-6f" transform="translate(873.087891 0)"/>
      <use xlink:href="#DejaVuSans-6e" transform="translate(934.269531 0)"/>
     </g>
    </g>
   </g>
   <g id="line2d_46">
    <path d="M 651.772386 110.073251 
L 654.92748 102.642291 
L 658.082574 95.830277 
L 661.237667 89.59171 
L 664.392761 83.883493 
L 667.547855 78.665005 
L 670.702948 73.898125 
L 673.858042 69.547215 
L 677.013136 65.579077 
L 680.168229 61.96288 
L 683.323323 58.670078 
L 686.478417 55.674308 
L 689.63351 52.951284 
L 692.788604 50.478685 
L 696.574716 47.813437 
L 700.360829 45.447345 
L 704.146941 43.340255 
L 708.564072 41.157787 
L 712.981203 39.238367 
L 717.398334 37.550381 
L 722.446484 35.869013 
L 727.494634 34.417204 
L 733.173803 33.019296 
L 739.48399 31.713751 
L 746.425196 30.52814 
L 753.997421 29.479151 
L 762.200664 28.573525 
L 771.665945 27.762102 
L 777.345114 27.370852 
L 777.345114 27.370852 
" clip-path="url(#paa94f267d8)" style="fill: none; stroke: #000000; stroke-width: 2; stroke-linecap: square"/>
   </g>
   <g id="line2d_47">
    <path d="M 651.772386 110.073251 
L 656.820536 104.412329 
L 662.499705 98.409001 
L 668.178873 92.756376 
L 673.858042 87.434768 
L 679.53721 82.425528 
L 685.216379 77.710937 
L 690.895548 73.274176 
L 696.574716 69.099294 
L 702.884903 64.749314 
L 709.195091 60.684409 
L 715.505278 56.886152 
L 721.815465 53.337222 
L 728.756671 49.701976 
L 735.697877 46.328462 
L 742.639083 43.197763 
L 750.211308 40.038699 
L 757.783533 37.126378 
L 765.355758 34.441121 
L 773.559001 31.767244 
L 777.345114 30.609856 
L 777.345114 30.609856 
" clip-path="url(#paa94f267d8)" style="fill: none; stroke-dasharray: 7.4,3.2; stroke-dashoffset: 0; stroke: #000000; stroke-width: 2"/>
   </g>
   <g id="line2d_48">
    <path d="M 651.772386 110.073251 
L 654.92748 111.40378 
L 658.082574 112.504778 
L 661.237667 113.340633 
L 663.761742 113.80288 
L 666.285817 114.075058 
L 668.809892 114.156031 
L 671.333967 114.048691 
L 674.489061 113.659528 
L 677.644154 113.004222 
L 680.799248 112.105662 
L 683.954342 110.989827 
L 687.740454 109.396321 
L 691.526566 107.565327 
L 695.943697 105.18956 
L 701.622866 101.859349 
L 709.82611 96.738423 
L 726.232597 86.43687 
L 733.804821 81.98595 
L 740.746027 78.175672 
L 747.056215 74.962641 
L 753.366402 71.999054 
L 759.676589 69.28587 
L 765.986776 66.817568 
L 772.296964 64.584118 
L 777.345114 62.957791 
L 777.345114 62.957791 
" clip-path="url(#paa94f267d8)" style="fill: none; stroke-dasharray: 2,3.3; stroke-dashoffset: 0; stroke: #000000; stroke-width: 2"/>
   </g>
   <g id="line2d_49">
    <path d="M 651.772386 110.073251 
L 659.97563 112.967938 
L 670.702948 116.712106 
L 677.644154 118.880606 
L 683.954342 120.605988 
L 690.264529 122.087637 
L 696.574716 123.336378 
L 703.515922 124.466577 
L 710.457128 125.375443 
L 718.660372 126.212819 
L 727.494634 126.886791 
L 738.221952 127.468298 
L 750.842327 127.921854 
L 767.248814 128.28139 
L 777.345114 128.425398 
L 777.345114 128.425398 
" clip-path="url(#paa94f267d8)" style="fill: none; stroke-dasharray: 12.8,3.2,2,3.2; stroke-dashoffset: 0; stroke: #000000; stroke-width: 2"/>
   </g>
   <g id="patch_18">
    <path d="M 645.49375 133.478125 
L 645.49375 22.318125 
" style="fill: none; stroke: #404040; stroke-width: 0.5; stroke-linejoin: miter; stroke-linecap: square"/>
   </g>
   <g id="patch_19">
    <path d="M 783.62375 133.478125 
L 783.62375 22.318125 
" style="fill: none; stroke: #404040; stroke-width: 0.5; stroke-linejoin: miter; stroke-linecap: square"/>
   </g>
   <g id="patch_20">
    <path d="M 645.49375 133.478125 
L 783.62375 133.478125 
" style="fill: none; stroke: #404040; stroke-width: 0.5; stroke-linejoin: miter; stroke-linecap: square"/>
   </g>
   <g id="patch_21">
    <path d="M 645.49375 22.318125 
L 783.62375 22.318125 
" style="fill: none; stroke: #404040; stroke-width: 0.5; stroke-linejoin: miter; stroke-linecap: square"/>
   </g>
   <g id="text_44">
    <!-- (D) -->
    <g style="fill: #ffffff" transform="translate(705.256875 16.318125) scale(0.12 -0.12)">
     <use xlink:href="#DejaVuSans-28"/>
     <use xlink:href="#DejaVuSans-44" transform="translate(39.013672 0)"/>
     <use xlink:href="#DejaVuSans-29" transform="translate(116.015625 0)"/>
    </g>
   </g>
  </g>
 </g>
 <defs>
  <clipPath id="p837100257c">
   <rect x="50.14375" y="22.318125" width="138.13" height="111.16"/>
  </clipPath>
  <clipPath id="p543ade1f9c">
   <rect x="248.59375" y="22.318125" width="138.13" height="111.16"/>
  </clipPath>
  <clipPath id="p58465e76f6">
   <rect x="447.04375" y="22.318125" width="138.13" height="111.16"/>
  </clipPath>
  <clipPath id="paa94f267d8">
   <rect x="645.49375" y="22.318125" width="138.13" height="111.16"/>
  </clipPath>
 </defs>
</svg>
