<?xml version="1.0" encoding="utf-8" standalone="no"?>
<!DOCTYPE svg PUBLIC "-//W3C//DTD SVG 1.1//EN"
  "http://www.w3.org/Graphics/SVG/1.1/DTD/svg11.dtd">
<svg xmlns:xlink="http://www.w3.org/1999/xlink" width="969.670547pt" height="264.364453pt" viewBox="0 0 969.670547 264.364453" xmlns="http://www.w3.org/2000/svg" version="1.1">
 <metadata>
  <rdf:RDF xmlns:dc="http://purl.org/dc/elements/1.1/" xmlns:cc="http://creativecommons.org/ns#" xmlns:rdf="http://www.w3.org/1999/02/22-rdf-syntax-ns#">
   <cc:Work>
    <dc:type rdf:resource="http://purl.org/dc/dcmitype/StillImage"/>
    <dc:date>2025-06-14T11:55:42.782867</dc:date>
    <dc:format>image/svg+xml</dc:format>
    <dc:creator>
     <cc:Agent>
      <dc:title>Matplotlib v3.10.3, https://matplotlib.org/</dc:title>
     </cc:Agent>
    </dc:creator>
   </cc:Work>
  </rdf:RDF>
 </metadata>
 <defs>
  <style type="text/css">*{stroke-linejoin: round; stroke-linecap: butt}</style>
 </defs>
 <g id="figure_1">
  <g id="patch_1">
   <path d="M 0 264.364453 
L 969.670547 264.364453 
L 969.670547 0 
L 0 0 
z
" style="fill: #ffffff"/>
  </g>
  <g id="axes_1">
   <g id="patch_2">
    <path d="M 48.810547 232.574688 
L 409.741547 232.574688 
L 409.741547 26.314687 
L 48.810547 26.314687 
z
" style="fill: #ffffff"/>
   </g>
   <g id="matplotlib.axis_1">
    <g id="xtick_1">
     <g id="text_1">
      <!-- N-Retention -->
      <g style="fill: #262626" transform="translate(95.024391 253.885078) scale(0.165 -0.165)">
       <defs>
        <path id="ArialMT-4e" d="M 488 0 
L 488 4581 
L 1109 4581 
L 3516 984 
L 3516 4581 
L 4097 4581 
L 4097 0 
L 3475 0 
L 1069 3600 
L 1069 0 
L 488 0 
z
" transform="scale(0.015625)"/>
        <path id="ArialMT-2d" d="M 203 1375 
L 203 1941 
L 1931 1941 
L 1931 1375 
L 203 1375 
z
" transform="scale(0.015625)"/>
        <path id="ArialMT-52" d="M 503 0 
L 503 4581 
L 2534 4581 
Q 3147 4581 3465 4457 
Q 3784 4334 3975 4021 
Q 4166 3709 4166 3331 
Q 4166 2844 3850 2509 
Q 3534 2175 2875 2084 
Q 3116 1969 3241 1856 
Q 3506 1613 3744 1247 
L 4541 0 
L 3778 0 
L 3172 953 
Q 2906 1366 2734 1584 
Q 2563 1803 2427 1890 
Q 2291 1978 2150 2013 
Q 2047 2034 1813 2034 
L 1109 2034 
L 1109 0 
L 503 0 
z
M 1109 2559 
L 2413 2559 
Q 2828 2559 3062 2645 
Q 3297 2731 3419 2920 
Q 3541 3109 3541 3331 
Q 3541 3656 3305 3865 
Q 3069 4075 2559 4075 
L 1109 4075 
L 1109 2559 
z
" transform="scale(0.015625)"/>
        <path id="ArialMT-65" d="M 2694 1069 
L 3275 997 
Q 3138 488 2766 206 
Q 2394 -75 1816 -75 
Q 1088 -75 661 373 
Q 234 822 234 1631 
Q 234 2469 665 2931 
Q 1097 3394 1784 3394 
Q 2450 3394 2872 2941 
Q 3294 2488 3294 1666 
Q 3294 1616 3291 1516 
L 816 1516 
Q 847 969 1125 678 
Q 1403 388 1819 388 
Q 2128 388 2347 550 
Q 2566 713 2694 1069 
z
M 847 1978 
L 2700 1978 
Q 2663 2397 2488 2606 
Q 2219 2931 1791 2931 
Q 1403 2931 1139 2672 
Q 875 2413 847 1978 
z
" transform="scale(0.015625)"/>
        <path id="ArialMT-74" d="M 1650 503 
L 1731 6 
Q 1494 -44 1306 -44 
Q 1000 -44 831 53 
Q 663 150 594 308 
Q 525 466 525 972 
L 525 2881 
L 113 2881 
L 113 3319 
L 525 3319 
L 525 4141 
L 1084 4478 
L 1084 3319 
L 1650 3319 
L 1650 2881 
L 1084 2881 
L 1084 941 
Q 1084 700 1114 631 
Q 1144 563 1211 522 
Q 1278 481 1403 481 
Q 1497 481 1650 503 
z
" transform="scale(0.015625)"/>
        <path id="ArialMT-6e" d="M 422 0 
L 422 3319 
L 928 3319 
L 928 2847 
Q 1294 3394 1984 3394 
Q 2284 3394 2536 3286 
Q 2788 3178 2913 3003 
Q 3038 2828 3088 2588 
Q 3119 2431 3119 2041 
L 3119 0 
L 2556 0 
L 2556 2019 
Q 2556 2363 2490 2533 
Q 2425 2703 2258 2804 
Q 2091 2906 1866 2906 
Q 1506 2906 1245 2678 
Q 984 2450 984 1813 
L 984 0 
L 422 0 
z
" transform="scale(0.015625)"/>
        <path id="ArialMT-69" d="M 425 3934 
L 425 4581 
L 988 4581 
L 988 3934 
L 425 3934 
z
M 425 0 
L 425 3319 
L 988 3319 
L 988 0 
L 425 0 
z
" transform="scale(0.015625)"/>
        <path id="ArialMT-6f" d="M 213 1659 
Q 213 2581 725 3025 
Q 1153 3394 1769 3394 
Q 2453 3394 2887 2945 
Q 3322 2497 3322 1706 
Q 3322 1066 3130 698 
Q 2938 331 2570 128 
Q 2203 -75 1769 -75 
Q 1072 -75 642 372 
Q 213 819 213 1659 
z
M 791 1659 
Q 791 1022 1069 705 
Q 1347 388 1769 388 
Q 2188 388 2466 706 
Q 2744 1025 2744 1678 
Q 2744 2294 2464 2611 
Q 2184 2928 1769 2928 
Q 1347 2928 1069 2612 
Q 791 2297 791 1659 
z
" transform="scale(0.015625)"/>
       </defs>
       <use xlink:href="#ArialMT-4e"/>
       <use xlink:href="#ArialMT-2d" transform="translate(72.216797 0)"/>
       <use xlink:href="#ArialMT-52" transform="translate(105.517578 0)"/>
       <use xlink:href="#ArialMT-65" transform="translate(177.734375 0)"/>
       <use xlink:href="#ArialMT-74" transform="translate(233.349609 0)"/>
       <use xlink:href="#ArialMT-65" transform="translate(261.132812 0)"/>
       <use xlink:href="#ArialMT-6e" transform="translate(316.748047 0)"/>
       <use xlink:href="#ArialMT-74" transform="translate(372.363281 0)"/>
       <use xlink:href="#ArialMT-69" transform="translate(400.146484 0)"/>
       <use xlink:href="#ArialMT-6f" transform="translate(422.363281 0)"/>
       <use xlink:href="#ArialMT-6e" transform="translate(477.978516 0)"/>
      </g>
     </g>
    </g>
    <g id="xtick_2">
     <g id="text_2">
      <!-- Flexible CUE -->
      <g style="fill: #262626" transform="translate(271.371336 253.885078) scale(0.165 -0.165)">
       <defs>
        <path id="ArialMT-46" d="M 525 0 
L 525 4581 
L 3616 4581 
L 3616 4041 
L 1131 4041 
L 1131 2622 
L 3281 2622 
L 3281 2081 
L 1131 2081 
L 1131 0 
L 525 0 
z
" transform="scale(0.015625)"/>
        <path id="ArialMT-6c" d="M 409 0 
L 409 4581 
L 972 4581 
L 972 0 
L 409 0 
z
" transform="scale(0.015625)"/>
        <path id="ArialMT-78" d="M 47 0 
L 1259 1725 
L 138 3319 
L 841 3319 
L 1350 2541 
Q 1494 2319 1581 2169 
Q 1719 2375 1834 2534 
L 2394 3319 
L 3066 3319 
L 1919 1756 
L 3153 0 
L 2463 0 
L 1781 1031 
L 1600 1309 
L 728 0 
L 47 0 
z
" transform="scale(0.015625)"/>
        <path id="ArialMT-62" d="M 941 0 
L 419 0 
L 419 4581 
L 981 4581 
L 981 2947 
Q 1338 3394 1891 3394 
Q 2197 3394 2470 3270 
Q 2744 3147 2920 2923 
Q 3097 2700 3197 2384 
Q 3297 2069 3297 1709 
Q 3297 856 2875 390 
Q 2453 -75 1863 -75 
Q 1275 -75 941 416 
L 941 0 
z
M 934 1684 
Q 934 1088 1097 822 
Q 1363 388 1816 388 
Q 2184 388 2453 708 
Q 2722 1028 2722 1663 
Q 2722 2313 2464 2622 
Q 2206 2931 1841 2931 
Q 1472 2931 1203 2611 
Q 934 2291 934 1684 
z
" transform="scale(0.015625)"/>
        <path id="ArialMT-20" transform="scale(0.015625)"/>
        <path id="ArialMT-43" d="M 3763 1606 
L 4369 1453 
Q 4178 706 3683 314 
Q 3188 -78 2472 -78 
Q 1731 -78 1267 223 
Q 803 525 561 1097 
Q 319 1669 319 2325 
Q 319 3041 592 3573 
Q 866 4106 1370 4382 
Q 1875 4659 2481 4659 
Q 3169 4659 3637 4309 
Q 4106 3959 4291 3325 
L 3694 3184 
Q 3534 3684 3231 3912 
Q 2928 4141 2469 4141 
Q 1941 4141 1586 3887 
Q 1231 3634 1087 3207 
Q 944 2781 944 2328 
Q 944 1744 1114 1308 
Q 1284 872 1643 656 
Q 2003 441 2422 441 
Q 2931 441 3284 734 
Q 3638 1028 3763 1606 
z
" transform="scale(0.015625)"/>
        <path id="ArialMT-55" d="M 3500 4581 
L 4106 4581 
L 4106 1934 
Q 4106 1244 3950 837 
Q 3794 431 3386 176 
Q 2978 -78 2316 -78 
Q 1672 -78 1262 144 
Q 853 366 678 786 
Q 503 1206 503 1934 
L 503 4581 
L 1109 4581 
L 1109 1938 
Q 1109 1341 1220 1058 
Q 1331 775 1601 622 
Q 1872 469 2263 469 
Q 2931 469 3215 772 
Q 3500 1075 3500 1938 
L 3500 4581 
z
" transform="scale(0.015625)"/>
        <path id="ArialMT-45" d="M 506 0 
L 506 4581 
L 3819 4581 
L 3819 4041 
L 1113 4041 
L 1113 2638 
L 3647 2638 
L 3647 2100 
L 1113 2100 
L 1113 541 
L 3925 541 
L 3925 0 
L 506 0 
z
" transform="scale(0.015625)"/>
       </defs>
       <use xlink:href="#ArialMT-46"/>
       <use xlink:href="#ArialMT-6c" transform="translate(61.083984 0)"/>
       <use xlink:href="#ArialMT-65" transform="translate(83.300781 0)"/>
       <use xlink:href="#ArialMT-78" transform="translate(138.916016 0)"/>
       <use xlink:href="#ArialMT-69" transform="translate(188.916016 0)"/>
       <use xlink:href="#ArialMT-62" transform="translate(211.132812 0)"/>
       <use xlink:href="#ArialMT-6c" transform="translate(266.748047 0)"/>
       <use xlink:href="#ArialMT-65" transform="translate(288.964844 0)"/>
       <use xlink:href="#ArialMT-20" transform="translate(344.580078 0)"/>
       <use xlink:href="#ArialMT-43" transform="translate(372.363281 0)"/>
       <use xlink:href="#ArialMT-55" transform="translate(444.580078 0)"/>
       <use xlink:href="#ArialMT-45" transform="translate(516.796875 0)"/>
      </g>
     </g>
    </g>
   </g>
   <g id="matplotlib.axis_2">
    <g id="ytick_1">
     <g id="line2d_1">
      <path d="M 48.810547 218.54061 
L 409.741547 218.54061 
" clip-path="url(#pe062bf70ed)" style="fill: none; stroke: #cccccc; stroke-linecap: round"/>
     </g>
     <g id="text_3">
      <!-- 0.75 -->
      <g style="fill: #262626" transform="translate(7.2 224.445805) scale(0.165 -0.165)">
       <defs>
        <path id="ArialMT-30" d="M 266 2259 
Q 266 3072 433 3567 
Q 600 4063 929 4331 
Q 1259 4600 1759 4600 
Q 2128 4600 2406 4451 
Q 2684 4303 2865 4023 
Q 3047 3744 3150 3342 
Q 3253 2941 3253 2259 
Q 3253 1453 3087 958 
Q 2922 463 2592 192 
Q 2263 -78 1759 -78 
Q 1097 -78 719 397 
Q 266 969 266 2259 
z
M 844 2259 
Q 844 1131 1108 757 
Q 1372 384 1759 384 
Q 2147 384 2411 759 
Q 2675 1134 2675 2259 
Q 2675 3391 2411 3762 
Q 2147 4134 1753 4134 
Q 1366 4134 1134 3806 
Q 844 3388 844 2259 
z
" transform="scale(0.015625)"/>
        <path id="ArialMT-2e" d="M 581 0 
L 581 641 
L 1222 641 
L 1222 0 
L 581 0 
z
" transform="scale(0.015625)"/>
        <path id="ArialMT-37" d="M 303 3981 
L 303 4522 
L 3269 4522 
L 3269 4084 
Q 2831 3619 2401 2847 
Q 1972 2075 1738 1259 
Q 1569 684 1522 0 
L 944 0 
Q 953 541 1156 1306 
Q 1359 2072 1739 2783 
Q 2119 3494 2547 3981 
L 303 3981 
z
" transform="scale(0.015625)"/>
        <path id="ArialMT-35" d="M 266 1200 
L 856 1250 
Q 922 819 1161 601 
Q 1400 384 1738 384 
Q 2144 384 2425 690 
Q 2706 997 2706 1503 
Q 2706 1984 2436 2262 
Q 2166 2541 1728 2541 
Q 1456 2541 1237 2417 
Q 1019 2294 894 2097 
L 366 2166 
L 809 4519 
L 3088 4519 
L 3088 3981 
L 1259 3981 
L 1013 2750 
Q 1425 3038 1878 3038 
Q 2478 3038 2890 2622 
Q 3303 2206 3303 1553 
Q 3303 931 2941 478 
Q 2500 -78 1738 -78 
Q 1113 -78 717 272 
Q 322 622 266 1200 
z
" transform="scale(0.015625)"/>
       </defs>
       <use xlink:href="#ArialMT-30"/>
       <use xlink:href="#ArialMT-2e" transform="translate(55.615234 0)"/>
       <use xlink:href="#ArialMT-37" transform="translate(83.398438 0)"/>
       <use xlink:href="#ArialMT-35" transform="translate(139.013672 0)"/>
      </g>
     </g>
    </g>
    <g id="ytick_2">
     <g id="line2d_2">
      <path d="M 48.810547 181.711162 
L 409.741547 181.711162 
" clip-path="url(#pe062bf70ed)" style="fill: none; stroke: #cccccc; stroke-linecap: round"/>
     </g>
     <g id="text_4">
      <!-- 0.80 -->
      <g style="fill: #262626" transform="translate(7.2 187.616358) scale(0.165 -0.165)">
       <defs>
        <path id="ArialMT-38" d="M 1131 2484 
Q 781 2613 612 2850 
Q 444 3088 444 3419 
Q 444 3919 803 4259 
Q 1163 4600 1759 4600 
Q 2359 4600 2725 4251 
Q 3091 3903 3091 3403 
Q 3091 3084 2923 2848 
Q 2756 2613 2416 2484 
Q 2838 2347 3058 2040 
Q 3278 1734 3278 1309 
Q 3278 722 2862 322 
Q 2447 -78 1769 -78 
Q 1091 -78 675 323 
Q 259 725 259 1325 
Q 259 1772 486 2073 
Q 713 2375 1131 2484 
z
M 1019 3438 
Q 1019 3113 1228 2906 
Q 1438 2700 1772 2700 
Q 2097 2700 2305 2904 
Q 2513 3109 2513 3406 
Q 2513 3716 2298 3927 
Q 2084 4138 1766 4138 
Q 1444 4138 1231 3931 
Q 1019 3725 1019 3438 
z
M 838 1322 
Q 838 1081 952 856 
Q 1066 631 1291 507 
Q 1516 384 1775 384 
Q 2178 384 2440 643 
Q 2703 903 2703 1303 
Q 2703 1709 2433 1975 
Q 2163 2241 1756 2241 
Q 1359 2241 1098 1978 
Q 838 1716 838 1322 
z
" transform="scale(0.015625)"/>
       </defs>
       <use xlink:href="#ArialMT-30"/>
       <use xlink:href="#ArialMT-2e" transform="translate(55.615234 0)"/>
       <use xlink:href="#ArialMT-38" transform="translate(83.398438 0)"/>
       <use xlink:href="#ArialMT-30" transform="translate(139.013672 0)"/>
      </g>
     </g>
    </g>
    <g id="ytick_3">
     <g id="line2d_3">
      <path d="M 48.810547 144.881715 
L 409.741547 144.881715 
" clip-path="url(#pe062bf70ed)" style="fill: none; stroke: #cccccc; stroke-linecap: round"/>
     </g>
     <g id="text_5">
      <!-- 0.85 -->
      <g style="fill: #262626" transform="translate(7.2 150.78691) scale(0.165 -0.165)">
       <use xlink:href="#ArialMT-30"/>
       <use xlink:href="#ArialMT-2e" transform="translate(55.615234 0)"/>
       <use xlink:href="#ArialMT-38" transform="translate(83.398438 0)"/>
       <use xlink:href="#ArialMT-35" transform="translate(139.013672 0)"/>
      </g>
     </g>
    </g>
    <g id="ytick_4">
     <g id="line2d_4">
      <path d="M 48.810547 108.052267 
L 409.741547 108.052267 
" clip-path="url(#pe062bf70ed)" style="fill: none; stroke: #cccccc; stroke-linecap: round"/>
     </g>
     <g id="text_6">
      <!-- 0.90 -->
      <g style="fill: #262626" transform="translate(7.2 113.957463) scale(0.165 -0.165)">
       <defs>
        <path id="ArialMT-39" d="M 350 1059 
L 891 1109 
Q 959 728 1153 556 
Q 1347 384 1650 384 
Q 1909 384 2104 503 
Q 2300 622 2425 820 
Q 2550 1019 2634 1356 
Q 2719 1694 2719 2044 
Q 2719 2081 2716 2156 
Q 2547 1888 2255 1720 
Q 1963 1553 1622 1553 
Q 1053 1553 659 1965 
Q 266 2378 266 3053 
Q 266 3750 677 4175 
Q 1088 4600 1706 4600 
Q 2153 4600 2523 4359 
Q 2894 4119 3086 3673 
Q 3278 3228 3278 2384 
Q 3278 1506 3087 986 
Q 2897 466 2520 194 
Q 2144 -78 1638 -78 
Q 1100 -78 759 220 
Q 419 519 350 1059 
z
M 2653 3081 
Q 2653 3566 2395 3850 
Q 2138 4134 1775 4134 
Q 1400 4134 1122 3828 
Q 844 3522 844 3034 
Q 844 2597 1108 2323 
Q 1372 2050 1759 2050 
Q 2150 2050 2401 2323 
Q 2653 2597 2653 3081 
z
" transform="scale(0.015625)"/>
       </defs>
       <use xlink:href="#ArialMT-30"/>
       <use xlink:href="#ArialMT-2e" transform="translate(55.615234 0)"/>
       <use xlink:href="#ArialMT-39" transform="translate(83.398438 0)"/>
       <use xlink:href="#ArialMT-30" transform="translate(139.013672 0)"/>
      </g>
     </g>
    </g>
    <g id="ytick_5">
     <g id="line2d_5">
      <path d="M 48.810547 71.22282 
L 409.741547 71.22282 
" clip-path="url(#pe062bf70ed)" style="fill: none; stroke: #cccccc; stroke-linecap: round"/>
     </g>
     <g id="text_7">
      <!-- 0.95 -->
      <g style="fill: #262626" transform="translate(7.2 77.128015) scale(0.165 -0.165)">
       <use xlink:href="#ArialMT-30"/>
       <use xlink:href="#ArialMT-2e" transform="translate(55.615234 0)"/>
       <use xlink:href="#ArialMT-39" transform="translate(83.398438 0)"/>
       <use xlink:href="#ArialMT-35" transform="translate(139.013672 0)"/>
      </g>
     </g>
    </g>
    <g id="ytick_6">
     <g id="line2d_6">
      <path d="M 48.810547 34.393372 
L 409.741547 34.393372 
" clip-path="url(#pe062bf70ed)" style="fill: none; stroke: #cccccc; stroke-linecap: round"/>
     </g>
     <g id="text_8">
      <!-- 1.00 -->
      <g style="fill: #262626" transform="translate(7.2 40.298568) scale(0.165 -0.165)">
       <defs>
        <path id="ArialMT-31" d="M 2384 0 
L 1822 0 
L 1822 3584 
Q 1619 3391 1289 3197 
Q 959 3003 697 2906 
L 697 3450 
Q 1169 3672 1522 3987 
Q 1875 4303 2022 4600 
L 2384 4600 
L 2384 0 
z
" transform="scale(0.015625)"/>
       </defs>
       <use xlink:href="#ArialMT-31"/>
       <use xlink:href="#ArialMT-2e" transform="translate(55.615234 0)"/>
       <use xlink:href="#ArialMT-30" transform="translate(83.398438 0)"/>
       <use xlink:href="#ArialMT-30" transform="translate(139.013672 0)"/>
      </g>
     </g>
    </g>
   </g>
   <g id="patch_3">
    <path d="M 79.828055 63.235962 
L 103.514152 63.235962 
L 103.514152 43.176952 
L 79.828055 43.176952 
L 79.828055 63.235962 
z
" clip-path="url(#pe062bf70ed)" style="fill: #5875a4; stroke: #4c4c4c; stroke-width: 0.5; stroke-linejoin: miter"/>
   </g>
   <g id="line2d_7">
    <path d="M 91.671103 63.235962 
L 91.671103 92.763094 
" clip-path="url(#pe062bf70ed)" style="fill: none; stroke: #4c4c4c; stroke-width: 0.5"/>
   </g>
   <g id="line2d_8">
    <path d="M 91.671103 43.176952 
L 91.671103 35.807071 
" clip-path="url(#pe062bf70ed)" style="fill: none; stroke: #4c4c4c; stroke-width: 0.5"/>
   </g>
   <g id="line2d_9">
    <path d="M 85.749579 92.763094 
L 97.592627 92.763094 
" clip-path="url(#pe062bf70ed)" style="fill: none; stroke: #4c4c4c; stroke-width: 0.5; stroke-linecap: round"/>
   </g>
   <g id="line2d_10">
    <path d="M 85.749579 35.807071 
L 97.592627 35.807071 
" clip-path="url(#pe062bf70ed)" style="fill: none; stroke: #4c4c4c; stroke-width: 0.5; stroke-linecap: round"/>
   </g>
   <g id="line2d_11">
    <defs>
     <path id="mfd8e2787ba" d="M 0 2.5 
C 0.663008 2.5 1.29895 2.236584 1.767767 1.767767 
C 2.236584 1.29895 2.5 0.663008 2.5 0 
C 2.5 -0.663008 2.236584 -1.29895 1.767767 -1.767767 
C 1.29895 -2.236584 0.663008 -2.5 0 -2.5 
C -0.663008 -2.5 -1.29895 -2.236584 -1.767767 -1.767767 
C -2.236584 -1.29895 -2.5 -0.663008 -2.5 0 
C -2.5 0.663008 -2.236584 1.29895 -1.767767 1.767767 
C -1.29895 2.236584 -0.663008 2.5 0 2.5 
z
" style="stroke: #4c4c4c"/>
    </defs>
    <g clip-path="url(#pe062bf70ed)">
     <use xlink:href="#mfd8e2787ba" x="91.671103" y="95.141428" style="fill-opacity: 0; stroke: #4c4c4c"/>
     <use xlink:href="#mfd8e2787ba" x="91.671103" y="133.578674" style="fill-opacity: 0; stroke: #4c4c4c"/>
     <use xlink:href="#mfd8e2787ba" x="91.671103" y="163.836342" style="fill-opacity: 0; stroke: #4c4c4c"/>
     <use xlink:href="#mfd8e2787ba" x="91.671103" y="103.67234" style="fill-opacity: 0; stroke: #4c4c4c"/>
     <use xlink:href="#mfd8e2787ba" x="91.671103" y="194.650993" style="fill-opacity: 0; stroke: #4c4c4c"/>
     <use xlink:href="#mfd8e2787ba" x="91.671103" y="165.406978" style="fill-opacity: 0; stroke: #4c4c4c"/>
     <use xlink:href="#mfd8e2787ba" x="91.671103" y="112.582149" style="fill-opacity: 0; stroke: #4c4c4c"/>
     <use xlink:href="#mfd8e2787ba" x="91.671103" y="191.208987" style="fill-opacity: 0; stroke: #4c4c4c"/>
    </g>
   </g>
   <g id="patch_4">
    <path d="M 260.293555 61.16521 
L 283.979652 61.16521 
L 283.979652 41.540783 
L 260.293555 41.540783 
L 260.293555 61.16521 
z
" clip-path="url(#pe062bf70ed)" style="fill: #5875a4; stroke: #4c4c4c; stroke-width: 0.5; stroke-linejoin: miter"/>
   </g>
   <g id="line2d_12">
    <path d="M 272.136603 61.16521 
L 272.136603 87.208276 
" clip-path="url(#pe062bf70ed)" style="fill: none; stroke: #4c4c4c; stroke-width: 0.5"/>
   </g>
   <g id="line2d_13">
    <path d="M 272.136603 41.540783 
L 272.136603 35.690142 
" clip-path="url(#pe062bf70ed)" style="fill: none; stroke: #4c4c4c; stroke-width: 0.5"/>
   </g>
   <g id="line2d_14">
    <path d="M 266.215079 87.208276 
L 278.058127 87.208276 
" clip-path="url(#pe062bf70ed)" style="fill: none; stroke: #4c4c4c; stroke-width: 0.5; stroke-linecap: round"/>
   </g>
   <g id="line2d_15">
    <path d="M 266.215079 35.690142 
L 278.058127 35.690142 
" clip-path="url(#pe062bf70ed)" style="fill: none; stroke: #4c4c4c; stroke-width: 0.5; stroke-linecap: round"/>
   </g>
   <g id="line2d_16">
    <g clip-path="url(#pe062bf70ed)">
     <use xlink:href="#mfd8e2787ba" x="272.136603" y="107.334459" style="fill-opacity: 0; stroke: #4c4c4c"/>
     <use xlink:href="#mfd8e2787ba" x="272.136603" y="163.836342" style="fill-opacity: 0; stroke: #4c4c4c"/>
     <use xlink:href="#mfd8e2787ba" x="272.136603" y="103.67234" style="fill-opacity: 0; stroke: #4c4c4c"/>
     <use xlink:href="#mfd8e2787ba" x="272.136603" y="194.650993" style="fill-opacity: 0; stroke: #4c4c4c"/>
     <use xlink:href="#mfd8e2787ba" x="272.136603" y="165.406978" style="fill-opacity: 0; stroke: #4c4c4c"/>
     <use xlink:href="#mfd8e2787ba" x="272.136603" y="112.562404" style="fill-opacity: 0; stroke: #4c4c4c"/>
     <use xlink:href="#mfd8e2787ba" x="272.136603" y="191.20827" style="fill-opacity: 0; stroke: #4c4c4c"/>
    </g>
   </g>
   <g id="patch_5">
    <path d="M 111.409517 69.551535 
L 135.095614 69.551535 
L 135.095614 43.366101 
L 111.409517 43.366101 
L 111.409517 69.551535 
z
" clip-path="url(#pe062bf70ed)" style="fill: #cc8963; stroke: #4c4c4c; stroke-width: 0.5; stroke-linejoin: miter"/>
   </g>
   <g id="line2d_17">
    <path d="M 123.252566 69.551535 
L 123.252566 103.964332 
" clip-path="url(#pe062bf70ed)" style="fill: none; stroke: #4c4c4c; stroke-width: 0.5"/>
   </g>
   <g id="line2d_18">
    <path d="M 123.252566 43.366101 
L 123.252566 36.596391 
" clip-path="url(#pe062bf70ed)" style="fill: none; stroke: #4c4c4c; stroke-width: 0.5"/>
   </g>
   <g id="line2d_19">
    <path d="M 117.331041 103.964332 
L 129.17409 103.964332 
" clip-path="url(#pe062bf70ed)" style="fill: none; stroke: #4c4c4c; stroke-width: 0.5; stroke-linecap: round"/>
   </g>
   <g id="line2d_20">
    <path d="M 117.331041 36.596391 
L 129.17409 36.596391 
" clip-path="url(#pe062bf70ed)" style="fill: none; stroke: #4c4c4c; stroke-width: 0.5; stroke-linecap: round"/>
   </g>
   <g id="line2d_21">
    <g clip-path="url(#pe062bf70ed)">
     <use xlink:href="#mfd8e2787ba" x="123.252566" y="197.777846" style="fill-opacity: 0; stroke: #4c4c4c"/>
     <use xlink:href="#mfd8e2787ba" x="123.252566" y="210.558791" style="fill-opacity: 0; stroke: #4c4c4c"/>
     <use xlink:href="#mfd8e2787ba" x="123.252566" y="125.280859" style="fill-opacity: 0; stroke: #4c4c4c"/>
     <use xlink:href="#mfd8e2787ba" x="123.252566" y="128.098095" style="fill-opacity: 0; stroke: #4c4c4c"/>
     <use xlink:href="#mfd8e2787ba" x="123.252566" y="119.295673" style="fill-opacity: 0; stroke: #4c4c4c"/>
     <use xlink:href="#mfd8e2787ba" x="123.252566" y="142.269038" style="fill-opacity: 0; stroke: #4c4c4c"/>
     <use xlink:href="#mfd8e2787ba" x="123.252566" y="179.91573" style="fill-opacity: 0; stroke: #4c4c4c"/>
     <use xlink:href="#mfd8e2787ba" x="123.252566" y="176.645005" style="fill-opacity: 0; stroke: #4c4c4c"/>
     <use xlink:href="#mfd8e2787ba" x="123.252566" y="144.555508" style="fill-opacity: 0; stroke: #4c4c4c"/>
     <use xlink:href="#mfd8e2787ba" x="123.252566" y="223.199233" style="fill-opacity: 0; stroke: #4c4c4c"/>
    </g>
   </g>
   <g id="patch_6">
    <path d="M 291.875017 66.685991 
L 315.561114 66.685991 
L 315.561114 42.494318 
L 291.875017 42.494318 
L 291.875017 66.685991 
z
" clip-path="url(#pe062bf70ed)" style="fill: #cc8963; stroke: #4c4c4c; stroke-width: 0.5; stroke-linejoin: miter"/>
   </g>
   <g id="line2d_22">
    <path d="M 303.718066 66.685991 
L 303.718066 99.470228 
" clip-path="url(#pe062bf70ed)" style="fill: none; stroke: #4c4c4c; stroke-width: 0.5"/>
   </g>
   <g id="line2d_23">
    <path d="M 303.718066 42.494318 
L 303.718066 36.198992 
" clip-path="url(#pe062bf70ed)" style="fill: none; stroke: #4c4c4c; stroke-width: 0.5"/>
   </g>
   <g id="line2d_24">
    <path d="M 297.796541 99.470228 
L 309.63959 99.470228 
" clip-path="url(#pe062bf70ed)" style="fill: none; stroke: #4c4c4c; stroke-width: 0.5; stroke-linecap: round"/>
   </g>
   <g id="line2d_25">
    <path d="M 297.796541 36.198992 
L 309.63959 36.198992 
" clip-path="url(#pe062bf70ed)" style="fill: none; stroke: #4c4c4c; stroke-width: 0.5; stroke-linecap: round"/>
   </g>
   <g id="line2d_26">
    <g clip-path="url(#pe062bf70ed)">
     <use xlink:href="#mfd8e2787ba" x="303.718066" y="125.280859" style="fill-opacity: 0; stroke: #4c4c4c"/>
     <use xlink:href="#mfd8e2787ba" x="303.718066" y="128.098095" style="fill-opacity: 0; stroke: #4c4c4c"/>
     <use xlink:href="#mfd8e2787ba" x="303.718066" y="119.295673" style="fill-opacity: 0; stroke: #4c4c4c"/>
     <use xlink:href="#mfd8e2787ba" x="303.718066" y="142.269038" style="fill-opacity: 0; stroke: #4c4c4c"/>
     <use xlink:href="#mfd8e2787ba" x="303.718066" y="179.91573" style="fill-opacity: 0; stroke: #4c4c4c"/>
     <use xlink:href="#mfd8e2787ba" x="303.718066" y="176.645005" style="fill-opacity: 0; stroke: #4c4c4c"/>
     <use xlink:href="#mfd8e2787ba" x="303.718066" y="144.555508" style="fill-opacity: 0; stroke: #4c4c4c"/>
     <use xlink:href="#mfd8e2787ba" x="303.718066" y="223.199233" style="fill-opacity: 0; stroke: #4c4c4c"/>
    </g>
   </g>
   <g id="patch_7">
    <path d="M 142.99098 66.489688 
L 166.677077 66.489688 
L 166.677077 42.76608 
L 142.99098 42.76608 
L 142.99098 66.489688 
z
" clip-path="url(#pe062bf70ed)" style="fill: #5f9e6e; stroke: #4c4c4c; stroke-width: 0.5; stroke-linejoin: miter"/>
   </g>
   <g id="line2d_27">
    <path d="M 154.834028 66.489688 
L 154.834028 97.789198 
" clip-path="url(#pe062bf70ed)" style="fill: none; stroke: #4c4c4c; stroke-width: 0.5"/>
   </g>
   <g id="line2d_28">
    <path d="M 154.834028 42.76608 
L 154.834028 36.32763 
" clip-path="url(#pe062bf70ed)" style="fill: none; stroke: #4c4c4c; stroke-width: 0.5"/>
   </g>
   <g id="line2d_29">
    <path d="M 148.912504 97.789198 
L 160.755552 97.789198 
" clip-path="url(#pe062bf70ed)" style="fill: none; stroke: #4c4c4c; stroke-width: 0.5; stroke-linecap: round"/>
   </g>
   <g id="line2d_30">
    <path d="M 148.912504 36.32763 
L 160.755552 36.32763 
" clip-path="url(#pe062bf70ed)" style="fill: none; stroke: #4c4c4c; stroke-width: 0.5; stroke-linecap: round"/>
   </g>
   <g id="line2d_31">
    <g clip-path="url(#pe062bf70ed)">
     <use xlink:href="#mfd8e2787ba" x="154.834028" y="124.604726" style="fill-opacity: 0; stroke: #4c4c4c"/>
     <use xlink:href="#mfd8e2787ba" x="154.834028" y="110.72684" style="fill-opacity: 0; stroke: #4c4c4c"/>
     <use xlink:href="#mfd8e2787ba" x="154.834028" y="102.085116" style="fill-opacity: 0; stroke: #4c4c4c"/>
     <use xlink:href="#mfd8e2787ba" x="154.834028" y="155.972658" style="fill-opacity: 0; stroke: #4c4c4c"/>
     <use xlink:href="#mfd8e2787ba" x="154.834028" y="172.526705" style="fill-opacity: 0; stroke: #4c4c4c"/>
     <use xlink:href="#mfd8e2787ba" x="154.834028" y="108.077507" style="fill-opacity: 0; stroke: #4c4c4c"/>
     <use xlink:href="#mfd8e2787ba" x="154.834028" y="182.911127" style="fill-opacity: 0; stroke: #4c4c4c"/>
     <use xlink:href="#mfd8e2787ba" x="154.834028" y="118.990948" style="fill-opacity: 0; stroke: #4c4c4c"/>
     <use xlink:href="#mfd8e2787ba" x="154.834028" y="143.747097" style="fill-opacity: 0; stroke: #4c4c4c"/>
     <use xlink:href="#mfd8e2787ba" x="154.834028" y="201.208434" style="fill-opacity: 0; stroke: #4c4c4c"/>
    </g>
   </g>
   <g id="patch_8">
    <path d="M 323.45648 66.489688 
L 347.142577 66.489688 
L 347.142577 42.180506 
L 323.45648 42.180506 
L 323.45648 66.489688 
z
" clip-path="url(#pe062bf70ed)" style="fill: #5f9e6e; stroke: #4c4c4c; stroke-width: 0.5; stroke-linejoin: miter"/>
   </g>
   <g id="line2d_32">
    <path d="M 335.299528 66.489688 
L 335.299528 101.893771 
" clip-path="url(#pe062bf70ed)" style="fill: none; stroke: #4c4c4c; stroke-width: 0.5"/>
   </g>
   <g id="line2d_33">
    <path d="M 335.299528 42.180506 
L 335.299528 36.046647 
" clip-path="url(#pe062bf70ed)" style="fill: none; stroke: #4c4c4c; stroke-width: 0.5"/>
   </g>
   <g id="line2d_34">
    <path d="M 329.378004 101.893771 
L 341.221052 101.893771 
" clip-path="url(#pe062bf70ed)" style="fill: none; stroke: #4c4c4c; stroke-width: 0.5; stroke-linecap: round"/>
   </g>
   <g id="line2d_35">
    <path d="M 329.378004 36.046647 
L 341.221052 36.046647 
" clip-path="url(#pe062bf70ed)" style="fill: none; stroke: #4c4c4c; stroke-width: 0.5; stroke-linecap: round"/>
   </g>
   <g id="line2d_36">
    <g clip-path="url(#pe062bf70ed)">
     <use xlink:href="#mfd8e2787ba" x="335.299528" y="124.604726" style="fill-opacity: 0; stroke: #4c4c4c"/>
     <use xlink:href="#mfd8e2787ba" x="335.299528" y="110.72684" style="fill-opacity: 0; stroke: #4c4c4c"/>
     <use xlink:href="#mfd8e2787ba" x="335.299528" y="151.377811" style="fill-opacity: 0; stroke: #4c4c4c"/>
     <use xlink:href="#mfd8e2787ba" x="335.299528" y="172.526705" style="fill-opacity: 0; stroke: #4c4c4c"/>
     <use xlink:href="#mfd8e2787ba" x="335.299528" y="108.077507" style="fill-opacity: 0; stroke: #4c4c4c"/>
     <use xlink:href="#mfd8e2787ba" x="335.299528" y="182.911127" style="fill-opacity: 0; stroke: #4c4c4c"/>
     <use xlink:href="#mfd8e2787ba" x="335.299528" y="118.990948" style="fill-opacity: 0; stroke: #4c4c4c"/>
     <use xlink:href="#mfd8e2787ba" x="335.299528" y="143.749624" style="fill-opacity: 0; stroke: #4c4c4c"/>
     <use xlink:href="#mfd8e2787ba" x="335.299528" y="201.206512" style="fill-opacity: 0; stroke: #4c4c4c"/>
    </g>
   </g>
   <g id="patch_9">
    <path d="M 174.572442 65.06051 
L 198.258539 65.06051 
L 198.258539 42.319442 
L 174.572442 42.319442 
L 174.572442 65.06051 
z
" clip-path="url(#pe062bf70ed)" style="fill: #b55d60; stroke: #4c4c4c; stroke-width: 0.5; stroke-linejoin: miter"/>
   </g>
   <g id="line2d_37">
    <path d="M 186.415491 65.06051 
L 186.415491 90.499651 
" clip-path="url(#pe062bf70ed)" style="fill: none; stroke: #4c4c4c; stroke-width: 0.5"/>
   </g>
   <g id="line2d_38">
    <path d="M 186.415491 42.319442 
L 186.415491 36.200152 
" clip-path="url(#pe062bf70ed)" style="fill: none; stroke: #4c4c4c; stroke-width: 0.5"/>
   </g>
   <g id="line2d_39">
    <path d="M 180.493966 90.499651 
L 192.337015 90.499651 
" clip-path="url(#pe062bf70ed)" style="fill: none; stroke: #4c4c4c; stroke-width: 0.5; stroke-linecap: round"/>
   </g>
   <g id="line2d_40">
    <path d="M 180.493966 36.200152 
L 192.337015 36.200152 
" clip-path="url(#pe062bf70ed)" style="fill: none; stroke: #4c4c4c; stroke-width: 0.5; stroke-linecap: round"/>
   </g>
   <g id="line2d_41">
    <g clip-path="url(#pe062bf70ed)">
     <use xlink:href="#mfd8e2787ba" x="186.415491" y="126.844072" style="fill-opacity: 0; stroke: #4c4c4c"/>
     <use xlink:href="#mfd8e2787ba" x="186.415491" y="113.978919" style="fill-opacity: 0; stroke: #4c4c4c"/>
     <use xlink:href="#mfd8e2787ba" x="186.415491" y="135.779432" style="fill-opacity: 0; stroke: #4c4c4c"/>
     <use xlink:href="#mfd8e2787ba" x="186.415491" y="126.187492" style="fill-opacity: 0; stroke: #4c4c4c"/>
     <use xlink:href="#mfd8e2787ba" x="186.415491" y="159.821323" style="fill-opacity: 0; stroke: #4c4c4c"/>
     <use xlink:href="#mfd8e2787ba" x="186.415491" y="106.308528" style="fill-opacity: 0; stroke: #4c4c4c"/>
     <use xlink:href="#mfd8e2787ba" x="186.415491" y="189.572401" style="fill-opacity: 0; stroke: #4c4c4c"/>
     <use xlink:href="#mfd8e2787ba" x="186.415491" y="120.689337" style="fill-opacity: 0; stroke: #4c4c4c"/>
     <use xlink:href="#mfd8e2787ba" x="186.415491" y="136.570699" style="fill-opacity: 0; stroke: #4c4c4c"/>
     <use xlink:href="#mfd8e2787ba" x="186.415491" y="182.037176" style="fill-opacity: 0; stroke: #4c4c4c"/>
    </g>
   </g>
   <g id="patch_10">
    <path d="M 355.037942 65.06051 
L 378.724039 65.06051 
L 378.724039 42.353269 
L 355.037942 42.353269 
L 355.037942 65.06051 
z
" clip-path="url(#pe062bf70ed)" style="fill: #b55d60; stroke: #4c4c4c; stroke-width: 0.5; stroke-linejoin: miter"/>
   </g>
   <g id="line2d_42">
    <path d="M 366.880991 65.06051 
L 366.880991 86.187821 
" clip-path="url(#pe062bf70ed)" style="fill: none; stroke: #4c4c4c; stroke-width: 0.5"/>
   </g>
   <g id="line2d_43">
    <path d="M 366.880991 42.353269 
L 366.880991 35.944426 
" clip-path="url(#pe062bf70ed)" style="fill: none; stroke: #4c4c4c; stroke-width: 0.5"/>
   </g>
   <g id="line2d_44">
    <path d="M 360.959466 86.187821 
L 372.802515 86.187821 
" clip-path="url(#pe062bf70ed)" style="fill: none; stroke: #4c4c4c; stroke-width: 0.5; stroke-linecap: round"/>
   </g>
   <g id="line2d_45">
    <path d="M 360.959466 35.944426 
L 372.802515 35.944426 
" clip-path="url(#pe062bf70ed)" style="fill: none; stroke: #4c4c4c; stroke-width: 0.5; stroke-linecap: round"/>
   </g>
   <g id="line2d_46">
    <g clip-path="url(#pe062bf70ed)">
     <use xlink:href="#mfd8e2787ba" x="366.880991" y="126.844072" style="fill-opacity: 0; stroke: #4c4c4c"/>
     <use xlink:href="#mfd8e2787ba" x="366.880991" y="113.978919" style="fill-opacity: 0; stroke: #4c4c4c"/>
     <use xlink:href="#mfd8e2787ba" x="366.880991" y="135.327317" style="fill-opacity: 0; stroke: #4c4c4c"/>
     <use xlink:href="#mfd8e2787ba" x="366.880991" y="121.20515" style="fill-opacity: 0; stroke: #4c4c4c"/>
     <use xlink:href="#mfd8e2787ba" x="366.880991" y="159.821323" style="fill-opacity: 0; stroke: #4c4c4c"/>
     <use xlink:href="#mfd8e2787ba" x="366.880991" y="106.308528" style="fill-opacity: 0; stroke: #4c4c4c"/>
     <use xlink:href="#mfd8e2787ba" x="366.880991" y="189.572401" style="fill-opacity: 0; stroke: #4c4c4c"/>
     <use xlink:href="#mfd8e2787ba" x="366.880991" y="120.689337" style="fill-opacity: 0; stroke: #4c4c4c"/>
     <use xlink:href="#mfd8e2787ba" x="366.880991" y="136.570699" style="fill-opacity: 0; stroke: #4c4c4c"/>
     <use xlink:href="#mfd8e2787ba" x="366.880991" y="182.037176" style="fill-opacity: 0; stroke: #4c4c4c"/>
    </g>
   </g>
   <g id="line2d_47">
    <path d="M 79.828055 51.178482 
L 103.514152 51.178482 
" clip-path="url(#pe062bf70ed)" style="fill: none; stroke: #4c4c4c; stroke-width: 0.5"/>
   </g>
   <g id="line2d_48">
    <path d="M 260.293555 49.629853 
L 283.979652 49.629853 
" clip-path="url(#pe062bf70ed)" style="fill: none; stroke: #4c4c4c; stroke-width: 0.5"/>
   </g>
   <g id="line2d_49">
    <path d="M 111.409517 52.018388 
L 135.095614 52.018388 
" clip-path="url(#pe062bf70ed)" style="fill: none; stroke: #4c4c4c; stroke-width: 0.5"/>
   </g>
   <g id="line2d_50">
    <path d="M 291.875017 51.144787 
L 315.561114 51.144787 
" clip-path="url(#pe062bf70ed)" style="fill: none; stroke: #4c4c4c; stroke-width: 0.5"/>
   </g>
   <g id="line2d_51">
    <path d="M 142.99098 50.300823 
L 166.677077 50.300823 
" clip-path="url(#pe062bf70ed)" style="fill: none; stroke: #4c4c4c; stroke-width: 0.5"/>
   </g>
   <g id="line2d_52">
    <path d="M 323.45648 49.709282 
L 347.142577 49.709282 
" clip-path="url(#pe062bf70ed)" style="fill: none; stroke: #4c4c4c; stroke-width: 0.5"/>
   </g>
   <g id="line2d_53">
    <path d="M 174.572442 51.323489 
L 198.258539 51.323489 
" clip-path="url(#pe062bf70ed)" style="fill: none; stroke: #4c4c4c; stroke-width: 0.5"/>
   </g>
   <g id="line2d_54">
    <path d="M 355.037942 50.270765 
L 378.724039 50.270765 
" clip-path="url(#pe062bf70ed)" style="fill: none; stroke: #4c4c4c; stroke-width: 0.5"/>
   </g>
   <g id="patch_11">
    <path d="M 48.810547 232.574688 
L 48.810547 26.314688 
" style="fill: none; stroke: #cccccc; stroke-width: 1.25; stroke-linejoin: miter; stroke-linecap: square"/>
   </g>
   <g id="patch_12">
    <path d="M 48.810547 232.574688 
L 409.741547 232.574688 
" style="fill: none; stroke: #cccccc; stroke-width: 1.25; stroke-linejoin: miter; stroke-linecap: square"/>
   </g>
   <g id="text_9">
    <!-- (A) Overall NSE -->
    <g style="fill: #262626" transform="translate(165.266359 20.314687) scale(0.18 -0.18)">
     <defs>
      <path id="ArialMT-28" d="M 1497 -1347 
Q 1031 -759 709 28 
Q 388 816 388 1659 
Q 388 2403 628 3084 
Q 909 3875 1497 4659 
L 1900 4659 
Q 1522 4009 1400 3731 
Q 1209 3300 1100 2831 
Q 966 2247 966 1656 
Q 966 153 1900 -1347 
L 1497 -1347 
z
" transform="scale(0.015625)"/>
      <path id="ArialMT-41" d="M -9 0 
L 1750 4581 
L 2403 4581 
L 4278 0 
L 3588 0 
L 3053 1388 
L 1138 1388 
L 634 0 
L -9 0 
z
M 1313 1881 
L 2866 1881 
L 2388 3150 
Q 2169 3728 2063 4100 
Q 1975 3659 1816 3225 
L 1313 1881 
z
" transform="scale(0.015625)"/>
      <path id="ArialMT-29" d="M 791 -1347 
L 388 -1347 
Q 1322 153 1322 1656 
Q 1322 2244 1188 2822 
Q 1081 3291 891 3722 
Q 769 4003 388 4659 
L 791 4659 
Q 1378 3875 1659 3084 
Q 1900 2403 1900 1659 
Q 1900 816 1576 28 
Q 1253 -759 791 -1347 
z
" transform="scale(0.015625)"/>
      <path id="ArialMT-4f" d="M 309 2231 
Q 309 3372 921 4017 
Q 1534 4663 2503 4663 
Q 3138 4663 3647 4359 
Q 4156 4056 4423 3514 
Q 4691 2972 4691 2284 
Q 4691 1588 4409 1038 
Q 4128 488 3612 205 
Q 3097 -78 2500 -78 
Q 1853 -78 1343 234 
Q 834 547 571 1087 
Q 309 1628 309 2231 
z
M 934 2222 
Q 934 1394 1379 917 
Q 1825 441 2497 441 
Q 3181 441 3623 922 
Q 4066 1403 4066 2288 
Q 4066 2847 3877 3264 
Q 3688 3681 3323 3911 
Q 2959 4141 2506 4141 
Q 1863 4141 1398 3698 
Q 934 3256 934 2222 
z
" transform="scale(0.015625)"/>
      <path id="ArialMT-76" d="M 1344 0 
L 81 3319 
L 675 3319 
L 1388 1331 
Q 1503 1009 1600 663 
Q 1675 925 1809 1294 
L 2547 3319 
L 3125 3319 
L 1869 0 
L 1344 0 
z
" transform="scale(0.015625)"/>
      <path id="ArialMT-72" d="M 416 0 
L 416 3319 
L 922 3319 
L 922 2816 
Q 1116 3169 1280 3281 
Q 1444 3394 1641 3394 
Q 1925 3394 2219 3213 
L 2025 2691 
Q 1819 2813 1613 2813 
Q 1428 2813 1281 2702 
Q 1134 2591 1072 2394 
Q 978 2094 978 1738 
L 978 0 
L 416 0 
z
" transform="scale(0.015625)"/>
      <path id="ArialMT-61" d="M 2588 409 
Q 2275 144 1986 34 
Q 1697 -75 1366 -75 
Q 819 -75 525 192 
Q 231 459 231 875 
Q 231 1119 342 1320 
Q 453 1522 633 1644 
Q 813 1766 1038 1828 
Q 1203 1872 1538 1913 
Q 2219 1994 2541 2106 
Q 2544 2222 2544 2253 
Q 2544 2597 2384 2738 
Q 2169 2928 1744 2928 
Q 1347 2928 1158 2789 
Q 969 2650 878 2297 
L 328 2372 
Q 403 2725 575 2942 
Q 747 3159 1072 3276 
Q 1397 3394 1825 3394 
Q 2250 3394 2515 3294 
Q 2781 3194 2906 3042 
Q 3031 2891 3081 2659 
Q 3109 2516 3109 2141 
L 3109 1391 
Q 3109 606 3145 398 
Q 3181 191 3288 0 
L 2700 0 
Q 2613 175 2588 409 
z
M 2541 1666 
Q 2234 1541 1622 1453 
Q 1275 1403 1131 1340 
Q 988 1278 909 1158 
Q 831 1038 831 891 
Q 831 666 1001 516 
Q 1172 366 1500 366 
Q 1825 366 2078 508 
Q 2331 650 2450 897 
Q 2541 1088 2541 1459 
L 2541 1666 
z
" transform="scale(0.015625)"/>
      <path id="ArialMT-53" d="M 288 1472 
L 859 1522 
Q 900 1178 1048 958 
Q 1197 738 1509 602 
Q 1822 466 2213 466 
Q 2559 466 2825 569 
Q 3091 672 3220 851 
Q 3350 1031 3350 1244 
Q 3350 1459 3225 1620 
Q 3100 1781 2813 1891 
Q 2628 1963 1997 2114 
Q 1366 2266 1113 2400 
Q 784 2572 623 2826 
Q 463 3081 463 3397 
Q 463 3744 659 4045 
Q 856 4347 1234 4503 
Q 1613 4659 2075 4659 
Q 2584 4659 2973 4495 
Q 3363 4331 3572 4012 
Q 3781 3694 3797 3291 
L 3216 3247 
Q 3169 3681 2898 3903 
Q 2628 4125 2100 4125 
Q 1550 4125 1298 3923 
Q 1047 3722 1047 3438 
Q 1047 3191 1225 3031 
Q 1400 2872 2139 2705 
Q 2878 2538 3153 2413 
Q 3553 2228 3743 1945 
Q 3934 1663 3934 1294 
Q 3934 928 3725 604 
Q 3516 281 3123 101 
Q 2731 -78 2241 -78 
Q 1619 -78 1198 103 
Q 778 284 539 648 
Q 300 1013 288 1472 
z
" transform="scale(0.015625)"/>
     </defs>
     <use xlink:href="#ArialMT-28"/>
     <use xlink:href="#ArialMT-41" transform="translate(33.300781 0)"/>
     <use xlink:href="#ArialMT-29" transform="translate(100 0)"/>
     <use xlink:href="#ArialMT-20" transform="translate(133.300781 0)"/>
     <use xlink:href="#ArialMT-4f" transform="translate(161.083984 0)"/>
     <use xlink:href="#ArialMT-76" transform="translate(238.867188 0)"/>
     <use xlink:href="#ArialMT-65" transform="translate(288.867188 0)"/>
     <use xlink:href="#ArialMT-72" transform="translate(344.482422 0)"/>
     <use xlink:href="#ArialMT-61" transform="translate(377.783203 0)"/>
     <use xlink:href="#ArialMT-6c" transform="translate(433.398438 0)"/>
     <use xlink:href="#ArialMT-6c" transform="translate(455.615234 0)"/>
     <use xlink:href="#ArialMT-20" transform="translate(477.832031 0)"/>
     <use xlink:href="#ArialMT-4e" transform="translate(505.615234 0)"/>
     <use xlink:href="#ArialMT-53" transform="translate(577.832031 0)"/>
     <use xlink:href="#ArialMT-45" transform="translate(644.53125 0)"/>
    </g>
   </g>
  </g>
  <g id="axes_2">
   <g id="patch_13">
    <path d="M 470.811547 232.574688 
L 831.742547 232.574688 
L 831.742547 26.314687 
L 470.811547 26.314687 
z
" style="fill: #ffffff"/>
   </g>
   <g id="matplotlib.axis_3">
    <g id="xtick_3">
     <g id="text_10">
      <!-- N-Retention -->
      <g style="fill: #262626" transform="translate(517.025391 253.885078) scale(0.165 -0.165)">
       <use xlink:href="#ArialMT-4e"/>
       <use xlink:href="#ArialMT-2d" transform="translate(72.216797 0)"/>
       <use xlink:href="#ArialMT-52" transform="translate(105.517578 0)"/>
       <use xlink:href="#ArialMT-65" transform="translate(177.734375 0)"/>
       <use xlink:href="#ArialMT-74" transform="translate(233.349609 0)"/>
       <use xlink:href="#ArialMT-65" transform="translate(261.132812 0)"/>
       <use xlink:href="#ArialMT-6e" transform="translate(316.748047 0)"/>
       <use xlink:href="#ArialMT-74" transform="translate(372.363281 0)"/>
       <use xlink:href="#ArialMT-69" transform="translate(400.146484 0)"/>
       <use xlink:href="#ArialMT-6f" transform="translate(422.363281 0)"/>
       <use xlink:href="#ArialMT-6e" transform="translate(477.978516 0)"/>
      </g>
     </g>
    </g>
    <g id="xtick_4">
     <g id="text_11">
      <!-- Flexible CUE -->
      <g style="fill: #262626" transform="translate(693.372336 253.885078) scale(0.165 -0.165)">
       <use xlink:href="#ArialMT-46"/>
       <use xlink:href="#ArialMT-6c" transform="translate(61.083984 0)"/>
       <use xlink:href="#ArialMT-65" transform="translate(83.300781 0)"/>
       <use xlink:href="#ArialMT-78" transform="translate(138.916016 0)"/>
       <use xlink:href="#ArialMT-69" transform="translate(188.916016 0)"/>
       <use xlink:href="#ArialMT-62" transform="translate(211.132812 0)"/>
       <use xlink:href="#ArialMT-6c" transform="translate(266.748047 0)"/>
       <use xlink:href="#ArialMT-65" transform="translate(288.964844 0)"/>
       <use xlink:href="#ArialMT-20" transform="translate(344.580078 0)"/>
       <use xlink:href="#ArialMT-43" transform="translate(372.363281 0)"/>
       <use xlink:href="#ArialMT-55" transform="translate(444.580078 0)"/>
       <use xlink:href="#ArialMT-45" transform="translate(516.796875 0)"/>
      </g>
     </g>
    </g>
   </g>
   <g id="matplotlib.axis_4">
    <g id="ytick_7">
     <g id="line2d_55">
      <path d="M 470.811547 178.807568 
L 831.742547 178.807568 
" clip-path="url(#pd3c79fd5a1)" style="fill: none; stroke: #cccccc; stroke-linecap: round"/>
     </g>
     <g id="text_12">
      <!-- 0.01 -->
      <g style="fill: #262626" transform="translate(429.201 184.712764) scale(0.165 -0.165)">
       <use xlink:href="#ArialMT-30"/>
       <use xlink:href="#ArialMT-2e" transform="translate(55.615234 0)"/>
       <use xlink:href="#ArialMT-30" transform="translate(83.398438 0)"/>
       <use xlink:href="#ArialMT-31" transform="translate(139.013672 0)"/>
      </g>
     </g>
    </g>
    <g id="ytick_8">
     <g id="line2d_56">
      <path d="M 470.811547 118.607375 
L 831.742547 118.607375 
" clip-path="url(#pd3c79fd5a1)" style="fill: none; stroke: #cccccc; stroke-linecap: round"/>
     </g>
     <g id="text_13">
      <!-- 0.02 -->
      <g style="fill: #262626" transform="translate(429.201 124.51257) scale(0.165 -0.165)">
       <defs>
        <path id="ArialMT-32" d="M 3222 541 
L 3222 0 
L 194 0 
Q 188 203 259 391 
Q 375 700 629 1000 
Q 884 1300 1366 1694 
Q 2113 2306 2375 2664 
Q 2638 3022 2638 3341 
Q 2638 3675 2398 3904 
Q 2159 4134 1775 4134 
Q 1369 4134 1125 3890 
Q 881 3647 878 3216 
L 300 3275 
Q 359 3922 746 4261 
Q 1134 4600 1788 4600 
Q 2447 4600 2831 4234 
Q 3216 3869 3216 3328 
Q 3216 3053 3103 2787 
Q 2991 2522 2730 2228 
Q 2469 1934 1863 1422 
Q 1356 997 1212 845 
Q 1069 694 975 541 
L 3222 541 
z
" transform="scale(0.015625)"/>
       </defs>
       <use xlink:href="#ArialMT-30"/>
       <use xlink:href="#ArialMT-2e" transform="translate(55.615234 0)"/>
       <use xlink:href="#ArialMT-30" transform="translate(83.398438 0)"/>
       <use xlink:href="#ArialMT-32" transform="translate(139.013672 0)"/>
      </g>
     </g>
    </g>
    <g id="ytick_9">
     <g id="line2d_57">
      <path d="M 470.811547 58.407182 
L 831.742547 58.407182 
" clip-path="url(#pd3c79fd5a1)" style="fill: none; stroke: #cccccc; stroke-linecap: round"/>
     </g>
     <g id="text_14">
      <!-- 0.03 -->
      <g style="fill: #262626" transform="translate(429.201 64.312377) scale(0.165 -0.165)">
       <defs>
        <path id="ArialMT-33" d="M 269 1209 
L 831 1284 
Q 928 806 1161 595 
Q 1394 384 1728 384 
Q 2125 384 2398 659 
Q 2672 934 2672 1341 
Q 2672 1728 2419 1979 
Q 2166 2231 1775 2231 
Q 1616 2231 1378 2169 
L 1441 2663 
Q 1497 2656 1531 2656 
Q 1891 2656 2178 2843 
Q 2466 3031 2466 3422 
Q 2466 3731 2256 3934 
Q 2047 4138 1716 4138 
Q 1388 4138 1169 3931 
Q 950 3725 888 3313 
L 325 3413 
Q 428 3978 793 4289 
Q 1159 4600 1703 4600 
Q 2078 4600 2393 4439 
Q 2709 4278 2876 4000 
Q 3044 3722 3044 3409 
Q 3044 3113 2884 2869 
Q 2725 2625 2413 2481 
Q 2819 2388 3044 2092 
Q 3269 1797 3269 1353 
Q 3269 753 2831 336 
Q 2394 -81 1725 -81 
Q 1122 -81 723 278 
Q 325 638 269 1209 
z
" transform="scale(0.015625)"/>
       </defs>
       <use xlink:href="#ArialMT-30"/>
       <use xlink:href="#ArialMT-2e" transform="translate(55.615234 0)"/>
       <use xlink:href="#ArialMT-30" transform="translate(83.398438 0)"/>
       <use xlink:href="#ArialMT-33" transform="translate(139.013672 0)"/>
      </g>
     </g>
    </g>
   </g>
   <g id="patch_14">
    <path d="M 561.044297 239.007762 
L 561.044297 239.007762 
L 561.044297 239.007762 
L 561.044297 239.007762 
z
" clip-path="url(#pd3c79fd5a1)" style="fill: #5875a4; stroke: #4c4c4c; stroke-width: 0.5; stroke-linejoin: miter"/>
   </g>
   <g id="patch_15">
    <path d="M 561.044297 239.007762 
L 561.044297 239.007762 
L 561.044297 239.007762 
L 561.044297 239.007762 
z
" clip-path="url(#pd3c79fd5a1)" style="fill: #cc8963; stroke: #4c4c4c; stroke-width: 0.5; stroke-linejoin: miter"/>
   </g>
   <g id="patch_16">
    <path d="M 561.044297 239.007762 
L 561.044297 239.007762 
L 561.044297 239.007762 
L 561.044297 239.007762 
z
" clip-path="url(#pd3c79fd5a1)" style="fill: #5f9e6e; stroke: #4c4c4c; stroke-width: 0.5; stroke-linejoin: miter"/>
   </g>
   <g id="patch_17">
    <path d="M 561.044297 239.007762 
L 561.044297 239.007762 
L 561.044297 239.007762 
L 561.044297 239.007762 
z
" clip-path="url(#pd3c79fd5a1)" style="fill: #b55d60; stroke: #4c4c4c; stroke-width: 0.5; stroke-linejoin: miter"/>
   </g>
   <g id="patch_18">
    <path d="M 501.829055 196.232539 
L 525.515152 196.232539 
L 525.515152 160.363138 
L 501.829055 160.363138 
L 501.829055 196.232539 
z
" clip-path="url(#pd3c79fd5a1)" style="fill: #5875a4; stroke: #4c4c4c; stroke-width: 0.5; stroke-linejoin: miter"/>
   </g>
   <g id="line2d_58">
    <path d="M 513.672103 196.232539 
L 513.672103 220.386399 
" clip-path="url(#pd3c79fd5a1)" style="fill: none; stroke: #4c4c4c; stroke-width: 0.5"/>
   </g>
   <g id="line2d_59">
    <path d="M 513.672103 160.363138 
L 513.672103 106.694045 
" clip-path="url(#pd3c79fd5a1)" style="fill: none; stroke: #4c4c4c; stroke-width: 0.5"/>
   </g>
   <g id="line2d_60">
    <path d="M 507.750579 220.386399 
L 519.593627 220.386399 
" clip-path="url(#pd3c79fd5a1)" style="fill: none; stroke: #4c4c4c; stroke-width: 0.5; stroke-linecap: round"/>
   </g>
   <g id="line2d_61">
    <path d="M 507.750579 106.694045 
L 519.593627 106.694045 
" clip-path="url(#pd3c79fd5a1)" style="fill: none; stroke: #4c4c4c; stroke-width: 0.5; stroke-linecap: round"/>
   </g>
   <g id="line2d_62">
    <g clip-path="url(#pd3c79fd5a1)">
     <use xlink:href="#mfd8e2787ba" x="513.672103" y="89.367342" style="fill-opacity: 0; stroke: #4c4c4c"/>
     <use xlink:href="#mfd8e2787ba" x="513.672103" y="105.927101" style="fill-opacity: 0; stroke: #4c4c4c"/>
     <use xlink:href="#mfd8e2787ba" x="513.672103" y="100.649942" style="fill-opacity: 0; stroke: #4c4c4c"/>
     <use xlink:href="#mfd8e2787ba" x="513.672103" y="81.095436" style="fill-opacity: 0; stroke: #4c4c4c"/>
     <use xlink:href="#mfd8e2787ba" x="513.672103" y="97.144688" style="fill-opacity: 0; stroke: #4c4c4c"/>
     <use xlink:href="#mfd8e2787ba" x="513.672103" y="53.713516" style="fill-opacity: 0; stroke: #4c4c4c"/>
     <use xlink:href="#mfd8e2787ba" x="513.672103" y="80.037185" style="fill-opacity: 0; stroke: #4c4c4c"/>
    </g>
   </g>
   <g id="patch_19">
    <path d="M 682.294555 199.493995 
L 705.980652 199.493995 
L 705.980652 169.942116 
L 682.294555 169.942116 
L 682.294555 199.493995 
z
" clip-path="url(#pd3c79fd5a1)" style="fill: #5875a4; stroke: #4c4c4c; stroke-width: 0.5; stroke-linejoin: miter"/>
   </g>
   <g id="line2d_63">
    <path d="M 694.137603 199.493995 
L 694.137603 222.009275 
" clip-path="url(#pd3c79fd5a1)" style="fill: none; stroke: #4c4c4c; stroke-width: 0.5"/>
   </g>
   <g id="line2d_64">
    <path d="M 694.137603 169.942116 
L 694.137603 128.923461 
" clip-path="url(#pd3c79fd5a1)" style="fill: none; stroke: #4c4c4c; stroke-width: 0.5"/>
   </g>
   <g id="line2d_65">
    <path d="M 688.216079 222.009275 
L 700.059127 222.009275 
" clip-path="url(#pd3c79fd5a1)" style="fill: none; stroke: #4c4c4c; stroke-width: 0.5; stroke-linecap: round"/>
   </g>
   <g id="line2d_66">
    <path d="M 688.216079 128.923461 
L 700.059127 128.923461 
" clip-path="url(#pd3c79fd5a1)" style="fill: none; stroke: #4c4c4c; stroke-width: 0.5; stroke-linecap: round"/>
   </g>
   <g id="line2d_67">
    <g clip-path="url(#pd3c79fd5a1)">
     <use xlink:href="#mfd8e2787ba" x="694.137603" y="81.284092" style="fill-opacity: 0; stroke: #4c4c4c"/>
     <use xlink:href="#mfd8e2787ba" x="694.137603" y="107.836662" style="fill-opacity: 0; stroke: #4c4c4c"/>
     <use xlink:href="#mfd8e2787ba" x="694.137603" y="105.927101" style="fill-opacity: 0; stroke: #4c4c4c"/>
     <use xlink:href="#mfd8e2787ba" x="694.137603" y="100.266057" style="fill-opacity: 0; stroke: #4c4c4c"/>
     <use xlink:href="#mfd8e2787ba" x="694.137603" y="118.816876" style="fill-opacity: 0; stroke: #4c4c4c"/>
     <use xlink:href="#mfd8e2787ba" x="694.137603" y="81.095436" style="fill-opacity: 0; stroke: #4c4c4c"/>
     <use xlink:href="#mfd8e2787ba" x="694.137603" y="97.162601" style="fill-opacity: 0; stroke: #4c4c4c"/>
     <use xlink:href="#mfd8e2787ba" x="694.137603" y="53.713939" style="fill-opacity: 0; stroke: #4c4c4c"/>
     <use xlink:href="#mfd8e2787ba" x="694.137603" y="117.238942" style="fill-opacity: 0; stroke: #4c4c4c"/>
     <use xlink:href="#mfd8e2787ba" x="694.137603" y="120.801506" style="fill-opacity: 0; stroke: #4c4c4c"/>
    </g>
   </g>
   <g id="patch_20">
    <path d="M 533.410517 194.315862 
L 557.096614 194.315862 
L 557.096614 156.142325 
L 533.410517 156.142325 
L 533.410517 194.315862 
z
" clip-path="url(#pd3c79fd5a1)" style="fill: #cc8963; stroke: #4c4c4c; stroke-width: 0.5; stroke-linejoin: miter"/>
   </g>
   <g id="line2d_68">
    <path d="M 545.253566 194.315862 
L 545.253566 219.884215 
" clip-path="url(#pd3c79fd5a1)" style="fill: none; stroke: #4c4c4c; stroke-width: 0.5"/>
   </g>
   <g id="line2d_69">
    <path d="M 545.253566 156.142325 
L 545.253566 101.388877 
" clip-path="url(#pd3c79fd5a1)" style="fill: none; stroke: #4c4c4c; stroke-width: 0.5"/>
   </g>
   <g id="line2d_70">
    <path d="M 539.332041 219.884215 
L 551.17509 219.884215 
" clip-path="url(#pd3c79fd5a1)" style="fill: none; stroke: #4c4c4c; stroke-width: 0.5; stroke-linecap: round"/>
   </g>
   <g id="line2d_71">
    <path d="M 539.332041 101.388877 
L 551.17509 101.388877 
" clip-path="url(#pd3c79fd5a1)" style="fill: none; stroke: #4c4c4c; stroke-width: 0.5; stroke-linecap: round"/>
   </g>
   <g id="line2d_72">
    <g clip-path="url(#pd3c79fd5a1)">
     <use xlink:href="#mfd8e2787ba" x="545.253566" y="66.598557" style="fill-opacity: 0; stroke: #4c4c4c"/>
     <use xlink:href="#mfd8e2787ba" x="545.253566" y="61.033994" style="fill-opacity: 0; stroke: #4c4c4c"/>
     <use xlink:href="#mfd8e2787ba" x="545.253566" y="37.653144" style="fill-opacity: 0; stroke: #4c4c4c"/>
     <use xlink:href="#mfd8e2787ba" x="545.253566" y="89.232192" style="fill-opacity: 0; stroke: #4c4c4c"/>
     <use xlink:href="#mfd8e2787ba" x="545.253566" y="89.27455" style="fill-opacity: 0; stroke: #4c4c4c"/>
     <use xlink:href="#mfd8e2787ba" x="545.253566" y="74.462091" style="fill-opacity: 0; stroke: #4c4c4c"/>
     <use xlink:href="#mfd8e2787ba" x="545.253566" y="70.618912" style="fill-opacity: 0; stroke: #4c4c4c"/>
     <use xlink:href="#mfd8e2787ba" x="545.253566" y="35.690142" style="fill-opacity: 0; stroke: #4c4c4c"/>
     <use xlink:href="#mfd8e2787ba" x="545.253566" y="77.591752" style="fill-opacity: 0; stroke: #4c4c4c"/>
     <use xlink:href="#mfd8e2787ba" x="545.253566" y="97.699763" style="fill-opacity: 0; stroke: #4c4c4c"/>
    </g>
   </g>
   <g id="patch_21">
    <path d="M 713.876017 195.819976 
L 737.562114 195.819976 
L 737.562114 159.457113 
L 713.876017 159.457113 
L 713.876017 195.819976 
z
" clip-path="url(#pd3c79fd5a1)" style="fill: #cc8963; stroke: #4c4c4c; stroke-width: 0.5; stroke-linejoin: miter"/>
   </g>
   <g id="line2d_73">
    <path d="M 725.719066 195.819976 
L 725.719066 221.951212 
" clip-path="url(#pd3c79fd5a1)" style="fill: none; stroke: #4c4c4c; stroke-width: 0.5"/>
   </g>
   <g id="line2d_74">
    <path d="M 725.719066 159.457113 
L 725.719066 109.634131 
" clip-path="url(#pd3c79fd5a1)" style="fill: none; stroke: #4c4c4c; stroke-width: 0.5"/>
   </g>
   <g id="line2d_75">
    <path d="M 719.797541 221.951212 
L 731.64059 221.951212 
" clip-path="url(#pd3c79fd5a1)" style="fill: none; stroke: #4c4c4c; stroke-width: 0.5; stroke-linecap: round"/>
   </g>
   <g id="line2d_76">
    <path d="M 719.797541 109.634131 
L 731.64059 109.634131 
" clip-path="url(#pd3c79fd5a1)" style="fill: none; stroke: #4c4c4c; stroke-width: 0.5; stroke-linecap: round"/>
   </g>
   <g id="line2d_77">
    <g clip-path="url(#pd3c79fd5a1)">
     <use xlink:href="#mfd8e2787ba" x="725.719066" y="84.413851" style="fill-opacity: 0; stroke: #4c4c4c"/>
     <use xlink:href="#mfd8e2787ba" x="725.719066" y="101.388877" style="fill-opacity: 0; stroke: #4c4c4c"/>
     <use xlink:href="#mfd8e2787ba" x="725.719066" y="89.232399" style="fill-opacity: 0; stroke: #4c4c4c"/>
     <use xlink:href="#mfd8e2787ba" x="725.719066" y="89.27455" style="fill-opacity: 0; stroke: #4c4c4c"/>
     <use xlink:href="#mfd8e2787ba" x="725.719066" y="74.462091" style="fill-opacity: 0; stroke: #4c4c4c"/>
     <use xlink:href="#mfd8e2787ba" x="725.719066" y="70.618912" style="fill-opacity: 0; stroke: #4c4c4c"/>
     <use xlink:href="#mfd8e2787ba" x="725.719066" y="35.690142" style="fill-opacity: 0; stroke: #4c4c4c"/>
     <use xlink:href="#mfd8e2787ba" x="725.719066" y="81.934454" style="fill-opacity: 0; stroke: #4c4c4c"/>
     <use xlink:href="#mfd8e2787ba" x="725.719066" y="97.70021" style="fill-opacity: 0; stroke: #4c4c4c"/>
    </g>
   </g>
   <g id="patch_22">
    <path d="M 564.99198 196.678956 
L 588.678077 196.678956 
L 588.678077 157.208582 
L 564.99198 157.208582 
L 564.99198 196.678956 
z
" clip-path="url(#pd3c79fd5a1)" style="fill: #5f9e6e; stroke: #4c4c4c; stroke-width: 0.5; stroke-linejoin: miter"/>
   </g>
   <g id="line2d_78">
    <path d="M 576.835028 196.678956 
L 576.835028 221.354086 
" clip-path="url(#pd3c79fd5a1)" style="fill: none; stroke: #4c4c4c; stroke-width: 0.5"/>
   </g>
   <g id="line2d_79">
    <path d="M 576.835028 157.208582 
L 576.835028 100.34779 
" clip-path="url(#pd3c79fd5a1)" style="fill: none; stroke: #4c4c4c; stroke-width: 0.5"/>
   </g>
   <g id="line2d_80">
    <path d="M 570.913504 221.354086 
L 582.756552 221.354086 
" clip-path="url(#pd3c79fd5a1)" style="fill: none; stroke: #4c4c4c; stroke-width: 0.5; stroke-linecap: round"/>
   </g>
   <g id="line2d_81">
    <path d="M 570.913504 100.34779 
L 582.756552 100.34779 
" clip-path="url(#pd3c79fd5a1)" style="fill: none; stroke: #4c4c4c; stroke-width: 0.5; stroke-linecap: round"/>
   </g>
   <g id="line2d_82">
    <g clip-path="url(#pd3c79fd5a1)">
     <use xlink:href="#mfd8e2787ba" x="576.835028" y="46.7969" style="fill-opacity: 0; stroke: #4c4c4c"/>
     <use xlink:href="#mfd8e2787ba" x="576.835028" y="89.422059" style="fill-opacity: 0; stroke: #4c4c4c"/>
     <use xlink:href="#mfd8e2787ba" x="576.835028" y="71.2379" style="fill-opacity: 0; stroke: #4c4c4c"/>
     <use xlink:href="#mfd8e2787ba" x="576.835028" y="47.897102" style="fill-opacity: 0; stroke: #4c4c4c"/>
     <use xlink:href="#mfd8e2787ba" x="576.835028" y="84.378114" style="fill-opacity: 0; stroke: #4c4c4c"/>
    </g>
   </g>
   <g id="patch_23">
    <path d="M 745.45748 196.463652 
L 769.143577 196.463652 
L 769.143577 159.420166 
L 745.45748 159.420166 
L 745.45748 196.463652 
z
" clip-path="url(#pd3c79fd5a1)" style="fill: #5f9e6e; stroke: #4c4c4c; stroke-width: 0.5; stroke-linejoin: miter"/>
   </g>
   <g id="line2d_83">
    <path d="M 757.300528 196.463652 
L 757.300528 222.686622 
" clip-path="url(#pd3c79fd5a1)" style="fill: none; stroke: #4c4c4c; stroke-width: 0.5"/>
   </g>
   <g id="line2d_84">
    <path d="M 757.300528 159.420166 
L 757.300528 103.864344 
" clip-path="url(#pd3c79fd5a1)" style="fill: none; stroke: #4c4c4c; stroke-width: 0.5"/>
   </g>
   <g id="line2d_85">
    <path d="M 751.379004 222.686622 
L 763.222052 222.686622 
" clip-path="url(#pd3c79fd5a1)" style="fill: none; stroke: #4c4c4c; stroke-width: 0.5; stroke-linecap: round"/>
   </g>
   <g id="line2d_86">
    <path d="M 751.379004 103.864344 
L 763.222052 103.864344 
" clip-path="url(#pd3c79fd5a1)" style="fill: none; stroke: #4c4c4c; stroke-width: 0.5; stroke-linecap: round"/>
   </g>
   <g id="line2d_87">
    <g clip-path="url(#pd3c79fd5a1)">
     <use xlink:href="#mfd8e2787ba" x="757.300528" y="101.901722" style="fill-opacity: 0; stroke: #4c4c4c"/>
     <use xlink:href="#mfd8e2787ba" x="757.300528" y="89.422067" style="fill-opacity: 0; stroke: #4c4c4c"/>
     <use xlink:href="#mfd8e2787ba" x="757.300528" y="71.235961" style="fill-opacity: 0; stroke: #4c4c4c"/>
     <use xlink:href="#mfd8e2787ba" x="757.300528" y="47.898203" style="fill-opacity: 0; stroke: #4c4c4c"/>
     <use xlink:href="#mfd8e2787ba" x="757.300528" y="101.369777" style="fill-opacity: 0; stroke: #4c4c4c"/>
     <use xlink:href="#mfd8e2787ba" x="757.300528" y="81.042203" style="fill-opacity: 0; stroke: #4c4c4c"/>
    </g>
   </g>
   <g id="patch_24">
    <path d="M 596.573442 197.855832 
L 620.259539 197.855832 
L 620.259539 158.289891 
L 596.573442 158.289891 
L 596.573442 197.855832 
z
" clip-path="url(#pd3c79fd5a1)" style="fill: #b55d60; stroke: #4c4c4c; stroke-width: 0.5; stroke-linejoin: miter"/>
   </g>
   <g id="line2d_88">
    <path d="M 608.416491 197.855832 
L 608.416491 221.945735 
" clip-path="url(#pd3c79fd5a1)" style="fill: none; stroke: #4c4c4c; stroke-width: 0.5"/>
   </g>
   <g id="line2d_89">
    <path d="M 608.416491 158.289891 
L 608.416491 100.210439 
" clip-path="url(#pd3c79fd5a1)" style="fill: none; stroke: #4c4c4c; stroke-width: 0.5"/>
   </g>
   <g id="line2d_90">
    <path d="M 602.494966 221.945735 
L 614.338015 221.945735 
" clip-path="url(#pd3c79fd5a1)" style="fill: none; stroke: #4c4c4c; stroke-width: 0.5; stroke-linecap: round"/>
   </g>
   <g id="line2d_91">
    <path d="M 602.494966 100.210439 
L 614.338015 100.210439 
" clip-path="url(#pd3c79fd5a1)" style="fill: none; stroke: #4c4c4c; stroke-width: 0.5; stroke-linecap: round"/>
   </g>
   <g id="line2d_92">
    <g clip-path="url(#pd3c79fd5a1)">
     <use xlink:href="#mfd8e2787ba" x="608.416491" y="64.29103" style="fill-opacity: 0; stroke: #4c4c4c"/>
     <use xlink:href="#mfd8e2787ba" x="608.416491" y="86.925984" style="fill-opacity: 0; stroke: #4c4c4c"/>
     <use xlink:href="#mfd8e2787ba" x="608.416491" y="76.836303" style="fill-opacity: 0; stroke: #4c4c4c"/>
     <use xlink:href="#mfd8e2787ba" x="608.416491" y="59.213886" style="fill-opacity: 0; stroke: #4c4c4c"/>
     <use xlink:href="#mfd8e2787ba" x="608.416491" y="94.021965" style="fill-opacity: 0; stroke: #4c4c4c"/>
     <use xlink:href="#mfd8e2787ba" x="608.416491" y="90.942209" style="fill-opacity: 0; stroke: #4c4c4c"/>
    </g>
   </g>
   <g id="patch_25">
    <path d="M 777.038942 197.855832 
L 800.725039 197.855832 
L 800.725039 158.288019 
L 777.038942 158.288019 
L 777.038942 197.855832 
z
" clip-path="url(#pd3c79fd5a1)" style="fill: #b55d60; stroke: #4c4c4c; stroke-width: 0.5; stroke-linejoin: miter"/>
   </g>
   <g id="line2d_93">
    <path d="M 788.881991 197.855832 
L 788.881991 223.199233 
" clip-path="url(#pd3c79fd5a1)" style="fill: none; stroke: #4c4c4c; stroke-width: 0.5"/>
   </g>
   <g id="line2d_94">
    <path d="M 788.881991 158.288019 
L 788.881991 100.210439 
" clip-path="url(#pd3c79fd5a1)" style="fill: none; stroke: #4c4c4c; stroke-width: 0.5"/>
   </g>
   <g id="line2d_95">
    <path d="M 782.960466 223.199233 
L 794.803515 223.199233 
" clip-path="url(#pd3c79fd5a1)" style="fill: none; stroke: #4c4c4c; stroke-width: 0.5; stroke-linecap: round"/>
   </g>
   <g id="line2d_96">
    <path d="M 782.960466 100.210439 
L 794.803515 100.210439 
" clip-path="url(#pd3c79fd5a1)" style="fill: none; stroke: #4c4c4c; stroke-width: 0.5; stroke-linecap: round"/>
   </g>
   <g id="line2d_97">
    <g clip-path="url(#pd3c79fd5a1)">
     <use xlink:href="#mfd8e2787ba" x="788.881991" y="95.557559" style="fill-opacity: 0; stroke: #4c4c4c"/>
     <use xlink:href="#mfd8e2787ba" x="788.881991" y="86.925984" style="fill-opacity: 0; stroke: #4c4c4c"/>
     <use xlink:href="#mfd8e2787ba" x="788.881991" y="76.836303" style="fill-opacity: 0; stroke: #4c4c4c"/>
     <use xlink:href="#mfd8e2787ba" x="788.881991" y="59.213886" style="fill-opacity: 0; stroke: #4c4c4c"/>
     <use xlink:href="#mfd8e2787ba" x="788.881991" y="94.953203" style="fill-opacity: 0; stroke: #4c4c4c"/>
     <use xlink:href="#mfd8e2787ba" x="788.881991" y="90.941925" style="fill-opacity: 0; stroke: #4c4c4c"/>
    </g>
   </g>
   <g id="line2d_98">
    <path d="M 501.829055 180.93221 
L 525.515152 180.93221 
" clip-path="url(#pd3c79fd5a1)" style="fill: none; stroke: #4c4c4c; stroke-width: 0.5"/>
   </g>
   <g id="line2d_99">
    <path d="M 682.294555 182.866771 
L 705.980652 182.866771 
" clip-path="url(#pd3c79fd5a1)" style="fill: none; stroke: #4c4c4c; stroke-width: 0.5"/>
   </g>
   <g id="line2d_100">
    <path d="M 533.410517 175.496368 
L 557.096614 175.496368 
" clip-path="url(#pd3c79fd5a1)" style="fill: none; stroke: #4c4c4c; stroke-width: 0.5"/>
   </g>
   <g id="line2d_101">
    <path d="M 713.876017 178.514545 
L 737.562114 178.514545 
" clip-path="url(#pd3c79fd5a1)" style="fill: none; stroke: #4c4c4c; stroke-width: 0.5"/>
   </g>
   <g id="line2d_102">
    <path d="M 564.99198 180.464394 
L 588.678077 180.464394 
" clip-path="url(#pd3c79fd5a1)" style="fill: none; stroke: #4c4c4c; stroke-width: 0.5"/>
   </g>
   <g id="line2d_103">
    <path d="M 745.45748 180.808734 
L 769.143577 180.808734 
" clip-path="url(#pd3c79fd5a1)" style="fill: none; stroke: #4c4c4c; stroke-width: 0.5"/>
   </g>
   <g id="line2d_104">
    <path d="M 596.573442 179.7551 
L 620.259539 179.7551 
" clip-path="url(#pd3c79fd5a1)" style="fill: none; stroke: #4c4c4c; stroke-width: 0.5"/>
   </g>
   <g id="line2d_105">
    <path d="M 777.038942 180.626823 
L 800.725039 180.626823 
" clip-path="url(#pd3c79fd5a1)" style="fill: none; stroke: #4c4c4c; stroke-width: 0.5"/>
   </g>
   <g id="patch_26">
    <path d="M 470.811547 232.574688 
L 470.811547 26.314687 
" style="fill: none; stroke: #cccccc; stroke-width: 1.25; stroke-linejoin: miter; stroke-linecap: square"/>
   </g>
   <g id="patch_27">
    <path d="M 470.811547 232.574688 
L 831.742547 232.574688 
" style="fill: none; stroke: #cccccc; stroke-width: 1.25; stroke-linejoin: miter; stroke-linecap: square"/>
   </g>
   <g id="text_15">
    <!-- (B) Overall RMSE [gC] -->
    <g style="fill: #262626" transform="translate(560.765172 20.314687) scale(0.18 -0.18)">
     <defs>
      <path id="ArialMT-42" d="M 469 0 
L 469 4581 
L 2188 4581 
Q 2713 4581 3030 4442 
Q 3347 4303 3526 4014 
Q 3706 3725 3706 3409 
Q 3706 3116 3547 2856 
Q 3388 2597 3066 2438 
Q 3481 2316 3704 2022 
Q 3928 1728 3928 1328 
Q 3928 1006 3792 729 
Q 3656 453 3456 303 
Q 3256 153 2954 76 
Q 2653 0 2216 0 
L 469 0 
z
M 1075 2656 
L 2066 2656 
Q 2469 2656 2644 2709 
Q 2875 2778 2992 2937 
Q 3109 3097 3109 3338 
Q 3109 3566 3000 3739 
Q 2891 3913 2687 3977 
Q 2484 4041 1991 4041 
L 1075 4041 
L 1075 2656 
z
M 1075 541 
L 2216 541 
Q 2509 541 2628 563 
Q 2838 600 2978 687 
Q 3119 775 3209 942 
Q 3300 1109 3300 1328 
Q 3300 1584 3169 1773 
Q 3038 1963 2805 2039 
Q 2572 2116 2134 2116 
L 1075 2116 
L 1075 541 
z
" transform="scale(0.015625)"/>
      <path id="ArialMT-4d" d="M 475 0 
L 475 4581 
L 1388 4581 
L 2472 1338 
Q 2622 884 2691 659 
Q 2769 909 2934 1394 
L 4031 4581 
L 4847 4581 
L 4847 0 
L 4263 0 
L 4263 3834 
L 2931 0 
L 2384 0 
L 1059 3900 
L 1059 0 
L 475 0 
z
" transform="scale(0.015625)"/>
      <path id="ArialMT-5b" d="M 434 -1272 
L 434 4581 
L 1675 4581 
L 1675 4116 
L 997 4116 
L 997 -806 
L 1675 -806 
L 1675 -1272 
L 434 -1272 
z
" transform="scale(0.015625)"/>
      <path id="ArialMT-67" d="M 319 -275 
L 866 -356 
Q 900 -609 1056 -725 
Q 1266 -881 1628 -881 
Q 2019 -881 2231 -725 
Q 2444 -569 2519 -288 
Q 2563 -116 2559 434 
Q 2191 0 1641 0 
Q 956 0 581 494 
Q 206 988 206 1678 
Q 206 2153 378 2554 
Q 550 2956 876 3175 
Q 1203 3394 1644 3394 
Q 2231 3394 2613 2919 
L 2613 3319 
L 3131 3319 
L 3131 450 
Q 3131 -325 2973 -648 
Q 2816 -972 2473 -1159 
Q 2131 -1347 1631 -1347 
Q 1038 -1347 672 -1080 
Q 306 -813 319 -275 
z
M 784 1719 
Q 784 1066 1043 766 
Q 1303 466 1694 466 
Q 2081 466 2343 764 
Q 2606 1063 2606 1700 
Q 2606 2309 2336 2618 
Q 2066 2928 1684 2928 
Q 1309 2928 1046 2623 
Q 784 2319 784 1719 
z
" transform="scale(0.015625)"/>
      <path id="ArialMT-5d" d="M 1363 -1272 
L 122 -1272 
L 122 -806 
L 800 -806 
L 800 4116 
L 122 4116 
L 122 4581 
L 1363 4581 
L 1363 -1272 
z
" transform="scale(0.015625)"/>
     </defs>
     <use xlink:href="#ArialMT-28"/>
     <use xlink:href="#ArialMT-42" transform="translate(33.300781 0)"/>
     <use xlink:href="#ArialMT-29" transform="translate(100 0)"/>
     <use xlink:href="#ArialMT-20" transform="translate(133.300781 0)"/>
     <use xlink:href="#ArialMT-4f" transform="translate(161.083984 0)"/>
     <use xlink:href="#ArialMT-76" transform="translate(238.867188 0)"/>
     <use xlink:href="#ArialMT-65" transform="translate(288.867188 0)"/>
     <use xlink:href="#ArialMT-72" transform="translate(344.482422 0)"/>
     <use xlink:href="#ArialMT-61" transform="translate(377.783203 0)"/>
     <use xlink:href="#ArialMT-6c" transform="translate(433.398438 0)"/>
     <use xlink:href="#ArialMT-6c" transform="translate(455.615234 0)"/>
     <use xlink:href="#ArialMT-20" transform="translate(477.832031 0)"/>
     <use xlink:href="#ArialMT-52" transform="translate(505.615234 0)"/>
     <use xlink:href="#ArialMT-4d" transform="translate(577.832031 0)"/>
     <use xlink:href="#ArialMT-53" transform="translate(661.132812 0)"/>
     <use xlink:href="#ArialMT-45" transform="translate(727.832031 0)"/>
     <use xlink:href="#ArialMT-20" transform="translate(794.53125 0)"/>
     <use xlink:href="#ArialMT-5b" transform="translate(822.314453 0)"/>
     <use xlink:href="#ArialMT-67" transform="translate(850.097656 0)"/>
     <use xlink:href="#ArialMT-43" transform="translate(905.712891 0)"/>
     <use xlink:href="#ArialMT-5d" transform="translate(977.929688 0)"/>
    </g>
   </g>
  </g>
  <g id="legend_1">
   <g id="patch_28">
    <path d="M 859.029609 181.874766 
L 962.25 181.874766 
Q 965.55 181.874766 965.55 178.574766 
L 965.55 62.154141 
Q 965.55 58.854141 962.25 58.854141 
L 859.029609 58.854141 
Q 855.729609 58.854141 855.729609 62.154141 
L 855.729609 178.574766 
Q 855.729609 181.874766 859.029609 181.874766 
z
" style="fill: #ffffff; opacity: 0.8; stroke: #cccccc; stroke-linejoin: miter"/>
   </g>
   <g id="text_16">
    <!-- Model -->
    <g style="fill: #262626" transform="translate(886.128867 78.338203) scale(0.18 -0.18)">
     <defs>
      <path id="ArialMT-64" d="M 2575 0 
L 2575 419 
Q 2259 -75 1647 -75 
Q 1250 -75 917 144 
Q 584 363 401 755 
Q 219 1147 219 1656 
Q 219 2153 384 2558 
Q 550 2963 881 3178 
Q 1213 3394 1622 3394 
Q 1922 3394 2156 3267 
Q 2391 3141 2538 2938 
L 2538 4581 
L 3097 4581 
L 3097 0 
L 2575 0 
z
M 797 1656 
Q 797 1019 1065 703 
Q 1334 388 1700 388 
Q 2069 388 2326 689 
Q 2584 991 2584 1609 
Q 2584 2291 2321 2609 
Q 2059 2928 1675 2928 
Q 1300 2928 1048 2622 
Q 797 2316 797 1656 
z
" transform="scale(0.015625)"/>
     </defs>
     <use xlink:href="#ArialMT-4d"/>
     <use xlink:href="#ArialMT-6f" transform="translate(83.300781 0)"/>
     <use xlink:href="#ArialMT-64" transform="translate(138.916016 0)"/>
     <use xlink:href="#ArialMT-65" transform="translate(194.53125 0)"/>
     <use xlink:href="#ArialMT-6c" transform="translate(250.146484 0)"/>
    </g>
   </g>
   <g id="patch_29">
    <path d="M 862.329609 101.976094 
L 895.329609 101.976094 
L 895.329609 90.426094 
L 862.329609 90.426094 
z
" style="fill: #5875a4; stroke: #4c4c4c; stroke-width: 0.5; stroke-linejoin: miter"/>
   </g>
   <g id="text_17">
    <!-- NPNE -->
    <g style="fill: #262626" transform="translate(908.529609 101.976094) scale(0.165 -0.165)">
     <defs>
      <path id="ArialMT-50" d="M 494 0 
L 494 4581 
L 2222 4581 
Q 2678 4581 2919 4538 
Q 3256 4481 3484 4323 
Q 3713 4166 3852 3881 
Q 3991 3597 3991 3256 
Q 3991 2672 3619 2267 
Q 3247 1863 2275 1863 
L 1100 1863 
L 1100 0 
L 494 0 
z
M 1100 2403 
L 2284 2403 
Q 2872 2403 3119 2622 
Q 3366 2841 3366 3238 
Q 3366 3525 3220 3729 
Q 3075 3934 2838 4000 
Q 2684 4041 2272 4041 
L 1100 4041 
L 1100 2403 
z
" transform="scale(0.015625)"/>
     </defs>
     <use xlink:href="#ArialMT-4e"/>
     <use xlink:href="#ArialMT-50" transform="translate(72.216797 0)"/>
     <use xlink:href="#ArialMT-4e" transform="translate(138.916016 0)"/>
     <use xlink:href="#ArialMT-45" transform="translate(211.132812 0)"/>
    </g>
   </g>
   <g id="patch_30">
    <path d="M 862.329609 125.315859 
L 895.329609 125.315859 
L 895.329609 113.765859 
L 862.329609 113.765859 
z
" style="fill: #cc8963; stroke: #4c4c4c; stroke-width: 0.5; stroke-linejoin: miter"/>
   </g>
   <g id="text_18">
    <!-- NPWE -->
    <g style="fill: #262626" transform="translate(908.529609 125.315859) scale(0.165 -0.165)">
     <defs>
      <path id="ArialMT-57" d="M 1294 0 
L 78 4581 
L 700 4581 
L 1397 1578 
Q 1509 1106 1591 641 
Q 1766 1375 1797 1488 
L 2669 4581 
L 3400 4581 
L 4056 2263 
Q 4303 1400 4413 641 
Q 4500 1075 4641 1638 
L 5359 4581 
L 5969 4581 
L 4713 0 
L 4128 0 
L 3163 3491 
Q 3041 3928 3019 4028 
Q 2947 3713 2884 3491 
L 1913 0 
L 1294 0 
z
" transform="scale(0.015625)"/>
     </defs>
     <use xlink:href="#ArialMT-4e"/>
     <use xlink:href="#ArialMT-50" transform="translate(72.216797 0)"/>
     <use xlink:href="#ArialMT-57" transform="translate(138.916016 0)"/>
     <use xlink:href="#ArialMT-45" transform="translate(233.300781 0)"/>
    </g>
   </g>
   <g id="patch_31">
    <path d="M 862.329609 148.655625 
L 895.329609 148.655625 
L 895.329609 137.105625 
L 862.329609 137.105625 
z
" style="fill: #5f9e6e; stroke: #4c4c4c; stroke-width: 0.5; stroke-linejoin: miter"/>
   </g>
   <g id="text_19">
    <!-- PWOE -->
    <g style="fill: #262626" transform="translate(908.529609 148.655625) scale(0.165 -0.165)">
     <use xlink:href="#ArialMT-50"/>
     <use xlink:href="#ArialMT-57" transform="translate(66.699219 0)"/>
     <use xlink:href="#ArialMT-4f" transform="translate(161.083984 0)"/>
     <use xlink:href="#ArialMT-45" transform="translate(238.867188 0)"/>
    </g>
   </g>
   <g id="patch_32">
    <path d="M 862.329609 171.995391 
L 895.329609 171.995391 
L 895.329609 160.445391 
L 862.329609 160.445391 
z
" style="fill: #b55d60; stroke: #4c4c4c; stroke-width: 0.5; stroke-linejoin: miter"/>
   </g>
   <g id="text_20">
    <!-- PWOV -->
    <g style="fill: #262626" transform="translate(908.529609 171.995391) scale(0.165 -0.165)">
     <defs>
      <path id="ArialMT-56" d="M 1803 0 
L 28 4581 
L 684 4581 
L 1875 1253 
Q 2019 853 2116 503 
Q 2222 878 2363 1253 
L 3600 4581 
L 4219 4581 
L 2425 0 
L 1803 0 
z
" transform="scale(0.015625)"/>
     </defs>
     <use xlink:href="#ArialMT-50"/>
     <use xlink:href="#ArialMT-57" transform="translate(66.699219 0)"/>
     <use xlink:href="#ArialMT-4f" transform="translate(161.083984 0)"/>
     <use xlink:href="#ArialMT-56" transform="translate(238.867188 0)"/>
    </g>
   </g>
  </g>
 </g>
 <defs>
  <clipPath id="pe062bf70ed">
   <rect x="48.810547" y="26.314687" width="360.931" height="206.26"/>
  </clipPath>
  <clipPath id="pd3c79fd5a1">
   <rect x="470.811547" y="26.314687" width="360.931" height="206.26"/>
  </clipPath>
 </defs>
</svg>
