<?xml version="1.0" encoding="utf-8" standalone="no"?>
<!DOCTYPE svg PUBLIC "-//W3C//DTD SVG 1.1//EN"
  "http://www.w3.org/Graphics/SVG/1.1/DTD/svg11.dtd">
<svg xmlns:xlink="http://www.w3.org/1999/xlink" width="790.73375pt" height="172.474375pt" viewBox="0 0 790.73375 172.474375" xmlns="http://www.w3.org/2000/svg" version="1.1">
 <metadata>
  <rdf:RDF xmlns:dc="http://purl.org/dc/elements/1.1/" xmlns:cc="http://creativecommons.org/ns#" xmlns:rdf="http://www.w3.org/1999/02/22-rdf-syntax-ns#">
   <cc:Work>
    <dc:type rdf:resource="http://purl.org/dc/dcmitype/StillImage"/>
    <dc:date>2025-06-14T11:54:48.641808</dc:date>
    <dc:format>image/svg+xml</dc:format>
    <dc:creator>
     <cc:Agent>
      <dc:title>Matplotlib v3.10.3, https://matplotlib.org/</dc:title>
     </cc:Agent>
    </dc:creator>
   </cc:Work>
  </rdf:RDF>
 </metadata>
 <defs>
  <style type="text/css">*{stroke-linejoin: round; stroke-linecap: butt}</style>
 </defs>
 <g id="figure_1">
  <g id="patch_1">
   <path d="M 0 172.474375 
L 790.73375 172.474375 
L 790.73375 -0 
L 0 -0 
z
" style="fill: #ffffff"/>
  </g>
  <g id="axes_1">
   <g id="patch_2">
    <path d="M 50.14375 134.918125 
L 188.04875 134.918125 
L 188.04875 22.318125 
L 50.14375 22.318125 
z
" style="fill: #ffffff"/>
   </g>
   <g id="matplotlib.axis_1">
    <g id="xtick_1">
     <g id="line2d_1">
      <defs>
       <path id="mfb53dd25e9" d="M 0 0 
L 0 3.5 
" style="stroke: #000000; stroke-width: 0.8"/>
      </defs>
      <g>
       <use xlink:href="#mfb53dd25e9" x="56.412159" y="134.918125" style="stroke: #000000; stroke-width: 0.8"/>
      </g>
     </g>
     <g id="text_1">
      <!-- 0 -->
      <g transform="translate(53.230909 149.516563) scale(0.1 -0.1)">
       <defs>
        <path id="DejaVuSans-30" d="M 2034 4250 
Q 1547 4250 1301 3770 
Q 1056 3291 1056 2328 
Q 1056 1369 1301 889 
Q 1547 409 2034 409 
Q 2525 409 2770 889 
Q 3016 1369 3016 2328 
Q 3016 3291 2770 3770 
Q 2525 4250 2034 4250 
z
M 2034 4750 
Q 2819 4750 3233 4129 
Q 3647 3509 3647 2328 
Q 3647 1150 3233 529 
Q 2819 -91 2034 -91 
Q 1250 -91 836 529 
Q 422 1150 422 2328 
Q 422 3509 836 4129 
Q 1250 4750 2034 4750 
z
" transform="scale(0.015625)"/>
       </defs>
       <use xlink:href="#DejaVuSans-30"/>
      </g>
     </g>
    </g>
    <g id="xtick_2">
     <g id="line2d_2">
      <g>
       <use xlink:href="#mfb53dd25e9" x="119.09625" y="134.918125" style="stroke: #000000; stroke-width: 0.8"/>
      </g>
     </g>
     <g id="text_2">
      <!-- 1 -->
      <g transform="translate(115.915 149.516563) scale(0.1 -0.1)">
       <defs>
        <path id="DejaVuSans-31" d="M 794 531 
L 1825 531 
L 1825 4091 
L 703 3866 
L 703 4441 
L 1819 4666 
L 2450 4666 
L 2450 531 
L 3481 531 
L 3481 0 
L 794 0 
L 794 531 
z
" transform="scale(0.015625)"/>
       </defs>
       <use xlink:href="#DejaVuSans-31"/>
      </g>
     </g>
    </g>
    <g id="xtick_3">
     <g id="line2d_3">
      <g>
       <use xlink:href="#mfb53dd25e9" x="181.780341" y="134.918125" style="stroke: #000000; stroke-width: 0.8"/>
      </g>
     </g>
     <g id="text_3">
      <!-- 2 -->
      <g transform="translate(178.599091 149.516563) scale(0.1 -0.1)">
       <defs>
        <path id="DejaVuSans-32" d="M 1228 531 
L 3431 531 
L 3431 0 
L 469 0 
L 469 531 
Q 828 903 1448 1529 
Q 2069 2156 2228 2338 
Q 2531 2678 2651 2914 
Q 2772 3150 2772 3378 
Q 2772 3750 2511 3984 
Q 2250 4219 1831 4219 
Q 1534 4219 1204 4116 
Q 875 4013 500 3803 
L 500 4441 
Q 881 4594 1212 4672 
Q 1544 4750 1819 4750 
Q 2544 4750 2975 4387 
Q 3406 4025 3406 3419 
Q 3406 3131 3298 2873 
Q 3191 2616 2906 2266 
Q 2828 2175 2409 1742 
Q 1991 1309 1228 531 
z
" transform="scale(0.015625)"/>
       </defs>
       <use xlink:href="#DejaVuSans-32"/>
      </g>
     </g>
    </g>
    <g id="text_4">
     <!-- Time [Y] -->
     <g transform="translate(98.318125 163.194688) scale(0.1 -0.1)">
      <defs>
       <path id="DejaVuSans-54" d="M -19 4666 
L 3928 4666 
L 3928 4134 
L 2272 4134 
L 2272 0 
L 1638 0 
L 1638 4134 
L -19 4134 
L -19 4666 
z
" transform="scale(0.015625)"/>
       <path id="DejaVuSans-69" d="M 603 3500 
L 1178 3500 
L 1178 0 
L 603 0 
L 603 3500 
z
M 603 4863 
L 1178 4863 
L 1178 4134 
L 603 4134 
L 603 4863 
z
" transform="scale(0.015625)"/>
       <path id="DejaVuSans-6d" d="M 3328 2828 
Q 3544 3216 3844 3400 
Q 4144 3584 4550 3584 
Q 5097 3584 5394 3201 
Q 5691 2819 5691 2113 
L 5691 0 
L 5113 0 
L 5113 2094 
Q 5113 2597 4934 2840 
Q 4756 3084 4391 3084 
Q 3944 3084 3684 2787 
Q 3425 2491 3425 1978 
L 3425 0 
L 2847 0 
L 2847 2094 
Q 2847 2600 2669 2842 
Q 2491 3084 2119 3084 
Q 1678 3084 1418 2786 
Q 1159 2488 1159 1978 
L 1159 0 
L 581 0 
L 581 3500 
L 1159 3500 
L 1159 2956 
Q 1356 3278 1631 3431 
Q 1906 3584 2284 3584 
Q 2666 3584 2933 3390 
Q 3200 3197 3328 2828 
z
" transform="scale(0.015625)"/>
       <path id="DejaVuSans-65" d="M 3597 1894 
L 3597 1613 
L 953 1613 
Q 991 1019 1311 708 
Q 1631 397 2203 397 
Q 2534 397 2845 478 
Q 3156 559 3463 722 
L 3463 178 
Q 3153 47 2828 -22 
Q 2503 -91 2169 -91 
Q 1331 -91 842 396 
Q 353 884 353 1716 
Q 353 2575 817 3079 
Q 1281 3584 2069 3584 
Q 2775 3584 3186 3129 
Q 3597 2675 3597 1894 
z
M 3022 2063 
Q 3016 2534 2758 2815 
Q 2500 3097 2075 3097 
Q 1594 3097 1305 2825 
Q 1016 2553 972 2059 
L 3022 2063 
z
" transform="scale(0.015625)"/>
       <path id="DejaVuSans-20" transform="scale(0.015625)"/>
       <path id="DejaVuSans-5b" d="M 550 4863 
L 1875 4863 
L 1875 4416 
L 1125 4416 
L 1125 -397 
L 1875 -397 
L 1875 -844 
L 550 -844 
L 550 4863 
z
" transform="scale(0.015625)"/>
       <path id="DejaVuSans-59" d="M -13 4666 
L 666 4666 
L 1959 2747 
L 3244 4666 
L 3922 4666 
L 2272 2222 
L 2272 0 
L 1638 0 
L 1638 2222 
L -13 4666 
z
" transform="scale(0.015625)"/>
       <path id="DejaVuSans-5d" d="M 1947 4863 
L 1947 -844 
L 622 -844 
L 622 -397 
L 1369 -397 
L 1369 4416 
L 622 4416 
L 622 4863 
L 1947 4863 
z
" transform="scale(0.015625)"/>
      </defs>
      <use xlink:href="#DejaVuSans-54"/>
      <use xlink:href="#DejaVuSans-69" transform="translate(57.958984 0)"/>
      <use xlink:href="#DejaVuSans-6d" transform="translate(85.742188 0)"/>
      <use xlink:href="#DejaVuSans-65" transform="translate(183.154297 0)"/>
      <use xlink:href="#DejaVuSans-20" transform="translate(244.677734 0)"/>
      <use xlink:href="#DejaVuSans-5b" transform="translate(276.464844 0)"/>
      <use xlink:href="#DejaVuSans-59" transform="translate(315.478516 0)"/>
      <use xlink:href="#DejaVuSans-5d" transform="translate(376.5625 0)"/>
     </g>
    </g>
   </g>
   <g id="matplotlib.axis_2">
    <g id="ytick_1">
     <g id="line2d_4">
      <defs>
       <path id="mce604e6ee2" d="M 0 0 
L -3.5 0 
" style="stroke: #000000; stroke-width: 0.8"/>
      </defs>
      <g>
       <use xlink:href="#mce604e6ee2" x="50.14375" y="130.190113" style="stroke: #000000; stroke-width: 0.8"/>
      </g>
     </g>
     <g id="text_5">
      <!-- 0.00 -->
      <g transform="translate(20.878125 133.989331) scale(0.1 -0.1)">
       <defs>
        <path id="DejaVuSans-2e" d="M 684 794 
L 1344 794 
L 1344 0 
L 684 0 
L 684 794 
z
" transform="scale(0.015625)"/>
       </defs>
       <use xlink:href="#DejaVuSans-30"/>
       <use xlink:href="#DejaVuSans-2e" transform="translate(63.623047 0)"/>
       <use xlink:href="#DejaVuSans-30" transform="translate(95.410156 0)"/>
       <use xlink:href="#DejaVuSans-30" transform="translate(159.033203 0)"/>
      </g>
     </g>
    </g>
    <g id="ytick_2">
     <g id="line2d_5">
      <g>
       <use xlink:href="#mce604e6ee2" x="50.14375" y="104.501661" style="stroke: #000000; stroke-width: 0.8"/>
      </g>
     </g>
     <g id="text_6">
      <!-- 0.25 -->
      <g transform="translate(20.878125 108.30088) scale(0.1 -0.1)">
       <defs>
        <path id="DejaVuSans-35" d="M 691 4666 
L 3169 4666 
L 3169 4134 
L 1269 4134 
L 1269 2991 
Q 1406 3038 1543 3061 
Q 1681 3084 1819 3084 
Q 2600 3084 3056 2656 
Q 3513 2228 3513 1497 
Q 3513 744 3044 326 
Q 2575 -91 1722 -91 
Q 1428 -91 1123 -41 
Q 819 9 494 109 
L 494 744 
Q 775 591 1075 516 
Q 1375 441 1709 441 
Q 2250 441 2565 725 
Q 2881 1009 2881 1497 
Q 2881 1984 2565 2268 
Q 2250 2553 1709 2553 
Q 1456 2553 1204 2497 
Q 953 2441 691 2322 
L 691 4666 
z
" transform="scale(0.015625)"/>
       </defs>
       <use xlink:href="#DejaVuSans-30"/>
       <use xlink:href="#DejaVuSans-2e" transform="translate(63.623047 0)"/>
       <use xlink:href="#DejaVuSans-32" transform="translate(95.410156 0)"/>
       <use xlink:href="#DejaVuSans-35" transform="translate(159.033203 0)"/>
      </g>
     </g>
    </g>
    <g id="ytick_3">
     <g id="line2d_6">
      <g>
       <use xlink:href="#mce604e6ee2" x="50.14375" y="78.81321" style="stroke: #000000; stroke-width: 0.8"/>
      </g>
     </g>
     <g id="text_7">
      <!-- 0.50 -->
      <g transform="translate(20.878125 82.612428) scale(0.1 -0.1)">
       <use xlink:href="#DejaVuSans-30"/>
       <use xlink:href="#DejaVuSans-2e" transform="translate(63.623047 0)"/>
       <use xlink:href="#DejaVuSans-35" transform="translate(95.410156 0)"/>
       <use xlink:href="#DejaVuSans-30" transform="translate(159.033203 0)"/>
      </g>
     </g>
    </g>
    <g id="ytick_4">
     <g id="line2d_7">
      <g>
       <use xlink:href="#mce604e6ee2" x="50.14375" y="53.124758" style="stroke: #000000; stroke-width: 0.8"/>
      </g>
     </g>
     <g id="text_8">
      <!-- 0.75 -->
      <g transform="translate(20.878125 56.923977) scale(0.1 -0.1)">
       <defs>
        <path id="DejaVuSans-37" d="M 525 4666 
L 3525 4666 
L 3525 4397 
L 1831 0 
L 1172 0 
L 2766 4134 
L 525 4134 
L 525 4666 
z
" transform="scale(0.015625)"/>
       </defs>
       <use xlink:href="#DejaVuSans-30"/>
       <use xlink:href="#DejaVuSans-2e" transform="translate(63.623047 0)"/>
       <use xlink:href="#DejaVuSans-37" transform="translate(95.410156 0)"/>
       <use xlink:href="#DejaVuSans-35" transform="translate(159.033203 0)"/>
      </g>
     </g>
    </g>
    <g id="ytick_5">
     <g id="line2d_8">
      <g>
       <use xlink:href="#mce604e6ee2" x="50.14375" y="27.436307" style="stroke: #000000; stroke-width: 0.8"/>
      </g>
     </g>
     <g id="text_9">
      <!-- 1.00 -->
      <g transform="translate(20.878125 31.235526) scale(0.1 -0.1)">
       <use xlink:href="#DejaVuSans-31"/>
       <use xlink:href="#DejaVuSans-2e" transform="translate(63.623047 0)"/>
       <use xlink:href="#DejaVuSans-30" transform="translate(95.410156 0)"/>
       <use xlink:href="#DejaVuSans-30" transform="translate(159.033203 0)"/>
      </g>
     </g>
    </g>
    <g id="text_10">
     <!-- total C [g] -->
     <g transform="translate(14.798438 103.79625) rotate(-90) scale(0.1 -0.1)">
      <defs>
       <path id="DejaVuSans-74" d="M 1172 4494 
L 1172 3500 
L 2356 3500 
L 2356 3053 
L 1172 3053 
L 1172 1153 
Q 1172 725 1289 603 
Q 1406 481 1766 481 
L 2356 481 
L 2356 0 
L 1766 0 
Q 1100 0 847 248 
Q 594 497 594 1153 
L 594 3053 
L 172 3053 
L 172 3500 
L 594 3500 
L 594 4494 
L 1172 4494 
z
" transform="scale(0.015625)"/>
       <path id="DejaVuSans-6f" d="M 1959 3097 
Q 1497 3097 1228 2736 
Q 959 2375 959 1747 
Q 959 1119 1226 758 
Q 1494 397 1959 397 
Q 2419 397 2687 759 
Q 2956 1122 2956 1747 
Q 2956 2369 2687 2733 
Q 2419 3097 1959 3097 
z
M 1959 3584 
Q 2709 3584 3137 3096 
Q 3566 2609 3566 1747 
Q 3566 888 3137 398 
Q 2709 -91 1959 -91 
Q 1206 -91 779 398 
Q 353 888 353 1747 
Q 353 2609 779 3096 
Q 1206 3584 1959 3584 
z
" transform="scale(0.015625)"/>
       <path id="DejaVuSans-61" d="M 2194 1759 
Q 1497 1759 1228 1600 
Q 959 1441 959 1056 
Q 959 750 1161 570 
Q 1363 391 1709 391 
Q 2188 391 2477 730 
Q 2766 1069 2766 1631 
L 2766 1759 
L 2194 1759 
z
M 3341 1997 
L 3341 0 
L 2766 0 
L 2766 531 
Q 2569 213 2275 61 
Q 1981 -91 1556 -91 
Q 1019 -91 701 211 
Q 384 513 384 1019 
Q 384 1609 779 1909 
Q 1175 2209 1959 2209 
L 2766 2209 
L 2766 2266 
Q 2766 2663 2505 2880 
Q 2244 3097 1772 3097 
Q 1472 3097 1187 3025 
Q 903 2953 641 2809 
L 641 3341 
Q 956 3463 1253 3523 
Q 1550 3584 1831 3584 
Q 2591 3584 2966 3190 
Q 3341 2797 3341 1997 
z
" transform="scale(0.015625)"/>
       <path id="DejaVuSans-6c" d="M 603 4863 
L 1178 4863 
L 1178 0 
L 603 0 
L 603 4863 
z
" transform="scale(0.015625)"/>
       <path id="DejaVuSans-43" d="M 4122 4306 
L 4122 3641 
Q 3803 3938 3442 4084 
Q 3081 4231 2675 4231 
Q 1875 4231 1450 3742 
Q 1025 3253 1025 2328 
Q 1025 1406 1450 917 
Q 1875 428 2675 428 
Q 3081 428 3442 575 
Q 3803 722 4122 1019 
L 4122 359 
Q 3791 134 3420 21 
Q 3050 -91 2638 -91 
Q 1578 -91 968 557 
Q 359 1206 359 2328 
Q 359 3453 968 4101 
Q 1578 4750 2638 4750 
Q 3056 4750 3426 4639 
Q 3797 4528 4122 4306 
z
" transform="scale(0.015625)"/>
       <path id="DejaVuSans-67" d="M 2906 1791 
Q 2906 2416 2648 2759 
Q 2391 3103 1925 3103 
Q 1463 3103 1205 2759 
Q 947 2416 947 1791 
Q 947 1169 1205 825 
Q 1463 481 1925 481 
Q 2391 481 2648 825 
Q 2906 1169 2906 1791 
z
M 3481 434 
Q 3481 -459 3084 -895 
Q 2688 -1331 1869 -1331 
Q 1566 -1331 1297 -1286 
Q 1028 -1241 775 -1147 
L 775 -588 
Q 1028 -725 1275 -790 
Q 1522 -856 1778 -856 
Q 2344 -856 2625 -561 
Q 2906 -266 2906 331 
L 2906 616 
Q 2728 306 2450 153 
Q 2172 0 1784 0 
Q 1141 0 747 490 
Q 353 981 353 1791 
Q 353 2603 747 3093 
Q 1141 3584 1784 3584 
Q 2172 3584 2450 3431 
Q 2728 3278 2906 2969 
L 2906 3500 
L 3481 3500 
L 3481 434 
z
" transform="scale(0.015625)"/>
      </defs>
      <use xlink:href="#DejaVuSans-74"/>
      <use xlink:href="#DejaVuSans-6f" transform="translate(39.208984 0)"/>
      <use xlink:href="#DejaVuSans-74" transform="translate(100.390625 0)"/>
      <use xlink:href="#DejaVuSans-61" transform="translate(139.599609 0)"/>
      <use xlink:href="#DejaVuSans-6c" transform="translate(200.878906 0)"/>
      <use xlink:href="#DejaVuSans-20" transform="translate(228.662109 0)"/>
      <use xlink:href="#DejaVuSans-43" transform="translate(260.449219 0)"/>
      <use xlink:href="#DejaVuSans-20" transform="translate(330.273438 0)"/>
      <use xlink:href="#DejaVuSans-5b" transform="translate(362.060547 0)"/>
      <use xlink:href="#DejaVuSans-67" transform="translate(401.074219 0)"/>
      <use xlink:href="#DejaVuSans-5d" transform="translate(464.550781 0)"/>
     </g>
    </g>
   </g>
   <g id="line2d_9">
    <path d="M 56.412159 27.436307 
L 59.562113 35.154343 
L 62.712068 42.249334 
L 65.862022 48.778128 
L 69.011976 54.791468 
L 72.161931 60.334762 
L 75.311885 65.448742 
L 78.461839 70.170037 
L 81.611794 74.531656 
L 84.761748 78.563415 
L 88.541693 83.003926 
L 92.321638 87.050078 
L 96.101583 90.739244 
L 99.881529 94.104837 
L 103.661474 97.1768 
L 107.441419 99.982019 
L 111.851355 102.949738 
L 116.261291 105.621468 
L 120.671227 108.027683 
L 125.081163 110.195518 
L 130.12109 112.412076 
L 135.161017 114.380839 
L 140.830935 116.334492 
L 146.500853 118.045294 
L 152.800761 119.698409 
L 159.10067 121.125615 
L 166.030569 122.471646 
L 173.59046 123.712577 
L 181.780341 124.832391 
L 181.780341 124.832391 
" clip-path="url(#pbe8c5cb540)" style="fill: none; stroke: #000000; stroke-width: 2; stroke-linecap: square"/>
   </g>
   <g id="line2d_10">
    <path d="M 56.412159 27.436307 
L 58.932123 38.327603 
L 61.452086 48.063492 
L 63.972049 56.76672 
L 66.492013 64.546962 
L 69.011976 71.502219 
L 71.53194 77.720071 
L 74.051903 83.278781 
L 76.571867 88.248297 
L 79.09183 92.691129 
L 81.611794 96.663148 
L 84.131757 100.214287 
L 86.651721 103.38918 
L 89.171684 106.227717 
L 91.691647 108.765559 
L 94.211611 111.034577 
L 97.361565 113.535931 
L 100.51152 115.710639 
L 103.661474 117.601377 
L 106.811428 119.245239 
L 110.591373 120.937094 
L 114.371319 122.367471 
L 118.151264 123.57679 
L 122.5612 124.75355 
L 127.601127 125.844379 
L 133.271044 126.81235 
L 139.570953 127.637332 
L 146.500853 128.314236 
L 154.690734 128.886902 
L 164.770588 129.357909 
L 177.370405 129.715236 
L 181.780341 129.799943 
L 181.780341 129.799943 
" clip-path="url(#pbe8c5cb540)" style="fill: none; stroke-dasharray: 7.4,3.2; stroke-dashoffset: 0; stroke: #000000; stroke-width: 2"/>
   </g>
   <g id="line2d_11">
    <path d="M 56.412159 27.436307 
L 58.932123 34.777318 
L 61.452086 41.51523 
L 63.972049 47.718954 
L 67.122004 54.809531 
L 70.271958 61.247985 
L 73.421912 67.109574 
L 76.571867 72.456061 
L 79.721821 77.339032 
L 82.871775 81.802419 
L 86.02173 85.884351 
L 89.171684 89.618472 
L 92.321638 93.034867 
L 95.471593 96.160703 
L 98.621547 99.020685 
L 102.401492 102.133376 
L 106.181437 104.931053 
L 109.961382 107.445635 
L 113.741328 109.705894 
L 118.151264 112.055862 
L 122.5612 114.13159 
L 126.971136 115.965538 
L 132.011063 117.801997 
L 137.05099 119.397304 
L 142.720907 120.943815 
L 148.390825 122.26528 
L 154.690734 123.510107 
L 161.620633 124.651869 
L 169.180524 125.673496 
L 178.000396 126.627417 
L 181.780341 126.97124 
L 181.780341 126.97124 
" clip-path="url(#pbe8c5cb540)" style="fill: none; stroke-dasharray: 2,3.3; stroke-dashoffset: 0; stroke: #000000; stroke-width: 2"/>
   </g>
   <g id="line2d_12">
    <path d="M 56.412159 27.436307 
L 58.932123 33.888029 
L 62.082077 41.266037 
L 65.232031 47.967809 
L 68.381985 54.073413 
L 71.53194 59.651317 
L 74.681894 64.760143 
L 77.831848 69.450203 
L 80.981803 73.764808 
L 84.131757 77.741392 
L 87.281711 81.412452 
L 91.061657 85.454108 
L 94.841602 89.138941 
L 98.621547 92.503528 
L 102.401492 95.579595 
L 106.181437 98.394868 
L 110.591373 101.38212 
L 115.001309 104.081473 
L 119.411245 106.522622 
L 123.821181 108.731688 
L 128.861108 111.001667 
L 133.901035 113.029013 
L 139.570953 115.052871 
L 145.240871 116.836612 
L 151.540779 118.572043 
L 157.840688 120.081212 
L 164.770588 121.515376 
L 172.330478 122.848546 
L 180.520359 124.062406 
L 181.780341 124.230425 
L 181.780341 124.230425 
" clip-path="url(#pbe8c5cb540)" style="fill: none; stroke-dasharray: 12.8,3.2,2,3.2; stroke-dashoffset: 0; stroke: #000000; stroke-width: 2"/>
   </g>
   <g id="patch_3">
    <path d="M 50.14375 134.918125 
L 50.14375 22.318125 
" style="fill: none; stroke: #404040; stroke-width: 0.5; stroke-linejoin: miter; stroke-linecap: square"/>
   </g>
   <g id="patch_4">
    <path d="M 188.04875 134.918125 
L 188.04875 22.318125 
" style="fill: none; stroke: #404040; stroke-width: 0.5; stroke-linejoin: miter; stroke-linecap: square"/>
   </g>
   <g id="patch_5">
    <path d="M 50.14375 134.918125 
L 188.04875 134.918125 
" style="fill: none; stroke: #404040; stroke-width: 0.5; stroke-linejoin: miter; stroke-linecap: square"/>
   </g>
   <g id="patch_6">
    <path d="M 50.14375 22.318125 
L 188.04875 22.318125 
" style="fill: none; stroke: #404040; stroke-width: 0.5; stroke-linejoin: miter; stroke-linecap: square"/>
   </g>
   <g id="text_11">
    <!-- (A) -->
    <g style="fill: #ffffff" transform="translate(110.31 16.318125) scale(0.12 -0.12)">
     <defs>
      <path id="DejaVuSans-28" d="M 1984 4856 
Q 1566 4138 1362 3434 
Q 1159 2731 1159 2009 
Q 1159 1288 1364 580 
Q 1569 -128 1984 -844 
L 1484 -844 
Q 1016 -109 783 600 
Q 550 1309 550 2009 
Q 550 2706 781 3412 
Q 1013 4119 1484 4856 
L 1984 4856 
z
" transform="scale(0.015625)"/>
      <path id="DejaVuSans-41" d="M 2188 4044 
L 1331 1722 
L 3047 1722 
L 2188 4044 
z
M 1831 4666 
L 2547 4666 
L 4325 0 
L 3669 0 
L 3244 1197 
L 1141 1197 
L 716 0 
L 50 0 
L 1831 4666 
z
" transform="scale(0.015625)"/>
      <path id="DejaVuSans-29" d="M 513 4856 
L 1013 4856 
Q 1481 4119 1714 3412 
Q 1947 2706 1947 2009 
Q 1947 1309 1714 600 
Q 1481 -109 1013 -844 
L 513 -844 
Q 928 -128 1133 580 
Q 1338 1288 1338 2009 
Q 1338 2731 1133 3434 
Q 928 4138 513 4856 
z
" transform="scale(0.015625)"/>
     </defs>
     <use xlink:href="#DejaVuSans-28"/>
     <use xlink:href="#DejaVuSans-41" transform="translate(39.013672 0)"/>
     <use xlink:href="#DejaVuSans-29" transform="translate(107.421875 0)"/>
    </g>
   </g>
   <g id="legend_1">
    <g id="line2d_13">
     <path d="M 127.339531 34.106719 
L 136.339531 34.106719 
L 145.339531 34.106719 
" style="fill: none; stroke: #000000; stroke-width: 2; stroke-linecap: square"/>
    </g>
    <g id="text_12">
     <!-- NPNE -->
     <g style="fill: #ffffff" transform="translate(152.539531 37.256719) scale(0.09 -0.09)">
      <defs>
       <path id="DejaVuSans-4e" d="M 628 4666 
L 1478 4666 
L 3547 763 
L 3547 4666 
L 4159 4666 
L 4159 0 
L 3309 0 
L 1241 3903 
L 1241 0 
L 628 0 
L 628 4666 
z
" transform="scale(0.015625)"/>
       <path id="DejaVuSans-50" d="M 1259 4147 
L 1259 2394 
L 2053 2394 
Q 2494 2394 2734 2622 
Q 2975 2850 2975 3272 
Q 2975 3691 2734 3919 
Q 2494 4147 2053 4147 
L 1259 4147 
z
M 628 4666 
L 2053 4666 
Q 2838 4666 3239 4311 
Q 3641 3956 3641 3272 
Q 3641 2581 3239 2228 
Q 2838 1875 2053 1875 
L 1259 1875 
L 1259 0 
L 628 0 
L 628 4666 
z
" transform="scale(0.015625)"/>
       <path id="DejaVuSans-45" d="M 628 4666 
L 3578 4666 
L 3578 4134 
L 1259 4134 
L 1259 2753 
L 3481 2753 
L 3481 2222 
L 1259 2222 
L 1259 531 
L 3634 531 
L 3634 0 
L 628 0 
L 628 4666 
z
" transform="scale(0.015625)"/>
      </defs>
      <use xlink:href="#DejaVuSans-4e"/>
      <use xlink:href="#DejaVuSans-50" transform="translate(74.804688 0)"/>
      <use xlink:href="#DejaVuSans-4e" transform="translate(135.107422 0)"/>
      <use xlink:href="#DejaVuSans-45" transform="translate(209.912109 0)"/>
     </g>
    </g>
    <g id="line2d_14">
     <path d="M 127.339531 47.317031 
L 136.339531 47.317031 
L 145.339531 47.317031 
" style="fill: none; stroke-dasharray: 7.4,3.2; stroke-dashoffset: 0; stroke: #000000; stroke-width: 2"/>
    </g>
    <g id="text_13">
     <!-- NPWE -->
     <g style="fill: #ffffff" transform="translate(152.539531 50.467031) scale(0.09 -0.09)">
      <defs>
       <path id="DejaVuSans-57" d="M 213 4666 
L 850 4666 
L 1831 722 
L 2809 4666 
L 3519 4666 
L 4500 722 
L 5478 4666 
L 6119 4666 
L 4947 0 
L 4153 0 
L 3169 4050 
L 2175 0 
L 1381 0 
L 213 4666 
z
" transform="scale(0.015625)"/>
      </defs>
      <use xlink:href="#DejaVuSans-4e"/>
      <use xlink:href="#DejaVuSans-50" transform="translate(74.804688 0)"/>
      <use xlink:href="#DejaVuSans-57" transform="translate(135.107422 0)"/>
      <use xlink:href="#DejaVuSans-45" transform="translate(233.984375 0)"/>
     </g>
    </g>
    <g id="line2d_15">
     <path d="M 127.339531 60.527344 
L 136.339531 60.527344 
L 145.339531 60.527344 
" style="fill: none; stroke-dasharray: 2,3.3; stroke-dashoffset: 0; stroke: #000000; stroke-width: 2"/>
    </g>
    <g id="text_14">
     <!-- PWOE -->
     <g style="fill: #ffffff" transform="translate(152.539531 63.677344) scale(0.09 -0.09)">
      <defs>
       <path id="DejaVuSans-4f" d="M 2522 4238 
Q 1834 4238 1429 3725 
Q 1025 3213 1025 2328 
Q 1025 1447 1429 934 
Q 1834 422 2522 422 
Q 3209 422 3611 934 
Q 4013 1447 4013 2328 
Q 4013 3213 3611 3725 
Q 3209 4238 2522 4238 
z
M 2522 4750 
Q 3503 4750 4090 4092 
Q 4678 3434 4678 2328 
Q 4678 1225 4090 567 
Q 3503 -91 2522 -91 
Q 1538 -91 948 565 
Q 359 1222 359 2328 
Q 359 3434 948 4092 
Q 1538 4750 2522 4750 
z
" transform="scale(0.015625)"/>
      </defs>
      <use xlink:href="#DejaVuSans-50"/>
      <use xlink:href="#DejaVuSans-57" transform="translate(60.302734 0)"/>
      <use xlink:href="#DejaVuSans-4f" transform="translate(159.179688 0)"/>
      <use xlink:href="#DejaVuSans-45" transform="translate(237.890625 0)"/>
     </g>
    </g>
    <g id="line2d_16">
     <path d="M 127.339531 73.737656 
L 136.339531 73.737656 
L 145.339531 73.737656 
" style="fill: none; stroke-dasharray: 12.8,3.2,2,3.2; stroke-dashoffset: 0; stroke: #000000; stroke-width: 2"/>
    </g>
    <g id="text_15">
     <!-- PWOV -->
     <g style="fill: #ffffff" transform="translate(152.539531 76.887656) scale(0.09 -0.09)">
      <defs>
       <path id="DejaVuSans-56" d="M 1831 0 
L 50 4666 
L 709 4666 
L 2188 738 
L 3669 4666 
L 4325 4666 
L 2547 0 
L 1831 0 
z
" transform="scale(0.015625)"/>
      </defs>
      <use xlink:href="#DejaVuSans-50"/>
      <use xlink:href="#DejaVuSans-57" transform="translate(60.302734 0)"/>
      <use xlink:href="#DejaVuSans-4f" transform="translate(159.179688 0)"/>
      <use xlink:href="#DejaVuSans-56" transform="translate(236.140625 0)"/>
     </g>
    </g>
   </g>
  </g>
  <g id="axes_2">
   <g id="patch_7">
    <path d="M 248.63875 134.918125 
L 386.54375 134.918125 
L 386.54375 22.318125 
L 248.63875 22.318125 
z
" style="fill: #ffffff"/>
   </g>
   <g id="matplotlib.axis_3">
    <g id="xtick_4">
     <g id="line2d_17">
      <g>
       <use xlink:href="#mfb53dd25e9" x="254.907159" y="134.918125" style="stroke: #000000; stroke-width: 0.8"/>
      </g>
     </g>
     <g id="text_16">
      <!-- 0 -->
      <g transform="translate(251.725909 149.516563) scale(0.1 -0.1)">
       <use xlink:href="#DejaVuSans-30"/>
      </g>
     </g>
    </g>
    <g id="xtick_5">
     <g id="line2d_18">
      <g>
       <use xlink:href="#mfb53dd25e9" x="317.59125" y="134.918125" style="stroke: #000000; stroke-width: 0.8"/>
      </g>
     </g>
     <g id="text_17">
      <!-- 1 -->
      <g transform="translate(314.41 149.516563) scale(0.1 -0.1)">
       <use xlink:href="#DejaVuSans-31"/>
      </g>
     </g>
    </g>
    <g id="xtick_6">
     <g id="line2d_19">
      <g>
       <use xlink:href="#mfb53dd25e9" x="380.275341" y="134.918125" style="stroke: #000000; stroke-width: 0.8"/>
      </g>
     </g>
     <g id="text_18">
      <!-- 2 -->
      <g transform="translate(377.094091 149.516563) scale(0.1 -0.1)">
       <use xlink:href="#DejaVuSans-32"/>
      </g>
     </g>
    </g>
    <g id="text_19">
     <!-- Time [Y] -->
     <g transform="translate(296.813125 163.194688) scale(0.1 -0.1)">
      <use xlink:href="#DejaVuSans-54"/>
      <use xlink:href="#DejaVuSans-69" transform="translate(57.958984 0)"/>
      <use xlink:href="#DejaVuSans-6d" transform="translate(85.742188 0)"/>
      <use xlink:href="#DejaVuSans-65" transform="translate(183.154297 0)"/>
      <use xlink:href="#DejaVuSans-20" transform="translate(244.677734 0)"/>
      <use xlink:href="#DejaVuSans-5b" transform="translate(276.464844 0)"/>
      <use xlink:href="#DejaVuSans-59" transform="translate(315.478516 0)"/>
      <use xlink:href="#DejaVuSans-5d" transform="translate(376.5625 0)"/>
     </g>
    </g>
   </g>
   <g id="matplotlib.axis_4">
    <g id="ytick_6">
     <g id="line2d_20">
      <g>
       <use xlink:href="#mce604e6ee2" x="248.63875" y="131.166771" style="stroke: #000000; stroke-width: 0.8"/>
      </g>
     </g>
     <g id="text_20">
      <!-- 0.0000 -->
      <g transform="translate(206.648125 134.96599) scale(0.1 -0.1)">
       <use xlink:href="#DejaVuSans-30"/>
       <use xlink:href="#DejaVuSans-2e" transform="translate(63.623047 0)"/>
       <use xlink:href="#DejaVuSans-30" transform="translate(95.410156 0)"/>
       <use xlink:href="#DejaVuSans-30" transform="translate(159.033203 0)"/>
       <use xlink:href="#DejaVuSans-30" transform="translate(222.65625 0)"/>
       <use xlink:href="#DejaVuSans-30" transform="translate(286.279297 0)"/>
      </g>
     </g>
    </g>
    <g id="ytick_7">
     <g id="line2d_21">
      <g>
       <use xlink:href="#mce604e6ee2" x="248.63875" y="103.121397" style="stroke: #000000; stroke-width: 0.8"/>
      </g>
     </g>
     <g id="text_21">
      <!-- 0.0025 -->
      <g transform="translate(206.648125 106.920616) scale(0.1 -0.1)">
       <use xlink:href="#DejaVuSans-30"/>
       <use xlink:href="#DejaVuSans-2e" transform="translate(63.623047 0)"/>
       <use xlink:href="#DejaVuSans-30" transform="translate(95.410156 0)"/>
       <use xlink:href="#DejaVuSans-30" transform="translate(159.033203 0)"/>
       <use xlink:href="#DejaVuSans-32" transform="translate(222.65625 0)"/>
       <use xlink:href="#DejaVuSans-35" transform="translate(286.279297 0)"/>
      </g>
     </g>
    </g>
    <g id="ytick_8">
     <g id="line2d_22">
      <g>
       <use xlink:href="#mce604e6ee2" x="248.63875" y="75.076023" style="stroke: #000000; stroke-width: 0.8"/>
      </g>
     </g>
     <g id="text_22">
      <!-- 0.0050 -->
      <g transform="translate(206.648125 78.875242) scale(0.1 -0.1)">
       <use xlink:href="#DejaVuSans-30"/>
       <use xlink:href="#DejaVuSans-2e" transform="translate(63.623047 0)"/>
       <use xlink:href="#DejaVuSans-30" transform="translate(95.410156 0)"/>
       <use xlink:href="#DejaVuSans-30" transform="translate(159.033203 0)"/>
       <use xlink:href="#DejaVuSans-35" transform="translate(222.65625 0)"/>
       <use xlink:href="#DejaVuSans-30" transform="translate(286.279297 0)"/>
      </g>
     </g>
    </g>
    <g id="ytick_9">
     <g id="line2d_23">
      <g>
       <use xlink:href="#mce604e6ee2" x="248.63875" y="47.030649" style="stroke: #000000; stroke-width: 0.8"/>
      </g>
     </g>
     <g id="text_23">
      <!-- 0.0075 -->
      <g transform="translate(206.648125 50.829868) scale(0.1 -0.1)">
       <use xlink:href="#DejaVuSans-30"/>
       <use xlink:href="#DejaVuSans-2e" transform="translate(63.623047 0)"/>
       <use xlink:href="#DejaVuSans-30" transform="translate(95.410156 0)"/>
       <use xlink:href="#DejaVuSans-30" transform="translate(159.033203 0)"/>
       <use xlink:href="#DejaVuSans-37" transform="translate(222.65625 0)"/>
       <use xlink:href="#DejaVuSans-35" transform="translate(286.279297 0)"/>
      </g>
     </g>
    </g>
    <g id="text_24">
     <!-- total N [g] -->
     <g transform="translate(200.568437 104.045469) rotate(-90) scale(0.1 -0.1)">
      <use xlink:href="#DejaVuSans-74"/>
      <use xlink:href="#DejaVuSans-6f" transform="translate(39.208984 0)"/>
      <use xlink:href="#DejaVuSans-74" transform="translate(100.390625 0)"/>
      <use xlink:href="#DejaVuSans-61" transform="translate(139.599609 0)"/>
      <use xlink:href="#DejaVuSans-6c" transform="translate(200.878906 0)"/>
      <use xlink:href="#DejaVuSans-20" transform="translate(228.662109 0)"/>
      <use xlink:href="#DejaVuSans-4e" transform="translate(260.449219 0)"/>
      <use xlink:href="#DejaVuSans-20" transform="translate(335.253906 0)"/>
      <use xlink:href="#DejaVuSans-5b" transform="translate(367.041016 0)"/>
      <use xlink:href="#DejaVuSans-67" transform="translate(406.054688 0)"/>
      <use xlink:href="#DejaVuSans-5d" transform="translate(469.53125 0)"/>
     </g>
    </g>
   </g>
   <g id="line2d_24">
    <path d="M 254.907159 60.492429 
L 304.676437 28.085532 
L 305.936419 27.639858 
L 307.196401 27.446215 
L 308.456382 27.480529 
L 309.716364 27.720607 
L 310.976346 28.145993 
L 312.866319 29.090721 
L 314.756291 30.352943 
L 316.646264 31.882002 
L 319.166227 34.259454 
L 321.686191 36.941262 
L 324.836145 40.605809 
L 329.246081 46.105669 
L 346.885825 68.545829 
L 351.925752 74.407847 
L 356.335688 79.221003 
L 360.745624 83.721906 
L 365.15556 87.906227 
L 369.565496 91.777827 
L 373.975432 95.346213 
L 378.385368 98.624639 
L 380.275341 99.944722 
L 380.275341 99.944722 
" clip-path="url(#p1c3013971e)" style="fill: none; stroke: #000000; stroke-width: 2; stroke-linecap: square"/>
   </g>
   <g id="line2d_25">
    <path d="M 254.907159 60.492429 
L 261.207068 56.473899 
L 262.467049 56.114823 
L 263.727031 56.097744 
L 264.987013 56.380626 
L 266.246995 56.925418 
L 267.506976 57.697713 
L 269.396949 59.215593 
L 271.286922 61.083859 
L 273.806885 63.985418 
L 276.956839 68.060026 
L 281.996766 75.086637 
L 289.556657 85.620478 
L 293.966593 91.344428 
L 297.746538 95.886504 
L 301.526483 100.057218 
L 305.306428 103.846567 
L 308.456382 106.716477 
L 311.606337 109.333571 
L 315.386282 112.157223 
L 319.166227 114.658319 
L 322.946172 116.863381 
L 326.726118 118.799587 
L 330.506063 120.493702 
L 334.915999 122.198329 
L 339.325935 123.6463 
L 343.735871 124.872242 
L 348.775798 126.041122 
L 354.445716 127.108291 
L 360.745624 128.043655 
L 367.675524 128.832088 
L 375.865405 129.516843 
L 380.275341 129.799943 
L 380.275341 129.799943 
" clip-path="url(#p1c3013971e)" style="fill: none; stroke-dasharray: 7.4,3.2; stroke-dashoffset: 0; stroke: #000000; stroke-width: 2"/>
   </g>
   <g id="line2d_26">
    <path d="M 254.907159 60.492429 
L 288.296675 38.813747 
L 290.186647 38.065344 
L 292.07662 37.654806 
L 293.966593 37.56005 
L 295.856565 37.75829 
L 297.746538 38.226396 
L 299.63651 38.941205 
L 301.526483 39.879803 
L 304.046446 41.440695 
L 306.56641 43.308377 
L 309.086373 45.43435 
L 312.236328 48.386357 
L 316.016273 52.255298 
L 321.0562 57.770423 
L 339.325935 78.132825 
L 344.365862 83.294771 
L 349.405789 88.130697 
L 353.815725 92.073376 
L 358.225661 95.738756 
L 362.635597 99.12719 
L 367.045533 102.244572 
L 371.455469 105.10077 
L 375.865405 107.708367 
L 380.275341 110.081678 
L 380.275341 110.081678 
" clip-path="url(#p1c3013971e)" style="fill: none; stroke-dasharray: 2,3.3; stroke-dashoffset: 0; stroke: #000000; stroke-width: 2"/>
   </g>
   <g id="line2d_27">
    <path d="M 254.907159 60.492429 
L 276.956839 46.170516 
L 278.846812 45.25938 
L 280.736784 44.5795 
L 282.626757 44.115177 
L 284.51673 43.851324 
L 286.406702 43.773459 
L 288.926666 43.935052 
L 291.446629 44.371435 
L 293.966593 45.053231 
L 296.486556 45.952907 
L 299.63651 47.344888 
L 302.786465 48.99092 
L 306.56641 51.242451 
L 310.976346 54.168602 
L 316.016273 57.798342 
L 322.946172 63.090595 
L 343.735871 79.169055 
L 350.66577 84.172629 
L 356.965679 88.465976 
L 363.265588 92.490935 
L 369.565496 96.235651 
L 375.865405 99.697412 
L 380.275341 101.954227 
L 380.275341 101.954227 
" clip-path="url(#p1c3013971e)" style="fill: none; stroke-dasharray: 12.8,3.2,2,3.2; stroke-dashoffset: 0; stroke: #000000; stroke-width: 2"/>
   </g>
   <g id="patch_8">
    <path d="M 248.63875 134.918125 
L 248.63875 22.318125 
" style="fill: none; stroke: #404040; stroke-width: 0.5; stroke-linejoin: miter; stroke-linecap: square"/>
   </g>
   <g id="patch_9">
    <path d="M 386.54375 134.918125 
L 386.54375 22.318125 
" style="fill: none; stroke: #404040; stroke-width: 0.5; stroke-linejoin: miter; stroke-linecap: square"/>
   </g>
   <g id="patch_10">
    <path d="M 248.63875 134.918125 
L 386.54375 134.918125 
" style="fill: none; stroke: #404040; stroke-width: 0.5; stroke-linejoin: miter; stroke-linecap: square"/>
   </g>
   <g id="patch_11">
    <path d="M 248.63875 22.318125 
L 386.54375 22.318125 
" style="fill: none; stroke: #404040; stroke-width: 0.5; stroke-linejoin: miter; stroke-linecap: square"/>
   </g>
   <g id="text_25">
    <!-- (B) -->
    <g style="fill: #ffffff" transform="translate(308.792813 16.318125) scale(0.12 -0.12)">
     <defs>
      <path id="DejaVuSans-42" d="M 1259 2228 
L 1259 519 
L 2272 519 
Q 2781 519 3026 730 
Q 3272 941 3272 1375 
Q 3272 1813 3026 2020 
Q 2781 2228 2272 2228 
L 1259 2228 
z
M 1259 4147 
L 1259 2741 
L 2194 2741 
Q 2656 2741 2882 2914 
Q 3109 3088 3109 3444 
Q 3109 3797 2882 3972 
Q 2656 4147 2194 4147 
L 1259 4147 
z
M 628 4666 
L 2241 4666 
Q 2963 4666 3353 4366 
Q 3744 4066 3744 3513 
Q 3744 3084 3544 2831 
Q 3344 2578 2956 2516 
Q 3422 2416 3680 2098 
Q 3938 1781 3938 1306 
Q 3938 681 3513 340 
Q 3088 0 2303 0 
L 628 0 
L 628 4666 
z
" transform="scale(0.015625)"/>
     </defs>
     <use xlink:href="#DejaVuSans-28"/>
     <use xlink:href="#DejaVuSans-42" transform="translate(39.013672 0)"/>
     <use xlink:href="#DejaVuSans-29" transform="translate(107.617188 0)"/>
    </g>
   </g>
  </g>
  <g id="axes_3">
   <g id="patch_12">
    <path d="M 447.13375 134.918125 
L 585.03875 134.918125 
L 585.03875 22.318125 
L 447.13375 22.318125 
z
" style="fill: #ffffff"/>
   </g>
   <g id="matplotlib.axis_5">
    <g id="xtick_7">
     <g id="line2d_28">
      <g>
       <use xlink:href="#mfb53dd25e9" x="453.402159" y="134.918125" style="stroke: #000000; stroke-width: 0.8"/>
      </g>
     </g>
     <g id="text_26">
      <!-- 0 -->
      <g transform="translate(450.220909 149.516563) scale(0.1 -0.1)">
       <use xlink:href="#DejaVuSans-30"/>
      </g>
     </g>
    </g>
    <g id="xtick_8">
     <g id="line2d_29">
      <g>
       <use xlink:href="#mfb53dd25e9" x="516.08625" y="134.918125" style="stroke: #000000; stroke-width: 0.8"/>
      </g>
     </g>
     <g id="text_27">
      <!-- 1 -->
      <g transform="translate(512.905 149.516563) scale(0.1 -0.1)">
       <use xlink:href="#DejaVuSans-31"/>
      </g>
     </g>
    </g>
    <g id="xtick_9">
     <g id="line2d_30">
      <g>
       <use xlink:href="#mfb53dd25e9" x="578.770341" y="134.918125" style="stroke: #000000; stroke-width: 0.8"/>
      </g>
     </g>
     <g id="text_28">
      <!-- 2 -->
      <g transform="translate(575.589091 149.516563) scale(0.1 -0.1)">
       <use xlink:href="#DejaVuSans-32"/>
      </g>
     </g>
    </g>
    <g id="text_29">
     <!-- Time [Y] -->
     <g transform="translate(495.308125 163.194688) scale(0.1 -0.1)">
      <use xlink:href="#DejaVuSans-54"/>
      <use xlink:href="#DejaVuSans-69" transform="translate(57.958984 0)"/>
      <use xlink:href="#DejaVuSans-6d" transform="translate(85.742188 0)"/>
      <use xlink:href="#DejaVuSans-65" transform="translate(183.154297 0)"/>
      <use xlink:href="#DejaVuSans-20" transform="translate(244.677734 0)"/>
      <use xlink:href="#DejaVuSans-5b" transform="translate(276.464844 0)"/>
      <use xlink:href="#DejaVuSans-59" transform="translate(315.478516 0)"/>
      <use xlink:href="#DejaVuSans-5d" transform="translate(376.5625 0)"/>
     </g>
    </g>
   </g>
   <g id="matplotlib.axis_6">
    <g id="ytick_10">
     <g id="line2d_31">
      <g>
       <use xlink:href="#mce604e6ee2" x="447.13375" y="115.7831" style="stroke: #000000; stroke-width: 0.8"/>
      </g>
     </g>
     <g id="text_30">
      <!-- 0.15 -->
      <g transform="translate(417.868125 119.582319) scale(0.1 -0.1)">
       <use xlink:href="#DejaVuSans-30"/>
       <use xlink:href="#DejaVuSans-2e" transform="translate(63.623047 0)"/>
       <use xlink:href="#DejaVuSans-31" transform="translate(95.410156 0)"/>
       <use xlink:href="#DejaVuSans-35" transform="translate(159.033203 0)"/>
      </g>
     </g>
    </g>
    <g id="ytick_11">
     <g id="line2d_32">
      <g>
       <use xlink:href="#mce604e6ee2" x="447.13375" y="90.219603" style="stroke: #000000; stroke-width: 0.8"/>
      </g>
     </g>
     <g id="text_31">
      <!-- 0.20 -->
      <g transform="translate(417.868125 94.018822) scale(0.1 -0.1)">
       <use xlink:href="#DejaVuSans-30"/>
       <use xlink:href="#DejaVuSans-2e" transform="translate(63.623047 0)"/>
       <use xlink:href="#DejaVuSans-32" transform="translate(95.410156 0)"/>
       <use xlink:href="#DejaVuSans-30" transform="translate(159.033203 0)"/>
      </g>
     </g>
    </g>
    <g id="ytick_12">
     <g id="line2d_33">
      <g>
       <use xlink:href="#mce604e6ee2" x="447.13375" y="64.656106" style="stroke: #000000; stroke-width: 0.8"/>
      </g>
     </g>
     <g id="text_32">
      <!-- 0.25 -->
      <g transform="translate(417.868125 68.455325) scale(0.1 -0.1)">
       <use xlink:href="#DejaVuSans-30"/>
       <use xlink:href="#DejaVuSans-2e" transform="translate(63.623047 0)"/>
       <use xlink:href="#DejaVuSans-32" transform="translate(95.410156 0)"/>
       <use xlink:href="#DejaVuSans-35" transform="translate(159.033203 0)"/>
      </g>
     </g>
    </g>
    <g id="ytick_13">
     <g id="line2d_34">
      <g>
       <use xlink:href="#mce604e6ee2" x="447.13375" y="39.092609" style="stroke: #000000; stroke-width: 0.8"/>
      </g>
     </g>
     <g id="text_33">
      <!-- 0.30 -->
      <g transform="translate(417.868125 42.891828) scale(0.1 -0.1)">
       <defs>
        <path id="DejaVuSans-33" d="M 2597 2516 
Q 3050 2419 3304 2112 
Q 3559 1806 3559 1356 
Q 3559 666 3084 287 
Q 2609 -91 1734 -91 
Q 1441 -91 1130 -33 
Q 819 25 488 141 
L 488 750 
Q 750 597 1062 519 
Q 1375 441 1716 441 
Q 2309 441 2620 675 
Q 2931 909 2931 1356 
Q 2931 1769 2642 2001 
Q 2353 2234 1838 2234 
L 1294 2234 
L 1294 2753 
L 1863 2753 
Q 2328 2753 2575 2939 
Q 2822 3125 2822 3475 
Q 2822 3834 2567 4026 
Q 2313 4219 1838 4219 
Q 1578 4219 1281 4162 
Q 984 4106 628 3988 
L 628 4550 
Q 988 4650 1302 4700 
Q 1616 4750 1894 4750 
Q 2613 4750 3031 4423 
Q 3450 4097 3450 3541 
Q 3450 3153 3228 2886 
Q 3006 2619 2597 2516 
z
" transform="scale(0.015625)"/>
       </defs>
       <use xlink:href="#DejaVuSans-30"/>
       <use xlink:href="#DejaVuSans-2e" transform="translate(63.623047 0)"/>
       <use xlink:href="#DejaVuSans-33" transform="translate(95.410156 0)"/>
       <use xlink:href="#DejaVuSans-30" transform="translate(159.033203 0)"/>
      </g>
     </g>
    </g>
    <g id="text_34">
     <!-- Lignin C fraction [gC/gC] -->
     <g transform="translate(411.788437 140.075938) rotate(-90) scale(0.1 -0.1)">
      <defs>
       <path id="DejaVuSans-4c" d="M 628 4666 
L 1259 4666 
L 1259 531 
L 3531 531 
L 3531 0 
L 628 0 
L 628 4666 
z
" transform="scale(0.015625)"/>
       <path id="DejaVuSans-6e" d="M 3513 2113 
L 3513 0 
L 2938 0 
L 2938 2094 
Q 2938 2591 2744 2837 
Q 2550 3084 2163 3084 
Q 1697 3084 1428 2787 
Q 1159 2491 1159 1978 
L 1159 0 
L 581 0 
L 581 3500 
L 1159 3500 
L 1159 2956 
Q 1366 3272 1645 3428 
Q 1925 3584 2291 3584 
Q 2894 3584 3203 3211 
Q 3513 2838 3513 2113 
z
" transform="scale(0.015625)"/>
       <path id="DejaVuSans-66" d="M 2375 4863 
L 2375 4384 
L 1825 4384 
Q 1516 4384 1395 4259 
Q 1275 4134 1275 3809 
L 1275 3500 
L 2222 3500 
L 2222 3053 
L 1275 3053 
L 1275 0 
L 697 0 
L 697 3053 
L 147 3053 
L 147 3500 
L 697 3500 
L 697 3744 
Q 697 4328 969 4595 
Q 1241 4863 1831 4863 
L 2375 4863 
z
" transform="scale(0.015625)"/>
       <path id="DejaVuSans-72" d="M 2631 2963 
Q 2534 3019 2420 3045 
Q 2306 3072 2169 3072 
Q 1681 3072 1420 2755 
Q 1159 2438 1159 1844 
L 1159 0 
L 581 0 
L 581 3500 
L 1159 3500 
L 1159 2956 
Q 1341 3275 1631 3429 
Q 1922 3584 2338 3584 
Q 2397 3584 2469 3576 
Q 2541 3569 2628 3553 
L 2631 2963 
z
" transform="scale(0.015625)"/>
       <path id="DejaVuSans-63" d="M 3122 3366 
L 3122 2828 
Q 2878 2963 2633 3030 
Q 2388 3097 2138 3097 
Q 1578 3097 1268 2742 
Q 959 2388 959 1747 
Q 959 1106 1268 751 
Q 1578 397 2138 397 
Q 2388 397 2633 464 
Q 2878 531 3122 666 
L 3122 134 
Q 2881 22 2623 -34 
Q 2366 -91 2075 -91 
Q 1284 -91 818 406 
Q 353 903 353 1747 
Q 353 2603 823 3093 
Q 1294 3584 2113 3584 
Q 2378 3584 2631 3529 
Q 2884 3475 3122 3366 
z
" transform="scale(0.015625)"/>
       <path id="DejaVuSans-2f" d="M 1625 4666 
L 2156 4666 
L 531 -594 
L 0 -594 
L 1625 4666 
z
" transform="scale(0.015625)"/>
      </defs>
      <use xlink:href="#DejaVuSans-4c"/>
      <use xlink:href="#DejaVuSans-69" transform="translate(55.712891 0)"/>
      <use xlink:href="#DejaVuSans-67" transform="translate(83.496094 0)"/>
      <use xlink:href="#DejaVuSans-6e" transform="translate(146.972656 0)"/>
      <use xlink:href="#DejaVuSans-69" transform="translate(210.351562 0)"/>
      <use xlink:href="#DejaVuSans-6e" transform="translate(238.134766 0)"/>
      <use xlink:href="#DejaVuSans-20" transform="translate(301.513672 0)"/>
      <use xlink:href="#DejaVuSans-43" transform="translate(333.300781 0)"/>
      <use xlink:href="#DejaVuSans-20" transform="translate(403.125 0)"/>
      <use xlink:href="#DejaVuSans-66" transform="translate(434.912109 0)"/>
      <use xlink:href="#DejaVuSans-72" transform="translate(470.117188 0)"/>
      <use xlink:href="#DejaVuSans-61" transform="translate(511.230469 0)"/>
      <use xlink:href="#DejaVuSans-63" transform="translate(572.509766 0)"/>
      <use xlink:href="#DejaVuSans-74" transform="translate(627.490234 0)"/>
      <use xlink:href="#DejaVuSans-69" transform="translate(666.699219 0)"/>
      <use xlink:href="#DejaVuSans-6f" transform="translate(694.482422 0)"/>
      <use xlink:href="#DejaVuSans-6e" transform="translate(755.664062 0)"/>
      <use xlink:href="#DejaVuSans-20" transform="translate(819.042969 0)"/>
      <use xlink:href="#DejaVuSans-5b" transform="translate(850.830078 0)"/>
      <use xlink:href="#DejaVuSans-67" transform="translate(889.84375 0)"/>
      <use xlink:href="#DejaVuSans-43" transform="translate(953.320312 0)"/>
      <use xlink:href="#DejaVuSans-2f" transform="translate(1023.144531 0)"/>
      <use xlink:href="#DejaVuSans-67" transform="translate(1056.835938 0)"/>
      <use xlink:href="#DejaVuSans-43" transform="translate(1120.3125 0)"/>
      <use xlink:href="#DejaVuSans-5d" transform="translate(1190.136719 0)"/>
     </g>
    </g>
   </g>
   <g id="line2d_35">
    <path d="M 453.402159 39.092609 
L 457.182104 45.885616 
L 460.962049 52.197212 
L 464.741995 58.051135 
L 468.52194 63.471969 
L 472.301885 68.484633 
L 476.08183 73.113971 
L 479.861775 77.384432 
L 483.641721 81.319819 
L 487.421666 84.943107 
L 491.201611 88.276309 
L 494.981556 91.340389 
L 498.761501 94.155209 
L 503.171437 97.149055 
L 507.581373 99.856925 
L 511.991309 102.304668 
L 516.401245 104.516112 
L 521.441172 106.782113 
L 526.481099 108.797733 
L 531.521026 110.589797 
L 537.190944 112.36861 
L 542.860862 113.925637 
L 549.16077 115.428419 
L 556.09067 116.842596 
L 563.65056 118.142334 
L 571.840441 119.310518 
L 578.770341 120.135877 
L 578.770341 120.135877 
" clip-path="url(#p1994f987f1)" style="fill: none; stroke: #000000; stroke-width: 2; stroke-linecap: square"/>
   </g>
   <g id="line2d_36">
    <path d="M 453.402159 39.092609 
L 467.261958 37.259422 
L 482.381739 35.494187 
L 498.761501 33.807125 
L 517.661227 32.087184 
L 540.970889 30.203474 
L 574.990396 27.706922 
L 578.770341 27.436307 
L 578.770341 27.436307 
" clip-path="url(#p1994f987f1)" style="fill: none; stroke-dasharray: 7.4,3.2; stroke-dashoffset: 0; stroke: #000000; stroke-width: 2"/>
   </g>
   <g id="line2d_37">
    <path d="M 453.402159 39.092609 
L 457.812095 48.937597 
L 461.59204 56.872557 
L 465.371985 64.264785 
L 468.52194 69.984102 
L 471.671894 75.297 
L 474.821848 80.209489 
L 477.971803 84.735135 
L 481.121757 88.892513 
L 484.271711 92.703187 
L 487.421666 96.190206 
L 490.57162 99.377022 
L 493.721574 102.286739 
L 497.50152 105.443896 
L 501.281465 108.270289 
L 505.06141 110.799431 
L 508.841355 113.06196 
L 512.6213 115.085671 
L 517.031236 117.178148 
L 521.441172 119.015105 
L 525.851108 120.627801 
L 530.891035 122.231341 
L 535.930962 123.613373 
L 541.60088 124.941416 
L 547.900789 126.178726 
L 554.830688 127.299004 
L 562.390578 128.286349 
L 570.58046 129.134378 
L 578.770341 129.799943 
L 578.770341 129.799943 
" clip-path="url(#p1994f987f1)" style="fill: none; stroke-dasharray: 2,3.3; stroke-dashoffset: 0; stroke: #000000; stroke-width: 2"/>
   </g>
   <g id="line2d_38">
    <path d="M 453.402159 39.092609 
L 462.222031 44.504472 
L 467.891949 47.716876 
L 472.931876 50.32331 
L 477.971803 52.671508 
L 483.01173 54.757373 
L 488.051657 56.589242 
L 493.091583 58.18327 
L 498.13151 59.559916 
L 503.801428 60.876546 
L 510.101337 62.088471 
L 516.401245 63.075933 
L 523.331145 63.947074 
L 531.521026 64.742516 
L 540.970889 65.41696 
L 551.680734 65.950023 
L 564.910542 66.375484 
L 578.770341 66.643141 
L 578.770341 66.643141 
" clip-path="url(#p1994f987f1)" style="fill: none; stroke-dasharray: 12.8,3.2,2,3.2; stroke-dashoffset: 0; stroke: #000000; stroke-width: 2"/>
   </g>
   <g id="patch_13">
    <path d="M 447.13375 134.918125 
L 447.13375 22.318125 
" style="fill: none; stroke: #404040; stroke-width: 0.5; stroke-linejoin: miter; stroke-linecap: square"/>
   </g>
   <g id="patch_14">
    <path d="M 585.03875 134.918125 
L 585.03875 22.318125 
" style="fill: none; stroke: #404040; stroke-width: 0.5; stroke-linejoin: miter; stroke-linecap: square"/>
   </g>
   <g id="patch_15">
    <path d="M 447.13375 134.918125 
L 585.03875 134.918125 
" style="fill: none; stroke: #404040; stroke-width: 0.5; stroke-linejoin: miter; stroke-linecap: square"/>
   </g>
   <g id="patch_16">
    <path d="M 447.13375 22.318125 
L 585.03875 22.318125 
" style="fill: none; stroke: #404040; stroke-width: 0.5; stroke-linejoin: miter; stroke-linecap: square"/>
   </g>
   <g id="text_35">
    <!-- (C) -->
    <g style="fill: #ffffff" transform="translate(507.214688 16.318125) scale(0.12 -0.12)">
     <use xlink:href="#DejaVuSans-28"/>
     <use xlink:href="#DejaVuSans-43" transform="translate(39.013672 0)"/>
     <use xlink:href="#DejaVuSans-29" transform="translate(108.837891 0)"/>
    </g>
   </g>
  </g>
  <g id="axes_4">
   <g id="patch_17">
    <path d="M 645.62875 134.918125 
L 783.53375 134.918125 
L 783.53375 22.318125 
L 645.62875 22.318125 
z
" style="fill: #ffffff"/>
   </g>
   <g id="matplotlib.axis_7">
    <g id="xtick_10">
     <g id="line2d_39">
      <g>
       <use xlink:href="#mfb53dd25e9" x="651.897159" y="134.918125" style="stroke: #000000; stroke-width: 0.8"/>
      </g>
     </g>
     <g id="text_36">
      <!-- 0 -->
      <g transform="translate(648.715909 149.516563) scale(0.1 -0.1)">
       <use xlink:href="#DejaVuSans-30"/>
      </g>
     </g>
    </g>
    <g id="xtick_11">
     <g id="line2d_40">
      <g>
       <use xlink:href="#mfb53dd25e9" x="714.58125" y="134.918125" style="stroke: #000000; stroke-width: 0.8"/>
      </g>
     </g>
     <g id="text_37">
      <!-- 1 -->
      <g transform="translate(711.4 149.516563) scale(0.1 -0.1)">
       <use xlink:href="#DejaVuSans-31"/>
      </g>
     </g>
    </g>
    <g id="xtick_12">
     <g id="line2d_41">
      <g>
       <use xlink:href="#mfb53dd25e9" x="777.265341" y="134.918125" style="stroke: #000000; stroke-width: 0.8"/>
      </g>
     </g>
     <g id="text_38">
      <!-- 2 -->
      <g transform="translate(774.084091 149.516563) scale(0.1 -0.1)">
       <use xlink:href="#DejaVuSans-32"/>
      </g>
     </g>
    </g>
   </g>
   <g id="matplotlib.axis_8">
    <g id="ytick_14">
     <g id="line2d_42">
      <g>
       <use xlink:href="#mce604e6ee2" x="645.62875" y="129.07373" style="stroke: #000000; stroke-width: 0.8"/>
      </g>
     </g>
     <g id="text_39">
      <!-- 4.2 -->
      <g transform="translate(622.725625 132.872948) scale(0.1 -0.1)">
       <defs>
        <path id="DejaVuSans-34" d="M 2419 4116 
L 825 1625 
L 2419 1625 
L 2419 4116 
z
M 2253 4666 
L 3047 4666 
L 3047 1625 
L 3713 1625 
L 3713 1100 
L 3047 1100 
L 3047 0 
L 2419 0 
L 2419 1100 
L 313 1100 
L 313 1709 
L 2253 4666 
z
" transform="scale(0.015625)"/>
       </defs>
       <use xlink:href="#DejaVuSans-34"/>
       <use xlink:href="#DejaVuSans-2e" transform="translate(63.623047 0)"/>
       <use xlink:href="#DejaVuSans-32" transform="translate(95.410156 0)"/>
      </g>
     </g>
    </g>
    <g id="ytick_15">
     <g id="line2d_43">
      <g>
       <use xlink:href="#mce604e6ee2" x="645.62875" y="98.178413" style="stroke: #000000; stroke-width: 0.8"/>
      </g>
     </g>
     <g id="text_40">
      <!-- 4.3 -->
      <g transform="translate(622.725625 101.977631) scale(0.1 -0.1)">
       <use xlink:href="#DejaVuSans-34"/>
       <use xlink:href="#DejaVuSans-2e" transform="translate(63.623047 0)"/>
       <use xlink:href="#DejaVuSans-33" transform="translate(95.410156 0)"/>
      </g>
     </g>
    </g>
    <g id="ytick_16">
     <g id="line2d_44">
      <g>
       <use xlink:href="#mce604e6ee2" x="645.62875" y="67.283096" style="stroke: #000000; stroke-width: 0.8"/>
      </g>
     </g>
     <g id="text_41">
      <!-- 4.4 -->
      <g transform="translate(622.725625 71.082314) scale(0.1 -0.1)">
       <use xlink:href="#DejaVuSans-34"/>
       <use xlink:href="#DejaVuSans-2e" transform="translate(63.623047 0)"/>
       <use xlink:href="#DejaVuSans-34" transform="translate(95.410156 0)"/>
      </g>
     </g>
    </g>
    <g id="ytick_17">
     <g id="line2d_45">
      <g>
       <use xlink:href="#mce604e6ee2" x="645.62875" y="36.387779" style="stroke: #000000; stroke-width: 0.8"/>
      </g>
     </g>
     <g id="text_42">
      <!-- 4.5 -->
      <g transform="translate(622.725625 40.186997) scale(0.1 -0.1)">
       <use xlink:href="#DejaVuSans-34"/>
       <use xlink:href="#DejaVuSans-2e" transform="translate(63.623047 0)"/>
       <use xlink:href="#DejaVuSans-35" transform="translate(95.410156 0)"/>
      </g>
     </g>
    </g>
    <g id="text_43">
     <!-- Degree of reduction -->
     <g transform="translate(616.645938 128.501719) rotate(-90) scale(0.1 -0.1)">
      <defs>
       <path id="DejaVuSans-44" d="M 1259 4147 
L 1259 519 
L 2022 519 
Q 2988 519 3436 956 
Q 3884 1394 3884 2338 
Q 3884 3275 3436 3711 
Q 2988 4147 2022 4147 
L 1259 4147 
z
M 628 4666 
L 1925 4666 
Q 3281 4666 3915 4102 
Q 4550 3538 4550 2338 
Q 4550 1131 3912 565 
Q 3275 0 1925 0 
L 628 0 
L 628 4666 
z
" transform="scale(0.015625)"/>
       <path id="DejaVuSans-64" d="M 2906 2969 
L 2906 4863 
L 3481 4863 
L 3481 0 
L 2906 0 
L 2906 525 
Q 2725 213 2448 61 
Q 2172 -91 1784 -91 
Q 1150 -91 751 415 
Q 353 922 353 1747 
Q 353 2572 751 3078 
Q 1150 3584 1784 3584 
Q 2172 3584 2448 3432 
Q 2725 3281 2906 2969 
z
M 947 1747 
Q 947 1113 1208 752 
Q 1469 391 1925 391 
Q 2381 391 2643 752 
Q 2906 1113 2906 1747 
Q 2906 2381 2643 2742 
Q 2381 3103 1925 3103 
Q 1469 3103 1208 2742 
Q 947 2381 947 1747 
z
" transform="scale(0.015625)"/>
       <path id="DejaVuSans-75" d="M 544 1381 
L 544 3500 
L 1119 3500 
L 1119 1403 
Q 1119 906 1312 657 
Q 1506 409 1894 409 
Q 2359 409 2629 706 
Q 2900 1003 2900 1516 
L 2900 3500 
L 3475 3500 
L 3475 0 
L 2900 0 
L 2900 538 
Q 2691 219 2414 64 
Q 2138 -91 1772 -91 
Q 1169 -91 856 284 
Q 544 659 544 1381 
z
M 1991 3584 
L 1991 3584 
z
" transform="scale(0.015625)"/>
      </defs>
      <use xlink:href="#DejaVuSans-44"/>
      <use xlink:href="#DejaVuSans-65" transform="translate(77.001953 0)"/>
      <use xlink:href="#DejaVuSans-67" transform="translate(138.525391 0)"/>
      <use xlink:href="#DejaVuSans-72" transform="translate(202.001953 0)"/>
      <use xlink:href="#DejaVuSans-65" transform="translate(240.865234 0)"/>
      <use xlink:href="#DejaVuSans-65" transform="translate(302.388672 0)"/>
      <use xlink:href="#DejaVuSans-20" transform="translate(363.912109 0)"/>
      <use xlink:href="#DejaVuSans-6f" transform="translate(395.699219 0)"/>
      <use xlink:href="#DejaVuSans-66" transform="translate(456.880859 0)"/>
      <use xlink:href="#DejaVuSans-20" transform="translate(492.085938 0)"/>
      <use xlink:href="#DejaVuSans-72" transform="translate(523.873047 0)"/>
      <use xlink:href="#DejaVuSans-65" transform="translate(562.736328 0)"/>
      <use xlink:href="#DejaVuSans-64" transform="translate(624.259766 0)"/>
      <use xlink:href="#DejaVuSans-75" transform="translate(687.736328 0)"/>
      <use xlink:href="#DejaVuSans-63" transform="translate(751.115234 0)"/>
      <use xlink:href="#DejaVuSans-74" transform="translate(806.095703 0)"/>
      <use xlink:href="#DejaVuSans-69" transform="translate(845.304688 0)"/>
      <use xlink:href="#DejaVuSans-6f" transform="translate(873.087891 0)"/>
      <use xlink:href="#DejaVuSans-6e" transform="translate(934.269531 0)"/>
     </g>
    </g>
   </g>
   <g id="line2d_46">
    <path d="M 651.897159 111.210057 
L 655.047113 103.682834 
L 658.197068 96.782575 
L 661.347022 90.463192 
L 664.496976 84.681029 
L 667.646931 79.39494 
L 670.796885 74.566308 
L 673.946839 70.159035 
L 677.096794 66.139492 
L 680.246748 62.47645 
L 683.396702 59.140992 
L 686.546657 56.106414 
L 689.696611 53.348115 
L 692.846565 50.843486 
L 696.62651 48.143711 
L 700.406456 45.746967 
L 704.186401 43.612582 
L 708.596337 41.401842 
L 713.006273 39.457557 
L 717.416209 37.747705 
L 722.456136 36.044555 
L 727.496063 34.573939 
L 733.16598 33.157923 
L 739.465889 31.835465 
L 746.395789 30.634495 
L 753.955679 29.571917 
L 762.14556 28.654559 
L 771.595423 27.832625 
L 777.265341 27.436307 
L 777.265341 27.436307 
" clip-path="url(#pd581d76aff)" style="fill: none; stroke: #000000; stroke-width: 2; stroke-linecap: square"/>
   </g>
   <g id="line2d_47">
    <path d="M 651.897159 111.210057 
L 656.937086 105.475802 
L 662.607004 99.394705 
L 668.276922 93.668855 
L 673.946839 88.278308 
L 679.616757 83.204177 
L 685.286675 78.428512 
L 690.956593 73.934276 
L 696.62651 69.705311 
L 702.926419 65.298981 
L 709.226328 61.181417 
L 715.526236 57.333957 
L 721.826145 53.739053 
L 728.756044 50.056715 
L 735.685944 46.639499 
L 742.615843 43.468245 
L 750.175734 40.268257 
L 757.735624 37.318209 
L 765.295515 34.598166 
L 773.485396 31.889651 
L 777.265341 30.717269 
L 777.265341 30.717269 
" clip-path="url(#pd581d76aff)" style="fill: none; stroke-dasharray: 7.4,3.2; stroke-dashoffset: 0; stroke: #000000; stroke-width: 2"/>
   </g>
   <g id="line2d_48">
    <path d="M 651.897159 111.210057 
L 655.047113 112.557822 
L 658.197068 113.673083 
L 661.347022 114.519766 
L 663.866985 114.988001 
L 666.386949 115.263705 
L 668.906912 115.345727 
L 671.426876 115.236996 
L 673.946839 114.943868 
L 677.096794 114.332266 
L 680.246748 113.469317 
L 683.396702 112.380869 
L 687.176647 110.811357 
L 690.956593 108.993491 
L 695.366529 106.620438 
L 700.406456 103.66048 
L 707.336355 99.321566 
L 728.126054 86.114338 
L 735.055953 82.036433 
L 741.355862 78.562634 
L 747.65577 75.332968 
L 753.955679 72.356436 
L 760.255588 69.633252 
L 766.555496 67.157281 
L 772.855405 64.918003 
L 777.265341 63.48425 
L 777.265341 63.48425 
" clip-path="url(#pd581d76aff)" style="fill: none; stroke-dasharray: 2,3.3; stroke-dashoffset: 0; stroke: #000000; stroke-width: 2"/>
   </g>
   <g id="line2d_49">
    <path d="M 651.897159 111.210057 
L 660.08704 114.142242 
L 670.796885 117.934914 
L 677.726784 120.131505 
L 684.026693 121.879238 
L 690.326602 123.380081 
L 696.62651 124.644998 
L 703.55641 125.789839 
L 710.486309 126.710479 
L 718.676191 127.558702 
L 727.496063 128.241405 
L 738.205907 128.830445 
L 750.805725 129.289877 
L 767.185487 129.65407 
L 777.265341 129.799943 
L 777.265341 129.799943 
" clip-path="url(#pd581d76aff)" style="fill: none; stroke-dasharray: 12.8,3.2,2,3.2; stroke-dashoffset: 0; stroke: #000000; stroke-width: 2"/>
   </g>
   <g id="patch_18">
    <path d="M 645.62875 134.918125 
L 645.62875 22.318125 
" style="fill: none; stroke: #404040; stroke-width: 0.5; stroke-linejoin: miter; stroke-linecap: square"/>
   </g>
   <g id="patch_19">
    <path d="M 783.53375 134.918125 
L 783.53375 22.318125 
" style="fill: none; stroke: #404040; stroke-width: 0.5; stroke-linejoin: miter; stroke-linecap: square"/>
   </g>
   <g id="patch_20">
    <path d="M 645.62875 134.918125 
L 783.53375 134.918125 
" style="fill: none; stroke: #404040; stroke-width: 0.5; stroke-linejoin: miter; stroke-linecap: square"/>
   </g>
   <g id="patch_21">
    <path d="M 645.62875 22.318125 
L 783.53375 22.318125 
" style="fill: none; stroke: #404040; stroke-width: 0.5; stroke-linejoin: miter; stroke-linecap: square"/>
   </g>
   <g id="text_44">
    <!-- (D) -->
    <g style="fill: #ffffff" transform="translate(705.279375 16.318125) scale(0.12 -0.12)">
     <use xlink:href="#DejaVuSans-28"/>
     <use xlink:href="#DejaVuSans-44" transform="translate(39.013672 0)"/>
     <use xlink:href="#DejaVuSans-29" transform="translate(116.015625 0)"/>
    </g>
   </g>
  </g>
 </g>
 <defs>
  <clipPath id="pbe8c5cb540">
   <rect x="50.14375" y="22.318125" width="137.905" height="112.6"/>
  </clipPath>
  <clipPath id="p1c3013971e">
   <rect x="248.63875" y="22.318125" width="137.905" height="112.6"/>
  </clipPath>
  <clipPath id="p1994f987f1">
   <rect x="447.13375" y="22.318125" width="137.905" height="112.6"/>
  </clipPath>
  <clipPath id="pd581d76aff">
   <rect x="645.62875" y="22.318125" width="137.905" height="112.6"/>
  </clipPath>
 </defs>
</svg>
