<?xml version="1.0" encoding="utf-8" standalone="no"?>
<!DOCTYPE svg PUBLIC "-//W3C//DTD SVG 1.1//EN"
  "http://www.w3.org/Graphics/SVG/1.1/DTD/svg11.dtd">
<svg xmlns:xlink="http://www.w3.org/1999/xlink" width="504pt" height="144pt" viewBox="0 0 504 144" xmlns="http://www.w3.org/2000/svg" version="1.1">
 <metadata>
  <rdf:RDF xmlns:dc="http://purl.org/dc/elements/1.1/" xmlns:cc="http://creativecommons.org/ns#" xmlns:rdf="http://www.w3.org/1999/02/22-rdf-syntax-ns#">
   <cc:Work>
    <dc:type rdf:resource="http://purl.org/dc/dcmitype/StillImage"/>
    <dc:date>2025-06-14T11:54:46.365191</dc:date>
    <dc:format>image/svg+xml</dc:format>
    <dc:creator>
     <cc:Agent>
      <dc:title>Matplotlib v3.10.3, https://matplotlib.org/</dc:title>
     </cc:Agent>
    </dc:creator>
   </cc:Work>
  </rdf:RDF>
 </metadata>
 <defs>
  <style type="text/css">*{stroke-linejoin: round; stroke-linecap: butt}</style>
 </defs>
 <g id="figure_1">
  <g id="patch_1">
   <path d="M 0 144 
L 504 144 
L 504 0 
L 0 0 
L 0 144 
z
" style="fill: none"/>
  </g>
  <g id="axes_1">
   <g id="patch_2">
    <path d="M 13.995 102.04 
L 485.466185 102.04 
L 485.466185 10.8 
L 13.995 10.8 
L 13.995 102.04 
z
" style="fill: none"/>
   </g>
   <g id="FillBetweenPolyCollection_1"/>
   <g id="matplotlib.axis_1">
    <g id="xtick_1">
     <g id="line2d_1">
      <defs>
       <path id="mc66ffbb7cc" d="M 0 0 
L 0 3.5 
" style="stroke: #000000; stroke-width: 0.8"/>
      </defs>
      <g>
       <use xlink:href="#mc66ffbb7cc" x="13.995" y="102.04" style="stroke: #000000; stroke-width: 0.8"/>
      </g>
     </g>
     <g id="text_1">
      <!-- 0 -->
      <g style="fill: #ffffff" transform="translate(10.81375 116.638437) scale(0.1 -0.1)">
       <defs>
        <path id="DejaVuSans-30" d="M 2034 4250 
Q 1547 4250 1301 3770 
Q 1056 3291 1056 2328 
Q 1056 1369 1301 889 
Q 1547 409 2034 409 
Q 2525 409 2770 889 
Q 3016 1369 3016 2328 
Q 3016 3291 2770 3770 
Q 2525 4250 2034 4250 
z
M 2034 4750 
Q 2819 4750 3233 4129 
Q 3647 3509 3647 2328 
Q 3647 1150 3233 529 
Q 2819 -91 2034 -91 
Q 1250 -91 836 529 
Q 422 1150 422 2328 
Q 422 3509 836 4129 
Q 1250 4750 2034 4750 
z
" transform="scale(0.015625)"/>
       </defs>
       <use xlink:href="#DejaVuSans-30"/>
      </g>
     </g>
    </g>
    <g id="xtick_2">
     <g id="line2d_2">
      <g>
       <use xlink:href="#mc66ffbb7cc" x="114.545727" y="102.04" style="stroke: #000000; stroke-width: 0.8"/>
      </g>
     </g>
     <g id="text_2">
      <!-- 45 -->
      <g style="fill: #ffffff" transform="translate(108.183227 116.638437) scale(0.1 -0.1)">
       <defs>
        <path id="DejaVuSans-34" d="M 2419 4116 
L 825 1625 
L 2419 1625 
L 2419 4116 
z
M 2253 4666 
L 3047 4666 
L 3047 1625 
L 3713 1625 
L 3713 1100 
L 3047 1100 
L 3047 0 
L 2419 0 
L 2419 1100 
L 313 1100 
L 313 1709 
L 2253 4666 
z
" transform="scale(0.015625)"/>
        <path id="DejaVuSans-35" d="M 691 4666 
L 3169 4666 
L 3169 4134 
L 1269 4134 
L 1269 2991 
Q 1406 3038 1543 3061 
Q 1681 3084 1819 3084 
Q 2600 3084 3056 2656 
Q 3513 2228 3513 1497 
Q 3513 744 3044 326 
Q 2575 -91 1722 -91 
Q 1428 -91 1123 -41 
Q 819 9 494 109 
L 494 744 
Q 775 591 1075 516 
Q 1375 441 1709 441 
Q 2250 441 2565 725 
Q 2881 1009 2881 1497 
Q 2881 1984 2565 2268 
Q 2250 2553 1709 2553 
Q 1456 2553 1204 2497 
Q 953 2441 691 2322 
L 691 4666 
z
" transform="scale(0.015625)"/>
       </defs>
       <use xlink:href="#DejaVuSans-34"/>
       <use xlink:href="#DejaVuSans-35" transform="translate(63.623047 0)"/>
      </g>
     </g>
    </g>
    <g id="xtick_3">
     <g id="line2d_3">
      <g>
       <use xlink:href="#mc66ffbb7cc" x="148.062635" y="102.04" style="stroke: #000000; stroke-width: 0.8"/>
      </g>
     </g>
     <g id="text_3">
      <!-- 60 -->
      <g style="fill: #ffffff" transform="translate(141.700135 116.638437) scale(0.1 -0.1)">
       <defs>
        <path id="DejaVuSans-36" d="M 2113 2584 
Q 1688 2584 1439 2293 
Q 1191 2003 1191 1497 
Q 1191 994 1439 701 
Q 1688 409 2113 409 
Q 2538 409 2786 701 
Q 3034 994 3034 1497 
Q 3034 2003 2786 2293 
Q 2538 2584 2113 2584 
z
M 3366 4563 
L 3366 3988 
Q 3128 4100 2886 4159 
Q 2644 4219 2406 4219 
Q 1781 4219 1451 3797 
Q 1122 3375 1075 2522 
Q 1259 2794 1537 2939 
Q 1816 3084 2150 3084 
Q 2853 3084 3261 2657 
Q 3669 2231 3669 1497 
Q 3669 778 3244 343 
Q 2819 -91 2113 -91 
Q 1303 -91 875 529 
Q 447 1150 447 2328 
Q 447 3434 972 4092 
Q 1497 4750 2381 4750 
Q 2619 4750 2861 4703 
Q 3103 4656 3366 4563 
z
" transform="scale(0.015625)"/>
       </defs>
       <use xlink:href="#DejaVuSans-36"/>
       <use xlink:href="#DejaVuSans-30" transform="translate(63.623047 0)"/>
      </g>
     </g>
    </g>
    <g id="xtick_4">
     <g id="line2d_4">
      <g>
       <use xlink:href="#mc66ffbb7cc" x="226.268756" y="102.04" style="stroke: #000000; stroke-width: 0.8"/>
      </g>
     </g>
     <g id="text_4">
      <!-- 95 -->
      <g style="fill: #ffffff" transform="translate(219.906256 116.638437) scale(0.1 -0.1)">
       <defs>
        <path id="DejaVuSans-39" d="M 703 97 
L 703 672 
Q 941 559 1184 500 
Q 1428 441 1663 441 
Q 2288 441 2617 861 
Q 2947 1281 2994 2138 
Q 2813 1869 2534 1725 
Q 2256 1581 1919 1581 
Q 1219 1581 811 2004 
Q 403 2428 403 3163 
Q 403 3881 828 4315 
Q 1253 4750 1959 4750 
Q 2769 4750 3195 4129 
Q 3622 3509 3622 2328 
Q 3622 1225 3098 567 
Q 2575 -91 1691 -91 
Q 1453 -91 1209 -44 
Q 966 3 703 97 
z
M 1959 2075 
Q 2384 2075 2632 2365 
Q 2881 2656 2881 3163 
Q 2881 3666 2632 3958 
Q 2384 4250 1959 4250 
Q 1534 4250 1286 3958 
Q 1038 3666 1038 3163 
Q 1038 2656 1286 2365 
Q 1534 2075 1959 2075 
z
" transform="scale(0.015625)"/>
       </defs>
       <use xlink:href="#DejaVuSans-39"/>
       <use xlink:href="#DejaVuSans-35" transform="translate(63.623047 0)"/>
      </g>
     </g>
    </g>
    <g id="xtick_5">
     <g id="line2d_5">
      <g>
       <use xlink:href="#mc66ffbb7cc" x="259.785665" y="102.04" style="stroke: #000000; stroke-width: 0.8"/>
      </g>
     </g>
     <g id="text_5">
      <!-- 110 -->
      <g style="fill: #ffffff" transform="translate(250.241915 116.638437) scale(0.1 -0.1)">
       <defs>
        <path id="DejaVuSans-31" d="M 794 531 
L 1825 531 
L 1825 4091 
L 703 3866 
L 703 4441 
L 1819 4666 
L 2450 4666 
L 2450 531 
L 3481 531 
L 3481 0 
L 794 0 
L 794 531 
z
" transform="scale(0.015625)"/>
       </defs>
       <use xlink:href="#DejaVuSans-31"/>
       <use xlink:href="#DejaVuSans-31" transform="translate(63.623047 0)"/>
       <use xlink:href="#DejaVuSans-30" transform="translate(127.246094 0)"/>
      </g>
     </g>
    </g>
    <g id="xtick_6">
     <g id="line2d_6">
      <g>
       <use xlink:href="#mc66ffbb7cc" x="337.991786" y="102.04" style="stroke: #000000; stroke-width: 0.8"/>
      </g>
     </g>
     <g id="text_6">
      <!-- 145 -->
      <g style="fill: #ffffff" transform="translate(328.448036 116.638437) scale(0.1 -0.1)">
       <use xlink:href="#DejaVuSans-31"/>
       <use xlink:href="#DejaVuSans-34" transform="translate(63.623047 0)"/>
       <use xlink:href="#DejaVuSans-35" transform="translate(127.246094 0)"/>
      </g>
     </g>
    </g>
    <g id="xtick_7">
     <g id="line2d_7">
      <g>
       <use xlink:href="#mc66ffbb7cc" x="382.680998" y="102.04" style="stroke: #000000; stroke-width: 0.8"/>
      </g>
     </g>
     <g id="text_7">
      <!-- 165 -->
      <g style="fill: #ffffff" transform="translate(373.137248 116.638437) scale(0.1 -0.1)">
       <use xlink:href="#DejaVuSans-31"/>
       <use xlink:href="#DejaVuSans-36" transform="translate(63.623047 0)"/>
       <use xlink:href="#DejaVuSans-35" transform="translate(127.246094 0)"/>
      </g>
     </g>
    </g>
    <g id="xtick_8">
     <g id="line2d_8">
      <g>
       <use xlink:href="#mc66ffbb7cc" x="483.231724" y="102.04" style="stroke: #000000; stroke-width: 0.8"/>
      </g>
     </g>
     <g id="text_8">
      <!-- 210 -->
      <g style="fill: #ffffff" transform="translate(473.687974 116.638437) scale(0.1 -0.1)">
       <defs>
        <path id="DejaVuSans-32" d="M 1228 531 
L 3431 531 
L 3431 0 
L 469 0 
L 469 531 
Q 828 903 1448 1529 
Q 2069 2156 2228 2338 
Q 2531 2678 2651 2914 
Q 2772 3150 2772 3378 
Q 2772 3750 2511 3984 
Q 2250 4219 1831 4219 
Q 1534 4219 1204 4116 
Q 875 4013 500 3803 
L 500 4441 
Q 881 4594 1212 4672 
Q 1544 4750 1819 4750 
Q 2544 4750 2975 4387 
Q 3406 4025 3406 3419 
Q 3406 3131 3298 2873 
Q 3191 2616 2906 2266 
Q 2828 2175 2409 1742 
Q 1991 1309 1228 531 
z
" transform="scale(0.015625)"/>
       </defs>
       <use xlink:href="#DejaVuSans-32"/>
       <use xlink:href="#DejaVuSans-31" transform="translate(63.623047 0)"/>
       <use xlink:href="#DejaVuSans-30" transform="translate(127.246094 0)"/>
      </g>
     </g>
    </g>
    <g id="text_9">
     <!-- Chemical shift (ppm) -->
     <g transform="translate(197.438405 130.316563) scale(0.1 -0.1)">
      <defs>
       <path id="DejaVuSans-43" d="M 4122 4306 
L 4122 3641 
Q 3803 3938 3442 4084 
Q 3081 4231 2675 4231 
Q 1875 4231 1450 3742 
Q 1025 3253 1025 2328 
Q 1025 1406 1450 917 
Q 1875 428 2675 428 
Q 3081 428 3442 575 
Q 3803 722 4122 1019 
L 4122 359 
Q 3791 134 3420 21 
Q 3050 -91 2638 -91 
Q 1578 -91 968 557 
Q 359 1206 359 2328 
Q 359 3453 968 4101 
Q 1578 4750 2638 4750 
Q 3056 4750 3426 4639 
Q 3797 4528 4122 4306 
z
" transform="scale(0.015625)"/>
       <path id="DejaVuSans-68" d="M 3513 2113 
L 3513 0 
L 2938 0 
L 2938 2094 
Q 2938 2591 2744 2837 
Q 2550 3084 2163 3084 
Q 1697 3084 1428 2787 
Q 1159 2491 1159 1978 
L 1159 0 
L 581 0 
L 581 4863 
L 1159 4863 
L 1159 2956 
Q 1366 3272 1645 3428 
Q 1925 3584 2291 3584 
Q 2894 3584 3203 3211 
Q 3513 2838 3513 2113 
z
" transform="scale(0.015625)"/>
       <path id="DejaVuSans-65" d="M 3597 1894 
L 3597 1613 
L 953 1613 
Q 991 1019 1311 708 
Q 1631 397 2203 397 
Q 2534 397 2845 478 
Q 3156 559 3463 722 
L 3463 178 
Q 3153 47 2828 -22 
Q 2503 -91 2169 -91 
Q 1331 -91 842 396 
Q 353 884 353 1716 
Q 353 2575 817 3079 
Q 1281 3584 2069 3584 
Q 2775 3584 3186 3129 
Q 3597 2675 3597 1894 
z
M 3022 2063 
Q 3016 2534 2758 2815 
Q 2500 3097 2075 3097 
Q 1594 3097 1305 2825 
Q 1016 2553 972 2059 
L 3022 2063 
z
" transform="scale(0.015625)"/>
       <path id="DejaVuSans-6d" d="M 3328 2828 
Q 3544 3216 3844 3400 
Q 4144 3584 4550 3584 
Q 5097 3584 5394 3201 
Q 5691 2819 5691 2113 
L 5691 0 
L 5113 0 
L 5113 2094 
Q 5113 2597 4934 2840 
Q 4756 3084 4391 3084 
Q 3944 3084 3684 2787 
Q 3425 2491 3425 1978 
L 3425 0 
L 2847 0 
L 2847 2094 
Q 2847 2600 2669 2842 
Q 2491 3084 2119 3084 
Q 1678 3084 1418 2786 
Q 1159 2488 1159 1978 
L 1159 0 
L 581 0 
L 581 3500 
L 1159 3500 
L 1159 2956 
Q 1356 3278 1631 3431 
Q 1906 3584 2284 3584 
Q 2666 3584 2933 3390 
Q 3200 3197 3328 2828 
z
" transform="scale(0.015625)"/>
       <path id="DejaVuSans-69" d="M 603 3500 
L 1178 3500 
L 1178 0 
L 603 0 
L 603 3500 
z
M 603 4863 
L 1178 4863 
L 1178 4134 
L 603 4134 
L 603 4863 
z
" transform="scale(0.015625)"/>
       <path id="DejaVuSans-63" d="M 3122 3366 
L 3122 2828 
Q 2878 2963 2633 3030 
Q 2388 3097 2138 3097 
Q 1578 3097 1268 2742 
Q 959 2388 959 1747 
Q 959 1106 1268 751 
Q 1578 397 2138 397 
Q 2388 397 2633 464 
Q 2878 531 3122 666 
L 3122 134 
Q 2881 22 2623 -34 
Q 2366 -91 2075 -91 
Q 1284 -91 818 406 
Q 353 903 353 1747 
Q 353 2603 823 3093 
Q 1294 3584 2113 3584 
Q 2378 3584 2631 3529 
Q 2884 3475 3122 3366 
z
" transform="scale(0.015625)"/>
       <path id="DejaVuSans-61" d="M 2194 1759 
Q 1497 1759 1228 1600 
Q 959 1441 959 1056 
Q 959 750 1161 570 
Q 1363 391 1709 391 
Q 2188 391 2477 730 
Q 2766 1069 2766 1631 
L 2766 1759 
L 2194 1759 
z
M 3341 1997 
L 3341 0 
L 2766 0 
L 2766 531 
Q 2569 213 2275 61 
Q 1981 -91 1556 -91 
Q 1019 -91 701 211 
Q 384 513 384 1019 
Q 384 1609 779 1909 
Q 1175 2209 1959 2209 
L 2766 2209 
L 2766 2266 
Q 2766 2663 2505 2880 
Q 2244 3097 1772 3097 
Q 1472 3097 1187 3025 
Q 903 2953 641 2809 
L 641 3341 
Q 956 3463 1253 3523 
Q 1550 3584 1831 3584 
Q 2591 3584 2966 3190 
Q 3341 2797 3341 1997 
z
" transform="scale(0.015625)"/>
       <path id="DejaVuSans-6c" d="M 603 4863 
L 1178 4863 
L 1178 0 
L 603 0 
L 603 4863 
z
" transform="scale(0.015625)"/>
       <path id="DejaVuSans-20" transform="scale(0.015625)"/>
       <path id="DejaVuSans-73" d="M 2834 3397 
L 2834 2853 
Q 2591 2978 2328 3040 
Q 2066 3103 1784 3103 
Q 1356 3103 1142 2972 
Q 928 2841 928 2578 
Q 928 2378 1081 2264 
Q 1234 2150 1697 2047 
L 1894 2003 
Q 2506 1872 2764 1633 
Q 3022 1394 3022 966 
Q 3022 478 2636 193 
Q 2250 -91 1575 -91 
Q 1294 -91 989 -36 
Q 684 19 347 128 
L 347 722 
Q 666 556 975 473 
Q 1284 391 1588 391 
Q 1994 391 2212 530 
Q 2431 669 2431 922 
Q 2431 1156 2273 1281 
Q 2116 1406 1581 1522 
L 1381 1569 
Q 847 1681 609 1914 
Q 372 2147 372 2553 
Q 372 3047 722 3315 
Q 1072 3584 1716 3584 
Q 2034 3584 2315 3537 
Q 2597 3491 2834 3397 
z
" transform="scale(0.015625)"/>
       <path id="DejaVuSans-66" d="M 2375 4863 
L 2375 4384 
L 1825 4384 
Q 1516 4384 1395 4259 
Q 1275 4134 1275 3809 
L 1275 3500 
L 2222 3500 
L 2222 3053 
L 1275 3053 
L 1275 0 
L 697 0 
L 697 3053 
L 147 3053 
L 147 3500 
L 697 3500 
L 697 3744 
Q 697 4328 969 4595 
Q 1241 4863 1831 4863 
L 2375 4863 
z
" transform="scale(0.015625)"/>
       <path id="DejaVuSans-74" d="M 1172 4494 
L 1172 3500 
L 2356 3500 
L 2356 3053 
L 1172 3053 
L 1172 1153 
Q 1172 725 1289 603 
Q 1406 481 1766 481 
L 2356 481 
L 2356 0 
L 1766 0 
Q 1100 0 847 248 
Q 594 497 594 1153 
L 594 3053 
L 172 3053 
L 172 3500 
L 594 3500 
L 594 4494 
L 1172 4494 
z
" transform="scale(0.015625)"/>
       <path id="DejaVuSans-28" d="M 1984 4856 
Q 1566 4138 1362 3434 
Q 1159 2731 1159 2009 
Q 1159 1288 1364 580 
Q 1569 -128 1984 -844 
L 1484 -844 
Q 1016 -109 783 600 
Q 550 1309 550 2009 
Q 550 2706 781 3412 
Q 1013 4119 1484 4856 
L 1984 4856 
z
" transform="scale(0.015625)"/>
       <path id="DejaVuSans-70" d="M 1159 525 
L 1159 -1331 
L 581 -1331 
L 581 3500 
L 1159 3500 
L 1159 2969 
Q 1341 3281 1617 3432 
Q 1894 3584 2278 3584 
Q 2916 3584 3314 3078 
Q 3713 2572 3713 1747 
Q 3713 922 3314 415 
Q 2916 -91 2278 -91 
Q 1894 -91 1617 61 
Q 1341 213 1159 525 
z
M 3116 1747 
Q 3116 2381 2855 2742 
Q 2594 3103 2138 3103 
Q 1681 3103 1420 2742 
Q 1159 2381 1159 1747 
Q 1159 1113 1420 752 
Q 1681 391 2138 391 
Q 2594 391 2855 752 
Q 3116 1113 3116 1747 
z
" transform="scale(0.015625)"/>
       <path id="DejaVuSans-29" d="M 513 4856 
L 1013 4856 
Q 1481 4119 1714 3412 
Q 1947 2706 1947 2009 
Q 1947 1309 1714 600 
Q 1481 -109 1013 -844 
L 513 -844 
Q 928 -128 1133 580 
Q 1338 1288 1338 2009 
Q 1338 2731 1133 3434 
Q 928 4138 513 4856 
z
" transform="scale(0.015625)"/>
      </defs>
      <use xlink:href="#DejaVuSans-43"/>
      <use xlink:href="#DejaVuSans-68" transform="translate(69.824219 0)"/>
      <use xlink:href="#DejaVuSans-65" transform="translate(133.203125 0)"/>
      <use xlink:href="#DejaVuSans-6d" transform="translate(194.726562 0)"/>
      <use xlink:href="#DejaVuSans-69" transform="translate(292.138672 0)"/>
      <use xlink:href="#DejaVuSans-63" transform="translate(319.921875 0)"/>
      <use xlink:href="#DejaVuSans-61" transform="translate(374.902344 0)"/>
      <use xlink:href="#DejaVuSans-6c" transform="translate(436.181641 0)"/>
      <use xlink:href="#DejaVuSans-20" transform="translate(463.964844 0)"/>
      <use xlink:href="#DejaVuSans-73" transform="translate(495.751953 0)"/>
      <use xlink:href="#DejaVuSans-68" transform="translate(547.851562 0)"/>
      <use xlink:href="#DejaVuSans-69" transform="translate(611.230469 0)"/>
      <use xlink:href="#DejaVuSans-66" transform="translate(639.013672 0)"/>
      <use xlink:href="#DejaVuSans-74" transform="translate(672.46875 0)"/>
      <use xlink:href="#DejaVuSans-20" transform="translate(711.677734 0)"/>
      <use xlink:href="#DejaVuSans-28" transform="translate(743.464844 0)"/>
      <use xlink:href="#DejaVuSans-70" transform="translate(782.478516 0)"/>
      <use xlink:href="#DejaVuSans-70" transform="translate(845.955078 0)"/>
      <use xlink:href="#DejaVuSans-6d" transform="translate(909.431641 0)"/>
      <use xlink:href="#DejaVuSans-29" transform="translate(1006.84375 0)"/>
     </g>
    </g>
   </g>
   <g id="line2d_9">
    <path d="M 13.78943 101.903705 
L 16.49983 101.854806 
L 19.704047 101.812669 
L 27.341433 101.579442 
L 33.253816 101.643774 
L 36.949614 101.517016 
L 43.601603 101.069983 
L 47.297401 100.743986 
L 50.253592 100.325738 
L 53.209783 99.944424 
L 55.180578 99.535713 
L 56.905581 98.949438 
L 58.139003 98.29935 
L 59.370191 97.335575 
L 60.84717 95.820033 
L 62.572173 94.035889 
L 63.31178 93.519841 
L 64.051386 93.287135 
L 64.790993 93.363952 
L 65.528365 93.702608 
L 66.761787 94.598582 
L 68.732581 96.050832 
L 69.717978 96.512951 
L 71.194957 96.913166 
L 74.644964 97.562213 
L 77.109574 97.77914 
L 78.586552 97.716715 
L 80.311556 97.40615 
L 83.761563 96.644217 
L 85.238542 96.699706 
L 86.471964 96.738375 
L 87.209336 96.587341 
L 88.194733 96.139961 
L 89.182364 95.736973 
L 89.673946 95.705587 
L 90.413552 95.946964 
L 91.398949 96.629998 
L 92.630137 97.47898 
L 93.863559 98.049476 
L 95.340538 98.488879 
L 97.065541 98.74777 
L 99.036336 98.842101 
L 103.717531 98.719679 
L 107.659119 98.639046 
L 120.717307 98.776902 
L 128.600484 97.975779 
L 130.571278 97.428866 
L 132.296282 96.743231 
L 133.775494 95.893035 
L 135.252473 94.766436 
L 136.731686 93.350253 
L 139.442087 90.716955 
L 140.673274 89.832772 
L 141.658671 89.373775 
L 142.644069 89.126502 
L 145.60026 88.602651 
L 146.339866 88.163768 
L 147.325264 87.276465 
L 148.558686 85.782251 
L 150.281455 83.256115 
L 152.006458 80.34173 
L 153.485671 77.343765 
L 156.196072 71.423438 
L 157.181469 69.920207 
L 158.166866 68.810775 
L 159.152263 67.951909 
L 159.89187 67.533314 
L 160.383451 67.462566 
L 160.877267 67.641691 
L 161.368848 68.126873 
L 161.862664 68.938746 
L 162.600036 70.690464 
L 164.818855 76.572642 
L 165.558462 77.656411 
L 166.050043 78.008592 
L 166.543859 78.070671 
L 167.03544 77.86276 
L 167.529256 77.4133 
L 168.266628 76.349992 
L 169.006235 74.895661 
L 169.991632 72.442701 
L 170.977029 69.406241 
L 171.962426 65.575247 
L 172.702032 61.888178 
L 173.441639 57.24982 
L 174.427036 49.450672 
L 177.629018 21.075344 
L 178.368625 17.114645 
L 179.108231 14.543598 
L 179.847837 12.946036 
L 180.585209 11.873538 
L 181.324816 11.118888 
L 181.818632 10.840056 
L 182.310213 10.843524 
L 182.804029 11.241484 
L 183.29561 12.136591 
L 183.789426 13.604968 
L 184.529032 16.948178 
L 185.266404 21.564688 
L 186.251801 29.145869 
L 189.456018 54.864835 
L 190.441415 60.946947 
L 191.426812 65.700618 
L 192.412209 69.233878 
L 193.151816 71.215355 
L 193.891422 72.726042 
L 194.628794 73.845012 
L 195.368401 74.637117 
L 196.108007 75.157153 
L 197.093404 75.536385 
L 198.572617 75.78123 
L 200.295386 76.09613 
L 201.280783 76.458542 
L 202.266181 77.04898 
L 203.253812 77.932122 
L 204.239209 79.165711 
L 205.470397 81.192446 
L 207.932773 85.552665 
L 208.920404 86.873823 
L 209.905801 87.807078 
L 210.643173 88.249603 
L 211.62857 88.56537 
L 214.09318 89.142108 
L 214.832787 89.618446 
L 215.572393 90.345352 
L 216.55779 91.645528 
L 218.528585 94.372464 
L 219.513982 95.344388 
L 220.499379 95.984072 
L 221.484776 96.337814 
L 222.470173 96.473589 
L 223.947152 96.425383 
L 227.397159 96.023435 
L 228.628347 95.658074 
L 229.861769 95.043361 
L 231.338747 94.017335 
L 234.294939 91.93303 
L 237.744946 89.523421 
L 239.224159 88.304051 
L 240.455347 87.003355 
L 241.934559 85.067657 
L 243.657329 82.39829 
L 244.890751 80.156536 
L 246.121939 77.415034 
L 247.601151 73.412718 
L 248.832339 70.236668 
L 249.571946 68.904065 
L 250.063527 68.407613 
L 250.557343 68.299756 
L 251.048924 68.627488 
L 251.54274 69.413697 
L 252.034321 70.64902 
L 252.773928 73.222148 
L 255.97591 86.02883 
L 256.961307 88.586872 
L 257.948938 90.532801 
L 258.934336 92.010195 
L 259.919733 93.105235 
L 261.150921 94.109238 
L 262.630133 95.013015 
L 264.107112 95.665184 
L 265.832115 96.157475 
L 267.557119 96.40943 
L 269.773704 96.529078 
L 274.209108 96.415846 
L 275.934112 96.434053 
L 277.904906 96.724503 
L 282.831892 97.538284 
L 290.469278 98.280449 
L 293.179679 98.394201 
L 296.629686 98.293974 
L 310.425245 97.60279 
L 312.889856 97.621864 
L 319.296054 98.116583 
L 323.729224 98.697656 
L 330.629238 99.770501 
L 333.585429 99.942864 
L 335.310433 99.805008 
L 339.006231 99.163764 
L 344.179007 98.252357 
L 347.135199 97.897748 
L 348.860202 97.957746 
L 351.324812 98.084677 
L 353.047581 97.929307 
L 357.976801 97.238817 
L 359.207989 97.443952 
L 360.687202 97.938151 
L 365.120372 99.620681 
L 366.845375 99.869341 
L 370.047357 100.084881 
L 374.236971 100.001994 
L 378.918166 99.881652 
L 387.047134 99.744317 
L 388.526347 99.494443 
L 390.25135 98.9562 
L 392.222144 98.080341 
L 394.438729 96.846579 
L 396.163733 95.596169 
L 399.119924 93.430192 
L 400.353346 92.781144 
L 401.338744 92.464857 
L 402.324141 92.341394 
L 403.555328 92.44769 
L 404.786516 92.783052 
L 406.265729 93.405569 
L 408.236523 94.509799 
L 411.192715 96.208282 
L 412.917718 96.899467 
L 414.642722 97.342512 
L 416.613516 97.588397 
L 419.075892 97.920637 
L 422.525899 98.765284 
L 430.902892 100.760459 
L 433.119477 101.017442 
L 437.063299 101.199862 
L 440.265282 101.336157 
L 444.946476 101.518057 
L 459.975458 101.254658 
L 466.627448 101.066862 
L 474.510625 100.950509 
L 478.700238 101.251016 
L 485.598018 101.306505 
L 485.598018 101.306505 
" clip-path="url(#p3970e6897c)" style="fill: none; stroke: #000000; stroke-width: 1.5; stroke-linecap: square"/>
   </g>
   <g id="line2d_10">
    <path d="M 13.995 102.04 
L 13.995 10.8 
" clip-path="url(#p3970e6897c)" style="fill: none; stroke-dasharray: 1.85,0.8; stroke-dashoffset: 0; stroke: #ffffff; stroke-width: 0.5"/>
   </g>
   <g id="line2d_11">
    <path d="M 114.545727 102.04 
L 114.545727 10.8 
" clip-path="url(#p3970e6897c)" style="fill: none; stroke-dasharray: 1.85,0.8; stroke-dashoffset: 0; stroke: #ffffff; stroke-width: 0.5"/>
   </g>
   <g id="line2d_12">
    <path d="M 148.062635 102.04 
L 148.062635 10.8 
" clip-path="url(#p3970e6897c)" style="fill: none; stroke-dasharray: 1.85,0.8; stroke-dashoffset: 0; stroke: #ffffff; stroke-width: 0.5"/>
   </g>
   <g id="line2d_13">
    <path d="M 226.268756 102.04 
L 226.268756 10.8 
" clip-path="url(#p3970e6897c)" style="fill: none; stroke-dasharray: 1.85,0.8; stroke-dashoffset: 0; stroke: #ffffff; stroke-width: 0.5"/>
   </g>
   <g id="line2d_14">
    <path d="M 259.785665 102.04 
L 259.785665 10.8 
" clip-path="url(#p3970e6897c)" style="fill: none; stroke-dasharray: 1.85,0.8; stroke-dashoffset: 0; stroke: #ffffff; stroke-width: 0.5"/>
   </g>
   <g id="line2d_15">
    <path d="M 337.991786 102.04 
L 337.991786 10.8 
" clip-path="url(#p3970e6897c)" style="fill: none; stroke-dasharray: 1.85,0.8; stroke-dashoffset: 0; stroke: #ffffff; stroke-width: 0.5"/>
   </g>
   <g id="line2d_16">
    <path d="M 382.680998 102.04 
L 382.680998 10.8 
" clip-path="url(#p3970e6897c)" style="fill: none; stroke-dasharray: 1.85,0.8; stroke-dashoffset: 0; stroke: #ffffff; stroke-width: 0.5"/>
   </g>
   <g id="line2d_17">
    <path d="M 483.231724 102.04 
L 483.231724 10.8 
" clip-path="url(#p3970e6897c)" style="fill: none; stroke-dasharray: 1.85,0.8; stroke-dashoffset: 0; stroke: #ffffff; stroke-width: 0.5"/>
   </g>
  </g>
 </g>
 <defs>
  <clipPath id="p3970e6897c">
   <rect x="13.995" y="10.8" width="471.471185" height="91.24"/>
  </clipPath>
 </defs>
</svg>
