<?xml version="1.0" encoding="utf-8" standalone="no"?>
<!DOCTYPE svg PUBLIC "-//W3C//DTD SVG 1.1//EN"
  "http://www.w3.org/Graphics/SVG/1.1/DTD/svg11.dtd">
<svg xmlns:xlink="http://www.w3.org/1999/xlink" width="504pt" height="144pt" viewBox="0 0 504 144" xmlns="http://www.w3.org/2000/svg" version="1.1">
 <metadata>
  <rdf:RDF xmlns:dc="http://purl.org/dc/elements/1.1/" xmlns:cc="http://creativecommons.org/ns#" xmlns:rdf="http://www.w3.org/1999/02/22-rdf-syntax-ns#">
   <cc:Work>
    <dc:type rdf:resource="http://purl.org/dc/dcmitype/StillImage"/>
    <dc:date>2025-09-10T11:14:56.455453</dc:date>
    <dc:format>image/svg+xml</dc:format>
    <dc:creator>
     <cc:Agent>
      <dc:title>Matplotlib v3.10.1, https://matplotlib.org/</dc:title>
     </cc:Agent>
    </dc:creator>
   </cc:Work>
  </rdf:RDF>
 </metadata>
 <defs>
  <style type="text/css">*{stroke-linejoin: round; stroke-linecap: butt}</style>
 </defs>
 <g id="figure_1">
  <g id="patch_1">
   <path d="M 0 144 
L 504 144 
L 504 0 
L 0 0 
L 0 144 
z
" style="fill: none"/>
  </g>
  <g id="axes_1">
   <g id="patch_2">
    <path d="M 13.95 102.04 
L 485.556185 102.04 
L 485.556185 10.8 
L 13.95 10.8 
L 13.95 102.04 
z
" style="fill: none"/>
   </g>
   <g id="FillBetweenPolyCollection_1"/>
   <g id="matplotlib.axis_1">
    <g id="xtick_1">
     <g id="line2d_1">
      <defs>
       <path id="m4f6b04fcfa" d="M 0 0 
L 0 3.5 
" style="stroke: #000000; stroke-width: 0.8"/>
      </defs>
      <g>
       <use xlink:href="#m4f6b04fcfa" x="13.95" y="102.04" style="stroke: #000000; stroke-width: 0.8"/>
      </g>
     </g>
     <g id="text_1">
      <!-- 0 -->
      <g style="fill: #ffffff" transform="translate(10.76875 116.638437) scale(0.1 -0.1)">
       <defs>
        <path id="DejaVuSans-30" d="M 2034 4250 
Q 1547 4250 1301 3770 
Q 1056 3291 1056 2328 
Q 1056 1369 1301 889 
Q 1547 409 2034 409 
Q 2525 409 2770 889 
Q 3016 1369 3016 2328 
Q 3016 3291 2770 3770 
Q 2525 4250 2034 4250 
z
M 2034 4750 
Q 2819 4750 3233 4129 
Q 3647 3509 3647 2328 
Q 3647 1150 3233 529 
Q 2819 -91 2034 -91 
Q 1250 -91 836 529 
Q 422 1150 422 2328 
Q 422 3509 836 4129 
Q 1250 4750 2034 4750 
z
" transform="scale(0.015625)"/>
       </defs>
       <use xlink:href="#DejaVuSans-30"/>
      </g>
     </g>
    </g>
    <g id="xtick_2">
     <g id="line2d_2">
      <g>
       <use xlink:href="#m4f6b04fcfa" x="114.529518" y="102.04" style="stroke: #000000; stroke-width: 0.8"/>
      </g>
     </g>
     <g id="text_2">
      <!-- 45 -->
      <g style="fill: #ffffff" transform="translate(108.167018 116.638437) scale(0.1 -0.1)">
       <defs>
        <path id="DejaVuSans-34" d="M 2419 4116 
L 825 1625 
L 2419 1625 
L 2419 4116 
z
M 2253 4666 
L 3047 4666 
L 3047 1625 
L 3713 1625 
L 3713 1100 
L 3047 1100 
L 3047 0 
L 2419 0 
L 2419 1100 
L 313 1100 
L 313 1709 
L 2253 4666 
z
" transform="scale(0.015625)"/>
        <path id="DejaVuSans-35" d="M 691 4666 
L 3169 4666 
L 3169 4134 
L 1269 4134 
L 1269 2991 
Q 1406 3038 1543 3061 
Q 1681 3084 1819 3084 
Q 2600 3084 3056 2656 
Q 3513 2228 3513 1497 
Q 3513 744 3044 326 
Q 2575 -91 1722 -91 
Q 1428 -91 1123 -41 
Q 819 9 494 109 
L 494 744 
Q 775 591 1075 516 
Q 1375 441 1709 441 
Q 2250 441 2565 725 
Q 2881 1009 2881 1497 
Q 2881 1984 2565 2268 
Q 2250 2553 1709 2553 
Q 1456 2553 1204 2497 
Q 953 2441 691 2322 
L 691 4666 
z
" transform="scale(0.015625)"/>
       </defs>
       <use xlink:href="#DejaVuSans-34"/>
       <use xlink:href="#DejaVuSans-35" transform="translate(63.623047 0)"/>
      </g>
     </g>
    </g>
    <g id="xtick_3">
     <g id="line2d_3">
      <g>
       <use xlink:href="#m4f6b04fcfa" x="148.056024" y="102.04" style="stroke: #000000; stroke-width: 0.8"/>
      </g>
     </g>
     <g id="text_3">
      <!-- 60 -->
      <g style="fill: #ffffff" transform="translate(141.693524 116.638437) scale(0.1 -0.1)">
       <defs>
        <path id="DejaVuSans-36" d="M 2113 2584 
Q 1688 2584 1439 2293 
Q 1191 2003 1191 1497 
Q 1191 994 1439 701 
Q 1688 409 2113 409 
Q 2538 409 2786 701 
Q 3034 994 3034 1497 
Q 3034 2003 2786 2293 
Q 2538 2584 2113 2584 
z
M 3366 4563 
L 3366 3988 
Q 3128 4100 2886 4159 
Q 2644 4219 2406 4219 
Q 1781 4219 1451 3797 
Q 1122 3375 1075 2522 
Q 1259 2794 1537 2939 
Q 1816 3084 2150 3084 
Q 2853 3084 3261 2657 
Q 3669 2231 3669 1497 
Q 3669 778 3244 343 
Q 2819 -91 2113 -91 
Q 1303 -91 875 529 
Q 447 1150 447 2328 
Q 447 3434 972 4092 
Q 1497 4750 2381 4750 
Q 2619 4750 2861 4703 
Q 3103 4656 3366 4563 
z
" transform="scale(0.015625)"/>
       </defs>
       <use xlink:href="#DejaVuSans-36"/>
       <use xlink:href="#DejaVuSans-30" transform="translate(63.623047 0)"/>
      </g>
     </g>
    </g>
    <g id="xtick_4">
     <g id="line2d_4">
      <g>
       <use xlink:href="#m4f6b04fcfa" x="226.284538" y="102.04" style="stroke: #000000; stroke-width: 0.8"/>
      </g>
     </g>
     <g id="text_4">
      <!-- 95 -->
      <g style="fill: #ffffff" transform="translate(219.922038 116.638437) scale(0.1 -0.1)">
       <defs>
        <path id="DejaVuSans-39" d="M 703 97 
L 703 672 
Q 941 559 1184 500 
Q 1428 441 1663 441 
Q 2288 441 2617 861 
Q 2947 1281 2994 2138 
Q 2813 1869 2534 1725 
Q 2256 1581 1919 1581 
Q 1219 1581 811 2004 
Q 403 2428 403 3163 
Q 403 3881 828 4315 
Q 1253 4750 1959 4750 
Q 2769 4750 3195 4129 
Q 3622 3509 3622 2328 
Q 3622 1225 3098 567 
Q 2575 -91 1691 -91 
Q 1453 -91 1209 -44 
Q 966 3 703 97 
z
M 1959 2075 
Q 2384 2075 2632 2365 
Q 2881 2656 2881 3163 
Q 2881 3666 2632 3958 
Q 2384 4250 1959 4250 
Q 1534 4250 1286 3958 
Q 1038 3666 1038 3163 
Q 1038 2656 1286 2365 
Q 1534 2075 1959 2075 
z
" transform="scale(0.015625)"/>
       </defs>
       <use xlink:href="#DejaVuSans-39"/>
       <use xlink:href="#DejaVuSans-35" transform="translate(63.623047 0)"/>
      </g>
     </g>
    </g>
    <g id="xtick_5">
     <g id="line2d_5">
      <g>
       <use xlink:href="#m4f6b04fcfa" x="259.811044" y="102.04" style="stroke: #000000; stroke-width: 0.8"/>
      </g>
     </g>
     <g id="text_5">
      <!-- 110 -->
      <g style="fill: #ffffff" transform="translate(250.267294 116.638437) scale(0.1 -0.1)">
       <defs>
        <path id="DejaVuSans-31" d="M 794 531 
L 1825 531 
L 1825 4091 
L 703 3866 
L 703 4441 
L 1819 4666 
L 2450 4666 
L 2450 531 
L 3481 531 
L 3481 0 
L 794 0 
L 794 531 
z
" transform="scale(0.015625)"/>
       </defs>
       <use xlink:href="#DejaVuSans-31"/>
       <use xlink:href="#DejaVuSans-31" transform="translate(63.623047 0)"/>
       <use xlink:href="#DejaVuSans-30" transform="translate(127.246094 0)"/>
      </g>
     </g>
    </g>
    <g id="xtick_6">
     <g id="line2d_6">
      <g>
       <use xlink:href="#m4f6b04fcfa" x="338.039558" y="102.04" style="stroke: #000000; stroke-width: 0.8"/>
      </g>
     </g>
     <g id="text_6">
      <!-- 145 -->
      <g style="fill: #ffffff" transform="translate(328.495808 116.638437) scale(0.1 -0.1)">
       <use xlink:href="#DejaVuSans-31"/>
       <use xlink:href="#DejaVuSans-34" transform="translate(63.623047 0)"/>
       <use xlink:href="#DejaVuSans-35" transform="translate(127.246094 0)"/>
      </g>
     </g>
    </g>
    <g id="xtick_7">
     <g id="line2d_7">
      <g>
       <use xlink:href="#m4f6b04fcfa" x="382.741566" y="102.04" style="stroke: #000000; stroke-width: 0.8"/>
      </g>
     </g>
     <g id="text_7">
      <!-- 165 -->
      <g style="fill: #ffffff" transform="translate(373.197816 116.638437) scale(0.1 -0.1)">
       <use xlink:href="#DejaVuSans-31"/>
       <use xlink:href="#DejaVuSans-36" transform="translate(63.623047 0)"/>
       <use xlink:href="#DejaVuSans-35" transform="translate(127.246094 0)"/>
      </g>
     </g>
    </g>
    <g id="xtick_8">
     <g id="line2d_8">
      <g>
       <use xlink:href="#m4f6b04fcfa" x="483.321084" y="102.04" style="stroke: #000000; stroke-width: 0.8"/>
      </g>
     </g>
     <g id="text_8">
      <!-- 210 -->
      <g style="fill: #ffffff" transform="translate(473.777334 116.638437) scale(0.1 -0.1)">
       <defs>
        <path id="DejaVuSans-32" d="M 1228 531 
L 3431 531 
L 3431 0 
L 469 0 
L 469 531 
Q 828 903 1448 1529 
Q 2069 2156 2228 2338 
Q 2531 2678 2651 2914 
Q 2772 3150 2772 3378 
Q 2772 3750 2511 3984 
Q 2250 4219 1831 4219 
Q 1534 4219 1204 4116 
Q 875 4013 500 3803 
L 500 4441 
Q 881 4594 1212 4672 
Q 1544 4750 1819 4750 
Q 2544 4750 2975 4387 
Q 3406 4025 3406 3419 
Q 3406 3131 3298 2873 
Q 3191 2616 2906 2266 
Q 2828 2175 2409 1742 
Q 1991 1309 1228 531 
z
" transform="scale(0.015625)"/>
       </defs>
       <use xlink:href="#DejaVuSans-32"/>
       <use xlink:href="#DejaVuSans-31" transform="translate(63.623047 0)"/>
       <use xlink:href="#DejaVuSans-30" transform="translate(127.246094 0)"/>
      </g>
     </g>
    </g>
    <g id="text_9">
     <!-- Chemical shift (ppm) -->
     <g transform="translate(197.460905 130.316563) scale(0.1 -0.1)">
      <defs>
       <path id="DejaVuSans-43" d="M 4122 4306 
L 4122 3641 
Q 3803 3938 3442 4084 
Q 3081 4231 2675 4231 
Q 1875 4231 1450 3742 
Q 1025 3253 1025 2328 
Q 1025 1406 1450 917 
Q 1875 428 2675 428 
Q 3081 428 3442 575 
Q 3803 722 4122 1019 
L 4122 359 
Q 3791 134 3420 21 
Q 3050 -91 2638 -91 
Q 1578 -91 968 557 
Q 359 1206 359 2328 
Q 359 3453 968 4101 
Q 1578 4750 2638 4750 
Q 3056 4750 3426 4639 
Q 3797 4528 4122 4306 
z
" transform="scale(0.015625)"/>
       <path id="DejaVuSans-68" d="M 3513 2113 
L 3513 0 
L 2938 0 
L 2938 2094 
Q 2938 2591 2744 2837 
Q 2550 3084 2163 3084 
Q 1697 3084 1428 2787 
Q 1159 2491 1159 1978 
L 1159 0 
L 581 0 
L 581 4863 
L 1159 4863 
L 1159 2956 
Q 1366 3272 1645 3428 
Q 1925 3584 2291 3584 
Q 2894 3584 3203 3211 
Q 3513 2838 3513 2113 
z
" transform="scale(0.015625)"/>
       <path id="DejaVuSans-65" d="M 3597 1894 
L 3597 1613 
L 953 1613 
Q 991 1019 1311 708 
Q 1631 397 2203 397 
Q 2534 397 2845 478 
Q 3156 559 3463 722 
L 3463 178 
Q 3153 47 2828 -22 
Q 2503 -91 2169 -91 
Q 1331 -91 842 396 
Q 353 884 353 1716 
Q 353 2575 817 3079 
Q 1281 3584 2069 3584 
Q 2775 3584 3186 3129 
Q 3597 2675 3597 1894 
z
M 3022 2063 
Q 3016 2534 2758 2815 
Q 2500 3097 2075 3097 
Q 1594 3097 1305 2825 
Q 1016 2553 972 2059 
L 3022 2063 
z
" transform="scale(0.015625)"/>
       <path id="DejaVuSans-6d" d="M 3328 2828 
Q 3544 3216 3844 3400 
Q 4144 3584 4550 3584 
Q 5097 3584 5394 3201 
Q 5691 2819 5691 2113 
L 5691 0 
L 5113 0 
L 5113 2094 
Q 5113 2597 4934 2840 
Q 4756 3084 4391 3084 
Q 3944 3084 3684 2787 
Q 3425 2491 3425 1978 
L 3425 0 
L 2847 0 
L 2847 2094 
Q 2847 2600 2669 2842 
Q 2491 3084 2119 3084 
Q 1678 3084 1418 2786 
Q 1159 2488 1159 1978 
L 1159 0 
L 581 0 
L 581 3500 
L 1159 3500 
L 1159 2956 
Q 1356 3278 1631 3431 
Q 1906 3584 2284 3584 
Q 2666 3584 2933 3390 
Q 3200 3197 3328 2828 
z
" transform="scale(0.015625)"/>
       <path id="DejaVuSans-69" d="M 603 3500 
L 1178 3500 
L 1178 0 
L 603 0 
L 603 3500 
z
M 603 4863 
L 1178 4863 
L 1178 4134 
L 603 4134 
L 603 4863 
z
" transform="scale(0.015625)"/>
       <path id="DejaVuSans-63" d="M 3122 3366 
L 3122 2828 
Q 2878 2963 2633 3030 
Q 2388 3097 2138 3097 
Q 1578 3097 1268 2742 
Q 959 2388 959 1747 
Q 959 1106 1268 751 
Q 1578 397 2138 397 
Q 2388 397 2633 464 
Q 2878 531 3122 666 
L 3122 134 
Q 2881 22 2623 -34 
Q 2366 -91 2075 -91 
Q 1284 -91 818 406 
Q 353 903 353 1747 
Q 353 2603 823 3093 
Q 1294 3584 2113 3584 
Q 2378 3584 2631 3529 
Q 2884 3475 3122 3366 
z
" transform="scale(0.015625)"/>
       <path id="DejaVuSans-61" d="M 2194 1759 
Q 1497 1759 1228 1600 
Q 959 1441 959 1056 
Q 959 750 1161 570 
Q 1363 391 1709 391 
Q 2188 391 2477 730 
Q 2766 1069 2766 1631 
L 2766 1759 
L 2194 1759 
z
M 3341 1997 
L 3341 0 
L 2766 0 
L 2766 531 
Q 2569 213 2275 61 
Q 1981 -91 1556 -91 
Q 1019 -91 701 211 
Q 384 513 384 1019 
Q 384 1609 779 1909 
Q 1175 2209 1959 2209 
L 2766 2209 
L 2766 2266 
Q 2766 2663 2505 2880 
Q 2244 3097 1772 3097 
Q 1472 3097 1187 3025 
Q 903 2953 641 2809 
L 641 3341 
Q 956 3463 1253 3523 
Q 1550 3584 1831 3584 
Q 2591 3584 2966 3190 
Q 3341 2797 3341 1997 
z
" transform="scale(0.015625)"/>
       <path id="DejaVuSans-6c" d="M 603 4863 
L 1178 4863 
L 1178 0 
L 603 0 
L 603 4863 
z
" transform="scale(0.015625)"/>
       <path id="DejaVuSans-20" transform="scale(0.015625)"/>
       <path id="DejaVuSans-73" d="M 2834 3397 
L 2834 2853 
Q 2591 2978 2328 3040 
Q 2066 3103 1784 3103 
Q 1356 3103 1142 2972 
Q 928 2841 928 2578 
Q 928 2378 1081 2264 
Q 1234 2150 1697 2047 
L 1894 2003 
Q 2506 1872 2764 1633 
Q 3022 1394 3022 966 
Q 3022 478 2636 193 
Q 2250 -91 1575 -91 
Q 1294 -91 989 -36 
Q 684 19 347 128 
L 347 722 
Q 666 556 975 473 
Q 1284 391 1588 391 
Q 1994 391 2212 530 
Q 2431 669 2431 922 
Q 2431 1156 2273 1281 
Q 2116 1406 1581 1522 
L 1381 1569 
Q 847 1681 609 1914 
Q 372 2147 372 2553 
Q 372 3047 722 3315 
Q 1072 3584 1716 3584 
Q 2034 3584 2315 3537 
Q 2597 3491 2834 3397 
z
" transform="scale(0.015625)"/>
       <path id="DejaVuSans-66" d="M 2375 4863 
L 2375 4384 
L 1825 4384 
Q 1516 4384 1395 4259 
Q 1275 4134 1275 3809 
L 1275 3500 
L 2222 3500 
L 2222 3053 
L 1275 3053 
L 1275 0 
L 697 0 
L 697 3053 
L 147 3053 
L 147 3500 
L 697 3500 
L 697 3744 
Q 697 4328 969 4595 
Q 1241 4863 1831 4863 
L 2375 4863 
z
" transform="scale(0.015625)"/>
       <path id="DejaVuSans-74" d="M 1172 4494 
L 1172 3500 
L 2356 3500 
L 2356 3053 
L 1172 3053 
L 1172 1153 
Q 1172 725 1289 603 
Q 1406 481 1766 481 
L 2356 481 
L 2356 0 
L 1766 0 
Q 1100 0 847 248 
Q 594 497 594 1153 
L 594 3053 
L 172 3053 
L 172 3500 
L 594 3500 
L 594 4494 
L 1172 4494 
z
" transform="scale(0.015625)"/>
       <path id="DejaVuSans-28" d="M 1984 4856 
Q 1566 4138 1362 3434 
Q 1159 2731 1159 2009 
Q 1159 1288 1364 580 
Q 1569 -128 1984 -844 
L 1484 -844 
Q 1016 -109 783 600 
Q 550 1309 550 2009 
Q 550 2706 781 3412 
Q 1013 4119 1484 4856 
L 1984 4856 
z
" transform="scale(0.015625)"/>
       <path id="DejaVuSans-70" d="M 1159 525 
L 1159 -1331 
L 581 -1331 
L 581 3500 
L 1159 3500 
L 1159 2969 
Q 1341 3281 1617 3432 
Q 1894 3584 2278 3584 
Q 2916 3584 3314 3078 
Q 3713 2572 3713 1747 
Q 3713 922 3314 415 
Q 2916 -91 2278 -91 
Q 1894 -91 1617 61 
Q 1341 213 1159 525 
z
M 3116 1747 
Q 3116 2381 2855 2742 
Q 2594 3103 2138 3103 
Q 1681 3103 1420 2742 
Q 1159 2381 1159 1747 
Q 1159 1113 1420 752 
Q 1681 391 2138 391 
Q 2594 391 2855 752 
Q 3116 1113 3116 1747 
z
" transform="scale(0.015625)"/>
       <path id="DejaVuSans-29" d="M 513 4856 
L 1013 4856 
Q 1481 4119 1714 3412 
Q 1947 2706 1947 2009 
Q 1947 1309 1714 600 
Q 1481 -109 1013 -844 
L 513 -844 
Q 928 -128 1133 580 
Q 1338 1288 1338 2009 
Q 1338 2731 1133 3434 
Q 928 4138 513 4856 
z
" transform="scale(0.015625)"/>
      </defs>
      <use xlink:href="#DejaVuSans-43"/>
      <use xlink:href="#DejaVuSans-68" transform="translate(69.824219 0)"/>
      <use xlink:href="#DejaVuSans-65" transform="translate(133.203125 0)"/>
      <use xlink:href="#DejaVuSans-6d" transform="translate(194.726562 0)"/>
      <use xlink:href="#DejaVuSans-69" transform="translate(292.138672 0)"/>
      <use xlink:href="#DejaVuSans-63" transform="translate(319.921875 0)"/>
      <use xlink:href="#DejaVuSans-61" transform="translate(374.902344 0)"/>
      <use xlink:href="#DejaVuSans-6c" transform="translate(436.181641 0)"/>
      <use xlink:href="#DejaVuSans-20" transform="translate(463.964844 0)"/>
      <use xlink:href="#DejaVuSans-73" transform="translate(495.751953 0)"/>
      <use xlink:href="#DejaVuSans-68" transform="translate(547.851562 0)"/>
      <use xlink:href="#DejaVuSans-69" transform="translate(611.230469 0)"/>
      <use xlink:href="#DejaVuSans-66" transform="translate(639.013672 0)"/>
      <use xlink:href="#DejaVuSans-74" transform="translate(672.46875 0)"/>
      <use xlink:href="#DejaVuSans-20" transform="translate(711.677734 0)"/>
      <use xlink:href="#DejaVuSans-28" transform="translate(743.464844 0)"/>
      <use xlink:href="#DejaVuSans-70" transform="translate(782.478516 0)"/>
      <use xlink:href="#DejaVuSans-70" transform="translate(845.955078 0)"/>
      <use xlink:href="#DejaVuSans-6d" transform="translate(909.431641 0)"/>
      <use xlink:href="#DejaVuSans-29" transform="translate(1006.84375 0)"/>
     </g>
    </g>
   </g>
   <g id="line2d_9">
    <path d="M 13.744371 101.903705 
L 16.455548 101.854806 
L 19.660682 101.812669 
L 27.300255 101.579442 
L 33.21433 101.643774 
L 36.911186 101.517016 
L 43.56508 101.069983 
L 47.261936 100.743986 
L 50.218974 100.325738 
L 53.176012 99.944424 
L 55.147371 99.535713 
L 56.872868 98.949438 
L 58.106644 98.29935 
L 59.338184 97.335575 
L 60.815585 95.820033 
L 62.541083 94.035889 
L 63.280901 93.519841 
L 64.020719 93.287135 
L 64.760537 93.363952 
L 65.498121 93.702608 
L 66.731896 94.598582 
L 68.703255 96.050832 
L 69.688934 96.512951 
L 71.166335 96.913166 
L 74.61733 97.562213 
L 77.082646 97.77914 
L 78.560047 97.716715 
L 80.285545 97.40615 
L 83.73654 96.644217 
L 85.213941 96.699706 
L 86.447717 96.738375 
L 87.1853 96.587341 
L 88.170979 96.139961 
L 89.158893 95.736973 
L 89.650616 95.705587 
L 90.390434 95.946964 
L 91.376113 96.629998 
L 92.607653 97.47898 
L 93.841429 98.049476 
L 95.31883 98.488879 
L 97.044328 98.74777 
L 99.015686 98.842101 
L 103.698222 98.719679 
L 107.640939 98.639046 
L 120.702865 98.776902 
L 128.5883 97.975779 
L 130.559658 97.428866 
L 132.285156 96.743231 
L 133.764792 95.893035 
L 135.242194 94.766436 
L 136.72183 93.350253 
L 139.433007 90.716955 
L 140.664547 89.832772 
L 141.650226 89.373775 
L 142.635906 89.126502 
L 145.592943 88.602651 
L 146.332762 88.163768 
L 147.318441 87.276465 
L 148.552216 85.782251 
L 150.275479 83.256115 
L 152.000976 80.34173 
L 153.480613 77.343765 
L 156.19179 71.423438 
L 157.177469 69.920207 
L 158.163148 68.810775 
L 159.148827 67.951909 
L 159.888646 67.533314 
L 160.380368 67.462566 
L 160.874325 67.641691 
L 161.366047 68.126873 
L 161.860004 68.938746 
L 162.597587 70.690464 
L 164.817042 76.572642 
L 165.55686 77.656411 
L 166.048582 78.008592 
L 166.54254 78.070671 
L 167.034262 77.86276 
L 167.528219 77.4133 
L 168.265802 76.349992 
L 169.00562 74.895661 
L 169.991299 72.442701 
L 170.976979 69.406241 
L 171.962658 65.575247 
L 172.702476 61.888178 
L 173.442294 57.24982 
L 174.427974 49.450672 
L 177.630873 21.075344 
L 178.370691 17.114645 
L 179.110509 14.543598 
L 179.850327 12.946036 
L 180.58791 11.873538 
L 181.327729 11.118888 
L 181.821686 10.840056 
L 182.313408 10.843524 
L 182.807365 11.241484 
L 183.299087 12.136591 
L 183.793044 13.604968 
L 184.532863 16.948178 
L 185.270446 21.564688 
L 186.256125 29.145869 
L 189.461259 54.864835 
L 190.446938 60.946947 
L 191.432618 65.700618 
L 192.418297 69.233878 
L 193.158115 71.215355 
L 193.897933 72.726042 
L 194.635517 73.845012 
L 195.375335 74.637117 
L 196.115153 75.157153 
L 197.100832 75.536385 
L 198.580469 75.78123 
L 200.303731 76.09613 
L 201.28941 76.458542 
L 202.27509 77.04898 
L 203.263004 77.932122 
L 204.248683 79.165711 
L 205.480224 81.192446 
L 207.943304 85.552665 
L 208.931219 86.873823 
L 209.916898 87.807078 
L 210.654481 88.249603 
L 211.64016 88.56537 
L 214.105476 89.142108 
L 214.845294 89.618446 
L 215.585113 90.345352 
L 216.570792 91.645528 
L 218.54215 94.372464 
L 219.52783 95.344388 
L 220.513509 95.984072 
L 221.499188 96.337814 
L 222.484868 96.473589 
L 223.962269 96.425383 
L 227.413264 96.023435 
L 228.644804 95.658074 
L 229.87858 95.043361 
L 231.355981 94.017335 
L 234.313019 91.93303 
L 237.764014 89.523421 
L 239.24365 88.304051 
L 240.475191 87.003355 
L 241.954827 85.067657 
L 243.67809 82.39829 
L 244.911865 80.156536 
L 246.143405 77.415034 
L 247.623042 73.412718 
L 248.854582 70.236668 
L 249.5944 68.904065 
L 250.086122 68.407613 
L 250.58008 68.299756 
L 251.071802 68.627488 
L 251.565759 69.413697 
L 252.057481 70.64902 
L 252.797299 73.222148 
L 256.000198 86.02883 
L 256.985877 88.586872 
L 257.973792 90.532801 
L 258.959471 92.010195 
L 259.94515 93.105235 
L 261.176691 94.109238 
L 262.656327 95.013015 
L 264.133728 95.665184 
L 265.859226 96.157475 
L 267.584723 96.40943 
L 269.801943 96.529078 
L 274.238617 96.415846 
L 275.964115 96.434053 
L 277.935473 96.724503 
L 282.86387 97.538284 
L 290.503443 98.280449 
L 293.21462 98.394201 
L 296.665615 98.293974 
L 310.465125 97.60279 
L 312.93044 97.621864 
L 319.338473 98.116583 
L 323.772912 98.697656 
L 330.674902 99.770501 
L 333.63194 99.942864 
L 335.357438 99.805008 
L 339.054294 99.163764 
L 344.228551 98.252357 
L 347.185589 97.897748 
L 348.911087 97.957746 
L 351.376402 98.084677 
L 353.099665 97.929307 
L 358.030296 97.238817 
L 359.261837 97.443952 
L 360.741473 97.938151 
L 365.175912 99.620681 
L 366.90141 99.869341 
L 370.104309 100.084881 
L 374.295122 100.001994 
L 378.977657 99.881652 
L 387.108953 99.744317 
L 388.588589 99.494443 
L 390.314087 98.9562 
L 392.285445 98.080341 
L 394.502665 96.846579 
L 396.228162 95.596169 
L 399.1852 93.430192 
L 400.418975 92.781144 
L 401.404655 92.464857 
L 402.390334 92.341394 
L 403.621874 92.44769 
L 404.853415 92.783052 
L 406.333051 93.405569 
L 408.30441 94.509799 
L 411.261447 96.208282 
L 412.986945 96.899467 
L 414.712442 97.342512 
L 416.683801 97.588397 
L 419.146882 97.920637 
L 422.597877 98.765284 
L 430.977268 100.760459 
L 433.194488 101.017442 
L 437.13944 101.199862 
L 440.342339 101.336157 
L 445.024874 101.518057 
L 460.058159 101.254658 
L 466.712053 101.066862 
L 474.597488 100.950509 
L 478.788301 101.251016 
L 485.688056 101.306505 
L 485.688056 101.306505 
" clip-path="url(#pab71851cea)" style="fill: none; stroke: #000000; stroke-width: 1.5; stroke-linecap: square"/>
   </g>
   <g id="line2d_10">
    <path d="M 13.95 102.04 
L 13.95 10.8 
" clip-path="url(#pab71851cea)" style="fill: none; stroke-dasharray: 1.85,0.8; stroke-dashoffset: 0; stroke: #ffffff; stroke-width: 0.5"/>
   </g>
   <g id="line2d_11">
    <path d="M 114.529518 102.04 
L 114.529518 10.8 
" clip-path="url(#pab71851cea)" style="fill: none; stroke-dasharray: 1.85,0.8; stroke-dashoffset: 0; stroke: #ffffff; stroke-width: 0.5"/>
   </g>
   <g id="line2d_12">
    <path d="M 148.056024 102.04 
L 148.056024 10.8 
" clip-path="url(#pab71851cea)" style="fill: none; stroke-dasharray: 1.85,0.8; stroke-dashoffset: 0; stroke: #ffffff; stroke-width: 0.5"/>
   </g>
   <g id="line2d_13">
    <path d="M 226.284538 102.04 
L 226.284538 10.8 
" clip-path="url(#pab71851cea)" style="fill: none; stroke-dasharray: 1.85,0.8; stroke-dashoffset: 0; stroke: #ffffff; stroke-width: 0.5"/>
   </g>
   <g id="line2d_14">
    <path d="M 259.811044 102.04 
L 259.811044 10.8 
" clip-path="url(#pab71851cea)" style="fill: none; stroke-dasharray: 1.85,0.8; stroke-dashoffset: 0; stroke: #ffffff; stroke-width: 0.5"/>
   </g>
   <g id="line2d_15">
    <path d="M 338.039558 102.04 
L 338.039558 10.8 
" clip-path="url(#pab71851cea)" style="fill: none; stroke-dasharray: 1.85,0.8; stroke-dashoffset: 0; stroke: #ffffff; stroke-width: 0.5"/>
   </g>
   <g id="line2d_16">
    <path d="M 382.741566 102.04 
L 382.741566 10.8 
" clip-path="url(#pab71851cea)" style="fill: none; stroke-dasharray: 1.85,0.8; stroke-dashoffset: 0; stroke: #ffffff; stroke-width: 0.5"/>
   </g>
   <g id="line2d_17">
    <path d="M 483.321084 102.04 
L 483.321084 10.8 
" clip-path="url(#pab71851cea)" style="fill: none; stroke-dasharray: 1.85,0.8; stroke-dashoffset: 0; stroke: #ffffff; stroke-width: 0.5"/>
   </g>
  </g>
 </g>
 <defs>
  <clipPath id="pab71851cea">
   <rect x="13.95" y="10.8" width="471.606185" height="91.24"/>
  </clipPath>
 </defs>
</svg>
